<svg xmlns="http://www.w3.org/2000/svg" viewBox="0 0 873.06 471.06"><defs><style>.cls-1{fill:#ec522a;}.cls-2,.cls-5{fill:none;stroke:#455260;stroke-miterlimit:10;}.cls-2{stroke-width:3px;}.cls-3,.cls-32,.cls-41,.cls-52,.cls-56,.cls-6,.cls-61{fill:#455260;}.cls-4{fill:#f6e861;}.cls-5{stroke-linecap:round;stroke-width:2px;}.cls-32,.cls-41,.cls-52,.cls-56,.cls-6{font-size:16px;}.cls-32,.cls-41,.cls-52,.cls-56,.cls-6,.cls-61{font-family:Montserrat-SemiBold, Montserrat;font-weight:600;}.cls-6{letter-spacing:0.03em;}.cls-7{letter-spacing:0.01em;}.cls-8{letter-spacing:0.01em;}.cls-9{letter-spacing:0.02em;}.cls-10{letter-spacing:0.06em;}.cls-11{letter-spacing:0.01em;}.cls-12{letter-spacing:0.01em;}.cls-13{letter-spacing:0.03em;}.cls-14{letter-spacing:0.03em;}.cls-15{letter-spacing:0.03em;}.cls-16{letter-spacing:0.03em;}.cls-17{letter-spacing:0.02em;}.cls-18{letter-spacing:0.02em;}.cls-19{letter-spacing:0.02em;}.cls-20{letter-spacing:0.03em;}.cls-21{letter-spacing:0.02em;}.cls-22{letter-spacing:0.02em;}.cls-23{letter-spacing:0.02em;}.cls-24{letter-spacing:0.02em;}.cls-25{letter-spacing:0.03em;}.cls-26{letter-spacing:0.02em;}.cls-27{letter-spacing:0.01em;}.cls-28{letter-spacing:0.02em;}.cls-29{letter-spacing:0.01em;}.cls-30{letter-spacing:0.01em;}.cls-31{letter-spacing:0.03em;}.cls-32{letter-spacing:0.03em;}.cls-33{letter-spacing:0.02em;}.cls-34{letter-spacing:0.02em;}.cls-35{letter-spacing:0.02em;}.cls-36{letter-spacing:0.04em;}.cls-37{letter-spacing:0.02em;}.cls-38{letter-spacing:0.01em;}.cls-39{letter-spacing:0.01em;}.cls-40{letter-spacing:0.02em;}.cls-41{letter-spacing:-0.02em;}.cls-42{letter-spacing:0.01em;}.cls-43{letter-spacing:0.05em;}.cls-44{letter-spacing:0.02em;}.cls-45{letter-spacing:0.01em;}.cls-46{letter-spacing:0.03em;}.cls-47{letter-spacing:0.02em;}.cls-48{letter-spacing:0.01em;}.cls-49{letter-spacing:0.01em;}.cls-50{letter-spacing:0em;}.cls-51{letter-spacing:0.01em;}.cls-52{letter-spacing:0.01em;}.cls-53{letter-spacing:0.02em;}.cls-54{letter-spacing:0.02em;}.cls-55{letter-spacing:0.02em;}.cls-56{letter-spacing:0.02em;}.cls-57{letter-spacing:0.01em;}.cls-58{letter-spacing:0.01em;}.cls-59{letter-spacing:0.02em;}.cls-60{letter-spacing:0.03em;}.cls-61{font-size:24px;}.cls-62{letter-spacing:-0.02em;}.cls-63{letter-spacing:-0.06em;}.cls-64{letter-spacing:-0.01em;}.cls-65{letter-spacing:-0.06em;}</style></defs><g id="Layer_2" data-name="Layer 2"><g id="Layer_1-2" data-name="Layer 1"><path class="cls-1" d="M310.56,74.61a177.54,177.54,0,0,0,23.8,23.93q51.12,42.55,130.39,42.53,94.93,0,163.18-66.46l142.68,67.1q-53.36,75.58-127.86,112Q568.46,289.87,466,289.89q-158.76,0-258.45-100.11a351,351,0,0,1-40.08-47.92Z"/><path class="cls-2" d="M795.11,155.75C747,215.12,692.53,259.69,656.86,276.82,603.16,302.62,539.68,316,465.77,316q-171.66,0-279.45-108.24A381.27,381.27,0,0,1,143,155.91"/><path class="cls-3" d="M501,448.18a2.46,2.46,0,0,0-3.33,1,31.5,31.5,0,0,1-59.41-14.53l2,2a2.47,2.47,0,0,0,3.49-3.49l-6.08-6.08a2.46,2.46,0,0,0-1.86-.85,2.42,2.42,0,0,0-1.9.91l-6,6a2.47,2.47,0,0,0,3.49,3.49l2-2A36.43,36.43,0,0,0,502,451.51a2.46,2.46,0,0,0-1-3.33Z"/><path class="cls-3" d="M510.6,430.49a2.47,2.47,0,0,0-3.49,0l-2,2a36.44,36.44,0,0,0-68.72-16.82,2.47,2.47,0,1,0,4.38,2.29,31.49,31.49,0,0,1,59.4,14.53l-2-2a2.47,2.47,0,0,0-3.49,3.49l6.08,6.08a2.47,2.47,0,0,0,3.77-.05l6-6a2.46,2.46,0,0,0,0-3.49Z"/><path class="cls-3" d="M472.58,430.75a24,24,0,0,1-6.09-2.83A2,2,0,0,1,466,426a2.76,2.76,0,0,1,1.84-2.2,4.91,4.91,0,0,1,4.45.66,2.47,2.47,0,0,0,2.95-4,9.9,9.9,0,0,0-3.67-1.65v-1a2.47,2.47,0,0,0-4.94,0V419l-.22.07a7.67,7.67,0,0,0-5.27,6,6.83,6.83,0,0,0,2.28,6.74c1.57,1.23,3.74,2.28,7.49,3.6a3.18,3.18,0,0,1,2.3,3.73,4.17,4.17,0,0,1-4.13,3.51c-2.38,0-3.13-.1-5-1.3a2.47,2.47,0,1,0-2.7,4.13,11,11,0,0,0,5.21,2v1.13a2.47,2.47,0,0,0,4.94,0v-1.37a8.74,8.74,0,0,0,3.65-2,9.24,9.24,0,0,0,2.86-5.26,8.14,8.14,0,0,0-5.53-9.2Z"/><path class="cls-3" d="M252.45,373.59a1.72,1.72,0,0,0,1.73-1.73v-7.7a1.73,1.73,0,0,0-3.46,0v7.7a1.73,1.73,0,0,0,1.73,1.73Z"/><path class="cls-3" d="M294.67,421.77l-3.05-3a5.79,5.79,0,0,0-6.84-1L279,412l.28-.28a6,6,0,0,0-3-10.09,6,6,0,0,0-4.52-7.54,5.88,5.88,0,0,0,.24-1.68,6,6,0,0,0-4.76-5.86,6,6,0,0,0-6.39-7.63l-11.39-2.15c-1.74-.33-3.91-.55-5.28.7a3.38,3.38,0,0,0-.26.27,6,6,0,0,0-6.3,1.39,6,6,0,0,0-1.51,5.91,6,6,0,0,0-4.52,7.54,6,6,0,0,0-4.76,5.86,6,6,0,0,0,1,3.38,6,6,0,0,0-2.29,9.9l.27.28-5.75,5.74a5.77,5.77,0,0,0-6.53,1.13l-3.05,3.05a5.75,5.75,0,0,0,0,8.14l3.81,3.81a1.73,1.73,0,0,0,2.44-2.44L213,427.63a2.32,2.32,0,0,1,0-3.26l3.05-3a2.31,2.31,0,0,1,2.82-.35,1.78,1.78,0,0,0,.21.27,1.64,1.64,0,0,0,.5.34l17.51,17.49a1.68,1.68,0,0,0,.35.5,2,2,0,0,0,.48.34,2.3,2.3,0,0,1-.09,3.15l-3.05,3.05a2.32,2.32,0,0,1-3.27,0l-3.81-3.81a1.73,1.73,0,0,0-2.44,0,1.71,1.71,0,0,0,0,2.44l3.81,3.82a5.79,5.79,0,0,0,8.15,0l3.05-3a5.8,5.8,0,0,0,.81-7.14l6.47-6.46,0,0c.74-.77,2.8-.63,4.8-.49a24.51,24.51,0,0,0,4.54,0l7.09,7.08a5.79,5.79,0,0,0,1,6.84l3.05,3.05a5.78,5.78,0,0,0,8.15,0l18.51-18.49a5.76,5.76,0,0,0,0-8.15Zm-45.83-41.6,7.49,1.42-4.49,4.48a10.71,10.71,0,0,1-2.68-1.95,8,8,0,0,1-2.55-3.93h0a1,1,0,0,1,0-.17,6.12,6.12,0,0,1,2.23.15Zm-8.76,1.41a2.55,2.55,0,0,1,3.22-.31,12.45,12.45,0,0,0,3.47,5.35,13,13,0,0,0,5,3.08,2.48,2.48,0,0,1,.46,1.45,2.54,2.54,0,0,1-4.33,1.79h0l-7.79-7.78a2.53,2.53,0,0,1,0-3.58Zm-4.51,7.54a2.53,2.53,0,0,1,3.58,0l6.28,6.26a2.54,2.54,0,0,1-3.6,3.59h0l-4.76-4.76,0,0-1.49-1.49a2.57,2.57,0,0,1-.74-1.8,2.49,2.49,0,0,1,.75-1.78ZM231,396.65a2.56,2.56,0,0,1,1.8-.73,2.49,2.49,0,0,1,1.78.72l4.77,4.77a2.53,2.53,0,0,1-1.79,4.32,2.57,2.57,0,0,1-1.8-.74l-1.73-1.73h0l-3-3a2.55,2.55,0,0,1,0-3.59Zm-3,9.06a2.56,2.56,0,0,1,3.6,0l1.73,1.73a2.46,2.46,0,0,1,.74,1.78,2.54,2.54,0,0,1-4.33,1.79l-.22-.21h0L228,409.29a2.54,2.54,0,0,1,0-3.58Zm35.2,19.63a1.72,1.72,0,0,0-2.44,0l-1.54,1.54c-1.46,1.46-4.1,1.28-6.66,1.1-2.78-.2-5.65-.39-7.51,1.51l-6.36,6.36L222.81,420l5.63-5.62a6,6,0,0,0,9.12-5.11v0h0a6,6,0,0,0,6-6v0h0a6,6,0,0,0,6-6h0a6,6,0,0,0,5.11-9.11l4.93-4.93a2.62,2.62,0,0,1,1.3-.69l.15,0a2.53,2.53,0,0,1,2.15,4.29l-1.5,1.5h0l-1.73,1.73a1.73,1.73,0,0,0,2.44,2.45l1.51-1.51h0l.23-.23a2.55,2.55,0,0,1,3.59,0,2.55,2.55,0,0,1,0,3.58l-1.51,1.51h0l-1.73,1.72A1.73,1.73,0,1,0,267,399.9l1.74-1.74a2.53,2.53,0,0,1,3.58,3.59l-3,3a1.73,1.73,0,0,0,1.22,2.95,1.7,1.7,0,0,0,1.22-.51l1.48-1.47,0,0a2.52,2.52,0,0,1,1.79-.73,2.49,2.49,0,0,1,1.79.74,2.53,2.53,0,0,1,0,3.58l-1.5,1.5h0L273,413.17a1.73,1.73,0,1,0,2.44,2.44l1.16-1.16,5.59,5.58-15.91,15.89-5.7-5.7a6.41,6.41,0,0,0,1.14-.91l1.53-1.53a1.71,1.71,0,0,0,0-2.44Zm29,2.13L273.72,446a2.26,2.26,0,0,1-1.63.68,2.3,2.3,0,0,1-1.64-.68l-3.05-3a2.32,2.32,0,0,1,0-3.26l18.51-18.49a2.33,2.33,0,0,1,1.64-.67,2.29,2.29,0,0,1,1.63.67l3.05,3a2.33,2.33,0,0,1,.67,1.63A2.29,2.29,0,0,1,292.23,427.47Z"/><path class="cls-3" d="M229.52,372.13a1.71,1.71,0,0,0,2.44,0,1.73,1.73,0,0,0,0-2.44l-6.3-6.28a1.71,1.71,0,0,0-2.44,0,1.73,1.73,0,0,0,0,2.44Z"/><path class="cls-3" d="M274.17,372.64a1.72,1.72,0,0,0,1.22-.51l6.29-6.28a1.73,1.73,0,0,0,0-2.44,1.71,1.71,0,0,0-2.44,0L273,369.69a1.73,1.73,0,0,0,1.22,2.95Z"/><path class="cls-3" d="M219.47,436.73a1.72,1.72,0,0,0,0,2.44h0a1.73,1.73,0,0,0,2.44,0,1.73,1.73,0,0,0-2.47-2.42Z"/><path class="cls-3" d="M267.46,422.85a1.69,1.69,0,0,0,.78-.19,1.73,1.73,0,1,0-1.56-3.08h0a1.73,1.73,0,0,0-.76,2.32,1.75,1.75,0,0,0,1.55,1Z"/><path class="cls-3" d="M623.55,436.34A1.65,1.65,0,0,0,621.9,438v10.59a1.66,1.66,0,0,0,3.31,0V438A1.66,1.66,0,0,0,623.55,436.34Z"/><path class="cls-3" d="M653.57,439.88a1.65,1.65,0,0,0-1.65,1.65v7.06a1.65,1.65,0,1,0,3.3,0v-7.06A1.65,1.65,0,0,0,653.57,439.88Z"/><path class="cls-3" d="M688.88,439.88a1.65,1.65,0,0,0-1.65,1.65v7.06a1.66,1.66,0,0,0,3.31,0v-7.06A1.65,1.65,0,0,0,688.88,439.88Z"/><path class="cls-3" d="M640.18,404.74c-3.83-1.92-11-1.94-11.33-1.94a1.65,1.65,0,1,0,0,3.3c1.86,0,7.25.29,9.86,1.59a1.61,1.61,0,0,0,.73.18,1.65,1.65,0,0,0,.74-3.13Z"/><path class="cls-3" d="M723.77,430.17l-6.69-3.34a.13.13,0,0,1-.06-.1v-3.36A12.2,12.2,0,0,0,722.2,415a14,14,0,0,0-3.71-18.2,7.35,7.35,0,0,0,.3-2c0-4.32-3.91-7.83-8.72-7.83s-8.71,3.51-8.71,7.83a7,7,0,0,0,.3,2,14.14,14.14,0,0,0-4.59,6c-.4-4-.83-8.78-1.24-14.32-.54-7.32-3.17-13.49-7.6-17.86a25.11,25.11,0,0,0-34,0c-4.43,4.37-7.06,10.54-7.6,17.86-.15,1.94-.29,3.78-.44,5.53H630.62a10.49,10.49,0,0,0-10.48,10.48v.1a8.76,8.76,0,0,0,.92,3.89l.84,1.7v2.69a12.89,12.89,0,0,0,5.3,10.42v2.39a.7.7,0,0,1-.5.66l-6.82,1.95a7,7,0,0,0-5,6.68v13.66a1.65,1.65,0,0,0,3.3,0V434.93a3.67,3.67,0,0,1,2.65-3.51l6.82-1.94a4.26,4.26,0,0,0,.7-.28l4.19,4.18v15.21a1.65,1.65,0,0,0,3.3,0V433.38l4.22-4.21a9.69,9.69,0,0,0,1.53.55l1.68.48a8.72,8.72,0,0,0-3.67,7.1v11.29a1.65,1.65,0,1,0,3.3,0V437.3a5.42,5.42,0,0,1,3.23-4.95l9.44-4.17a17.56,17.56,0,0,0,31.4,0l9.44,4.17a5.41,5.41,0,0,1,3.22,4.95v11.29a1.66,1.66,0,0,0,3.31,0V437.3a8.71,8.71,0,0,0-2.09-5.65l2.56-1.28,1.92,1.82a6.92,6.92,0,0,0,9.57,0l1.92-1.82,5.52,2.76a3.62,3.62,0,0,1,2,3.26v12.2a1.66,1.66,0,0,0,3.31,0v-12.2A6.93,6.93,0,0,0,723.77,430.17Zm-13.7-40c3,0,5.41,2,5.41,4.53,0,.1,0,.21,0,.31a14,14,0,0,0-10.79,0c0-.1,0-.21,0-.31C704.66,392.24,707.09,390.21,710.07,390.21Zm-75.92,40.15-3.77-3.76a3.83,3.83,0,0,0,.12-1v-.7a11.87,11.87,0,0,0,3.27.58h.38a12.25,12.25,0,0,0,3.64-.55v.67a4.32,4.32,0,0,0,.11,1Zm-.28-8.15a9.23,9.23,0,0,1-8.66-9.38v-3.08A1.59,1.59,0,0,0,625,409l-1-2a5.51,5.51,0,0,1-.57-2.42v-.1a7.19,7.19,0,0,1,7.18-7.18h14.24v6.86a7.15,7.15,0,0,1-.76,3.21l-.83,1.67a1.59,1.59,0,0,0-.18.74v3.53a8.93,8.93,0,0,1-9.22,8.93ZM647.68,428l-5.22-1.49c-1.36-.39-1.36-.55-1.36-.91v-2.28a12.73,12.73,0,0,0,1.58-1.29q.5-.49.93-1a3.38,3.38,0,0,0,1.2,1.35,36.07,36.07,0,0,0,7.5,3.59Zm23.55,6.54a14.23,14.23,0,0,1-12.67-7.74l2.4-1.06a5.18,5.18,0,0,0,3.09-4.74v-4a19.34,19.34,0,0,0,14.35,0v4a5.2,5.2,0,0,0,3.09,4.74l2.41,1.06A14.2,14.2,0,0,1,671.23,434.58ZM685.55,424l-2.72-1.2a1.89,1.89,0,0,1-1.12-1.72v-5.68a19.3,19.3,0,0,0,8.83-16.21v-3.1a6.91,6.91,0,0,0-2.35-5.21c-3.32-2.88-10.83-7.92-23.86-9.22a1.65,1.65,0,1,0-.33,3.28c12.12,1.22,19,5.81,22,8.44a3.58,3.58,0,0,1,1.21,2.71v3.1a16,16,0,1,1-32,0v-1.38a1.81,1.81,0,0,1,.95-1.56,13.1,13.1,0,0,0,6-7.13,1.65,1.65,0,1,0-3.13-1,9.82,9.82,0,0,1-4.55,5.31,5.12,5.12,0,0,0-2.6,4.42v1.38a19.3,19.3,0,0,0,8.83,16.21V421a1.89,1.89,0,0,1-1.12,1.72L656.9,424a36.65,36.65,0,0,1-10.3-4.33.11.11,0,0,1,0-.1c.58-3.41,2.06-13.23,3.36-30.85.48-6.5,2.77-11.95,6.63-15.75a21.84,21.84,0,0,1,29.36,0c3.85,3.8,6.14,9.25,6.62,15.75,1.3,17.62,2.79,27.44,3.36,30.85a.09.09,0,0,1,0,.1A36.65,36.65,0,0,1,685.55,424Zm17.57,2.77a.11.11,0,0,1-.06.1l-5.17,2.59-.19-.09L690.15,426a36.61,36.61,0,0,0,7.5-3.59,3.39,3.39,0,0,0,1.5-3.42l0-.23a12.35,12.35,0,0,0,4,4.62Zm9.46,3.07a3.64,3.64,0,0,1-5,0L706,428.34a3.4,3.4,0,0,0,.4-1.61V425a12.35,12.35,0,0,0,7.29,0v1.76a3.4,3.4,0,0,0,.4,1.61Zm-2.51-7.58a8.92,8.92,0,0,1-8.88-8,1.63,1.63,0,0,0-.24-.68,10.71,10.71,0,1,1,19.29-2.25c-4.69-4.76-13-6.63-13.34-6.72a1.66,1.66,0,0,0-2,1.61,4.07,4.07,0,0,1-1.28,2.37,1.65,1.65,0,0,0,2.33,2.33,8,8,0,0,0,1.8-2.66c2.78.82,8.55,2.91,11.14,6.57A8.93,8.93,0,0,1,710.07,422.22Z"/><path class="cls-3" d="M718.9,438.53a1.65,1.65,0,0,0-1.65,1.65v8.41a1.65,1.65,0,0,0,3.3,0v-8.41A1.65,1.65,0,0,0,718.9,438.53Z"/><path class="cls-3" d="M824.4,337.64c-1.29,0-2.58-.06-3.85-.18a39.93,39.93,0,0,1-23.69-10.69,35.91,35.91,0,0,1,0-52.53,40.44,40.44,0,0,1,55.13,0,36.52,36.52,0,0,1,11.25,22.59,35.9,35.9,0,0,1-6.11,23.93,2.59,2.59,0,0,1-3.48.7,2.39,2.39,0,0,1-1.11-1.56,2.36,2.36,0,0,1,.37-1.82,31.22,31.22,0,0,0-4.46-40.38,35.28,35.28,0,0,0-48,0,31.17,31.17,0,0,0,0,45.61,35.47,35.47,0,0,0,42.49,4.28,2.62,2.62,0,0,1,1.36-.39,2.52,2.52,0,0,1,2.11,1.1,2.36,2.36,0,0,1,.37,1.82,2.42,2.42,0,0,1-1.11,1.56A40.32,40.32,0,0,1,824.4,337.64Z"/><path class="cls-3" d="M824.43,264a39.31,39.31,0,0,1,27.13,10.67,35.83,35.83,0,0,1,11.05,22.21,35.18,35.18,0,0,1-6,23.5,1.9,1.9,0,0,1-1.59.83,2,2,0,0,1-1-.3,1.74,1.74,0,0,1-.55-2.5,31.83,31.83,0,0,0-4.55-41.18,35.88,35.88,0,0,0-48.9,0,31.81,31.81,0,0,0,0,46.52,36.08,36.08,0,0,0,43.25,4.35,2,2,0,0,1,2.63.53,1.76,1.76,0,0,1-.56,2.5A39.92,39.92,0,0,1,824.4,337c-1.26,0-2.53-.06-3.79-.18a39.25,39.25,0,0,1-23.32-10.51,35.31,35.31,0,0,1,0-51.63A39.31,39.31,0,0,1,824.43,264m0-1.25a40.35,40.35,0,0,0-28,11,36.55,36.55,0,0,0,0,53.44,40.55,40.55,0,0,0,24.06,10.85c1.29.12,2.61.18,3.91.18A41,41,0,0,0,846,332.21a3,3,0,0,0,1.39-2,2.94,2.94,0,0,0-.46-2.3,3.21,3.21,0,0,0-4.32-.89,34.83,34.83,0,0,1-41.73-4.2,30.57,30.57,0,0,1,0-44.71,34.64,34.64,0,0,1,47.17,0,30.58,30.58,0,0,1,4.38,39.58,3,3,0,0,0-.46,2.3,3,3,0,0,0,1.39,2,3.28,3.28,0,0,0,1.7.48,3.14,3.14,0,0,0,2.62-1.37,36.45,36.45,0,0,0,6.22-24.34,37.1,37.1,0,0,0-11.44-23,40.35,40.35,0,0,0-28-11Z"/><path class="cls-3" d="M850.16,327.53a2.55,2.55,0,0,1-1.78-.71,2.37,2.37,0,0,1-.74-1.73,2.39,2.39,0,0,1,.75-1.73,2.62,2.62,0,0,1,1.83-.75,2.55,2.55,0,0,1,1.78.71,2.35,2.35,0,0,1,.74,1.73,2.38,2.38,0,0,1-.75,1.73A2.62,2.62,0,0,1,850.16,327.53Z"/><path class="cls-3" d="M850.22,323.24a1.94,1.94,0,0,1,1.35.53,1.74,1.74,0,0,1,0,2.55l-.06.06a2,2,0,0,1-2.68,0,1.74,1.74,0,0,1,0-2.55l.06-.06a1.93,1.93,0,0,1,1.34-.52m0-1.25h0a3.17,3.17,0,0,0-2.2.86l-.06.06a3,3,0,0,0,0,4.37,3.2,3.2,0,0,0,2.21.87,3.17,3.17,0,0,0,2.2-.86l.06-.06a3,3,0,0,0,0-4.36,3.17,3.17,0,0,0-2.21-.88Z"/><path class="cls-3" d="M815.65,295.65a1.86,1.86,0,0,1-1.9-1.81,1.19,1.19,0,0,0-2.38,0,1.9,1.9,0,0,1-3.8,0,5,5,0,0,1,10,0A1.86,1.86,0,0,1,815.65,295.65Z"/><path class="cls-3" d="M840.42,295.65a1.86,1.86,0,0,1-1.9-1.81,1.19,1.19,0,0,0-2.38,0,1.9,1.9,0,0,1-3.8,0,5,5,0,0,1,10,0A1.86,1.86,0,0,1,840.42,295.65Z"/><path class="cls-3" d="M824.94,318.83a10.6,10.6,0,0,1-10.84-10.32,1.9,1.9,0,0,1,3.8,0,7.05,7.05,0,0,0,14.09,0,1.9,1.9,0,0,1,3.8,0A10.61,10.61,0,0,1,824.94,318.83Z"/><path class="cls-3" d="M863.56,260.35a1.86,1.86,0,0,1-1.9-1.81v-2.49a1.9,1.9,0,0,1,3.8,0v2.49A1.86,1.86,0,0,1,863.56,260.35Z"/><path class="cls-3" d="M863.56,272.31a1.85,1.85,0,0,1-1.9-1.8V268a1.9,1.9,0,0,1,3.8,0v2.5A1.85,1.85,0,0,1,863.56,272.31Z"/><path class="cls-3" d="M871.16,265.08h-2.62a1.81,1.81,0,1,1,0-3.61h2.62a1.81,1.81,0,1,1,0,3.61Z"/><path class="cls-3" d="M858.59,265.08H856a1.81,1.81,0,1,1,0-3.61h2.63a1.81,1.81,0,1,1,0,3.61Z"/><path class="cls-3" d="M785.29,334.81a1.86,1.86,0,0,1-1.9-1.81v-2.49a1.9,1.9,0,0,1,3.8,0V333A1.86,1.86,0,0,1,785.29,334.81Z"/><path class="cls-3" d="M785.29,346.77a1.85,1.85,0,0,1-1.9-1.8v-2.5a1.9,1.9,0,0,1,3.8,0V345A1.85,1.85,0,0,1,785.29,346.77Z"/><path class="cls-3" d="M792.89,339.54h-2.62a1.81,1.81,0,1,1,0-3.61h2.62a1.81,1.81,0,1,1,0,3.61Z"/><path class="cls-3" d="M780.32,339.54h-2.63a1.81,1.81,0,1,1,0-3.61h2.63a1.81,1.81,0,1,1,0,3.61Z"/><circle class="cls-4" cx="266.8" cy="274.99" r="12.97"/><circle class="cls-5" cx="267.85" cy="272.49" r="12.97"/><circle class="cls-4" cx="789.43" cy="165.14" r="12.61"/><circle class="cls-5" cx="787.65" cy="163.75" r="12.61"/><circle class="cls-4" cx="669.54" cy="274.61" r="12.76"/><circle class="cls-5" cx="668.06" cy="272.28" r="12.76"/><circle class="cls-4" cx="467.53" cy="318.93" r="13.49"/><circle class="cls-5" cx="467.51" cy="315.84" r="13.49"/><text class="cls-6" transform="translate(2.73 222.39)">A<tspan class="cls-7" x="12.41" y="0">n</tspan><tspan class="cls-8" x="23.56" y="0">a</tspan><tspan class="cls-9" x="33.45" y="0">l</tspan><tspan class="cls-10" x="38.43" y="0">y</tspan><tspan class="cls-11" x="48.61" y="0">t</tspan><tspan class="cls-12" x="55.54" y="0">i</tspan><tspan class="cls-13" x="60.38" y="0">c</tspan><tspan class="cls-14" x="70.13" y="0">s</tspan><tspan class="cls-15" x="78.82" y="0">-</tspan><tspan class="cls-16" x="85.54" y="0">B</tspan><tspan class="cls-17" x="98.15" y="0">a</tspan><tspan class="cls-18" x="108.2" y="0">s</tspan><tspan class="cls-19" x="116.83" y="0">e</tspan><tspan class="cls-18" x="127.17" y="0">d</tspan><tspan class="cls-20"><tspan x="-2.73" y="20">D</tspan><tspan class="cls-21" x="10.93" y="20">e</tspan><tspan class="cls-22" x="21.26" y="20">c</tspan><tspan class="cls-23" x="30.81" y="20">is</tspan><tspan class="cls-12" x="44.32" y="20">i</tspan><tspan class="cls-24" x="49.16" y="20">o</tspan><tspan class="cls-25" x="59.75" y="20">n</tspan><tspan class="cls-15" x="71.15" y="20">-</tspan><tspan class="cls-26" x="77.87" y="20">M</tspan><tspan class="cls-27" x="93.44" y="20">a</tspan><tspan class="cls-28" x="103.32" y="20">k</tspan><tspan class="cls-29" x="113.83" y="20">i</tspan><tspan class="cls-30" x="118.61" y="20">n</tspan><tspan class="cls-31" x="129.78" y="20">g</tspan></tspan></text><text class="cls-32" transform="translate(642.79 325.81)">E<tspan class="cls-33" x="11.27" y="0">x</tspan><tspan class="cls-34" x="20.68" y="0">p</tspan><tspan class="cls-35" x="32.04" y="0">e</tspan><tspan class="cls-36" x="42.26" y="0">r</tspan><tspan class="cls-31" x="49.63" y="0">t</tspan><tspan class="cls-37"><tspan x="-15.58" y="20">R</tspan><tspan class="cls-34" x="-3.58" y="20">e</tspan><tspan class="cls-18" x="6.75" y="20">s</tspan><tspan class="cls-38" x="15.39" y="20">o</tspan><tspan class="cls-39" x="25.95" y="20">u</tspan><tspan class="cls-11" x="37.02" y="20">r</tspan><tspan class="cls-40" x="43.88" y="20">c</tspan><tspan class="cls-34" x="53.42" y="20">e</tspan><tspan class="cls-18" x="63.76" y="20">s</tspan></tspan></text><text class="cls-41" transform="translate(211.2 325.81)">W<tspan class="cls-35" x="18.03" y="0">o</tspan><tspan class="cls-42" x="28.62" y="0">r</tspan><tspan class="cls-43" x="35.42" y="0">k</tspan><tspan class="cls-44" x="46.38" y="0">fl</tspan><tspan class="cls-45" x="57.22" y="0">o</tspan><tspan class="cls-31" x="67.65" y="0">w</tspan><tspan class="cls-46"><tspan x="-14.09" y="20">O</tspan><tspan class="cls-47" x="-0.21" y="20">p</tspan><tspan class="cls-48" x="11.05" y="20">t</tspan><tspan class="cls-29" x="17.98" y="20">i</tspan><tspan class="cls-49" x="22.76" y="20">m</tspan><tspan class="cls-50" x="39.76" y="20">i</tspan><tspan class="cls-28" x="44.45" y="20">z</tspan><tspan class="cls-51" x="53.3" y="20">a</tspan><tspan class="cls-11" x="63.13" y="20">t</tspan><tspan class="cls-12" x="70.06" y="20">i</tspan><tspan class="cls-24" x="74.9" y="20">o</tspan><tspan class="cls-31" x="85.49" y="20">n</tspan></tspan></text><text class="cls-52" transform="translate(407.52 367.94)">I<tspan class="cls-40" x="5.3" y="0">n</tspan><tspan class="cls-53" x="16.5" y="0">c</tspan><tspan class="cls-49" x="26.06" y="0">r</tspan><tspan class="cls-54" x="32.93" y="0">e</tspan><tspan class="cls-17" x="43.13" y="0">a</tspan><tspan class="cls-18" x="53.17" y="0">s</tspan><tspan class="cls-21" x="61.81" y="0">e</tspan><tspan class="cls-31" x="72.14" y="0">d </tspan><tspan class="cls-44" x="88.35" y="0">R</tspan><tspan class="cls-55" x="100.35" y="0">O</tspan><tspan class="cls-31" x="114.2" y="0">I</tspan></text><text class="cls-56" transform="translate(786.44 222.39)">R<tspan class="cls-19" x="12" y="0">e</tspan><tspan class="cls-57" x="22.33" y="0">d</tspan><tspan class="cls-24" x="33.49" y="0">u</tspan><tspan class="cls-40" x="44.66" y="0">c</tspan><tspan class="cls-21" x="54.2" y="0">e</tspan><tspan class="cls-18" x="64.53" y="0">d</tspan><tspan class="cls-58"><tspan x="12.07" y="20">S</tspan><tspan class="cls-11" x="22.36" y="20">t</tspan><tspan class="cls-49" x="29.29" y="20">r</tspan><tspan class="cls-59" x="36.16" y="20">e</tspan><tspan class="cls-60" x="46.5" y="20">s</tspan><tspan class="cls-18" x="55.21" y="20">s</tspan></tspan></text><text class="cls-61" transform="translate(413.79 20.4)">H<tspan class="cls-62" x="19.44" y="0">o</tspan><tspan x="34.56" y="0">w </tspan><tspan class="cls-63" x="63.24" y="0">W</tspan><tspan x="89.38" y="0">e</tspan><tspan x="-7.67" y="28.8">Emp</tspan><tspan class="cls-64" x="50.15" y="28.8">ow</tspan><tspan x="86.96" y="28.8">er</tspan><tspan class="cls-65" x="-27.46" y="57.6">Y</tspan><tspan x="-13.03" y="57.6">our IT </tspan><tspan class="cls-63" x="64.22" y="57.6">T</tspan><tspan class="cls-62" x="77.35" y="57.6">e</tspan><tspan x="91.92" y="57.6">am</tspan></text><circle class="cls-4" cx="139.47" cy="166.14" r="12.75"/><circle class="cls-5" cx="140.97" cy="163.89" r="12.75"/><path class="cls-3" d="M23.49,348.43a2.57,2.57,0,0,0,0,3.67L30,358.64a2.61,2.61,0,0,0,3.68,0L45.34,347h0l4.08-4.09h0L53,339.3a2.61,2.61,0,0,0,0-3.68l-.2-.2L58,330.25a38.92,38.92,0,0,0,17.46,7.94v9.65a1.45,1.45,0,0,0,2.89,0v-9.25c.92.09,1.85.15,2.78.18v15.86a1.45,1.45,0,1,0,2.89,0V338.75c.94,0,1.87-.11,2.79-.22v9.31a1.45,1.45,0,0,0,2.89,0v-9.75a39,39,0,1,0-33.6-67.18,1.45,1.45,0,0,0,2,2.14A36.17,36.17,0,1,1,54,277.39a1.45,1.45,0,0,0-2.27-1.8,38.55,38.55,0,0,0-8,18.22H34a1.45,1.45,0,0,0,0,2.89h9.41c-.07.93-.11,1.85-.11,2.79H27.15a1.45,1.45,0,0,0,0,2.89H43.42c.06.94.16,1.87.29,2.78H34a1.45,1.45,0,0,0,0,2.89H44.22a38.78,38.78,0,0,0,7.66,16.07l-5.17,5.17-.21-.21a2.6,2.6,0,0,0-3.67,0l-3.61,3.61h0l-4.09,4.09h0l-5.88,5.88a1.45,1.45,0,0,0,2,2l4.86-4.87L42.28,346,31.86,356.39l-6.13-6.13,1.21-1.2a1.45,1.45,0,1,0-2.05-2l-1.4,1.41Zm30.28-22.12c.66.71,1.34,1.39,2,2.05l-5,5-2-2,5-5ZM38.2,337.8l2-2,6.13,6.13-2,2Zm12.59-.34-2.38,2.38-6.13-6.13,2.38-2.38Z"/><path class="cls-3" d="M102.46,326.23a1.45,1.45,0,1,0-1.74-2.31,31,31,0,0,1-18.4,6.2,30.34,30.34,0,0,1,0-60.67,30,30,0,0,1,21.37,8.89,30.7,30.7,0,0,1,9,21.46A29.59,29.59,0,0,1,105.06,320a1.44,1.44,0,0,0,2.15,1.93,32.49,32.49,0,0,0,8.36-22.11,33.61,33.61,0,0,0-9.81-23.47,32.86,32.86,0,0,0-23.42-9.74,33.23,33.23,0,1,0,0,66.45,33.85,33.85,0,0,0,20.12-6.78Z"/><path class="cls-3" d="M74.64,276.19v12.42H65.29a2.22,2.22,0,0,0-2.21,2.22V299H61.14a1.45,1.45,0,0,0,0,2.89h41.43a1.45,1.45,0,1,0,0-2.89h-1.93v-15.5a2.22,2.22,0,0,0-2.22-2.22H89.08v-5.1A2.22,2.22,0,0,0,86.87,274h-10A2.22,2.22,0,0,0,74.64,276.19ZM97.75,299H89.08V284.18h8.67Zm-11.56,0H77.52V276.86h8.67ZM74.64,291.5V299H66V291.5Z"/><path class="cls-3" d="M64.23,315.59A1.45,1.45,0,0,0,65.68,317h7.79a1.45,1.45,0,0,0,1.34-.92l2.07-5.29,4.29,11.58a1.45,1.45,0,0,0,1.36.94h0a1.44,1.44,0,0,0,1.35-1l3.21-9.11,1.69,3a1.46,1.46,0,0,0,1.26.75h7.63a1.45,1.45,0,1,0,0-2.89H90.9l-2.83-5.08a1.45,1.45,0,0,0-2.63.22l-3,8.37-4.22-11.39a1.44,1.44,0,0,0-2.7,0l-3.09,7.9h-6.8A1.44,1.44,0,0,0,64.23,315.59Z"/></g></g></svg>