<?xml version="1.0" encoding="UTF-8"?> <svg xmlns="http://www.w3.org/2000/svg" viewBox="0 0 480 384"><g fill="#e4472d"><path d="m80 0h-64a16 16 0 0 0 -16 16v64a16 16 0 0 0 32 0v-48h48a16 16 0 0 0 0-32z"></path><path d="m464 288a16 16 0 0 0 -16 16v48h-48a16 16 0 0 0 0 32h64a16 16 0 0 0 16-16v-64a16 16 0 0 0 -16-16z"></path><path d="m464 0h-64a16 16 0 0 0 0 32h48v48a16 16 0 0 0 32 0v-64a16 16 0 0 0 -16-16z"></path><path d="m80 352h-48v-48a16 16 0 0 0 -32 0v64a16 16 0 0 0 16 16h64a16 16 0 0 0 0-32z"></path><path d="m64 64h32v256h-32z"></path><path d="m128 64h32v192h-32z"></path><path d="m192 64h32v192h-32z"></path><path d="m256 64h32v256h-32z"></path><path d="m320 64h32v192h-32z"></path><path d="m384 64h32v256h-32z"></path><path d="m128 288h32v32h-32z"></path><path d="m192 288h32v32h-32z"></path><path d="m320 288h32v32h-32z"></path></g></svg> 