<?xml version="1.0" encoding="UTF-8"?> <svg xmlns="http://www.w3.org/2000/svg" viewBox="0 0 298 394.8"><title>Asset 1</title><g id="aa24aa68-ecdf-4780-96e9-b271d983e7c0" data-name="Layer 2"><g id="b29ffbce-6907-4a06-b3ad-1c6dcd04bc69" data-name="Capa 1"><path d="M170,167.6a27.93,27.93,0,0,0-9.6-5.2,56.65,56.65,0,0,0-12.4-1.2H129.6a10.59,10.59,0,0,0-6.8,2c-1.2,1.2-2,3.6-2,6.8v51.6c0,2.4,0,4,.8,5.6a5,5,0,0,0,2.4,3.2q1.8,1.2,6,1.2h18.4a59.92,59.92,0,0,0,8.8-.8,48.36,48.36,0,0,0,7.2-2,22.42,22.42,0,0,0,6-4,35.84,35.84,0,0,0,6-7.6,34.17,34.17,0,0,0,3.6-9.6,51.68,51.68,0,0,0,1.2-11.6C181.2,183.6,177.6,174,170,167.6Zm-10.4,49.6a16.21,16.21,0,0,1-3.6,2,17.6,17.6,0,0,1-4,.8H135.6V172h9.6a31.54,31.54,0,0,1,11.2,1.6c3.2.8,5.6,3.2,7.6,6.8s3.2,8.8,3.2,15.6C166.8,206.4,164.4,213.2,159.6,217.2Z" style="fill:#e4472d"></path><path d="M297.2,78.8h0l-.4-.4h0V78h0l-76-76-.4-.4h0a.39.39,0,0,1-.4-.4h0a.39.39,0,0,1-.4-.4h0c-1.2-.8-2.4-.8-4-.8H27.2A26.62,26.62,0,0,0,8.4,7.6L8,8A27.94,27.94,0,0,0,0,27.2V367.6a27.2,27.2,0,0,0,8,19.2H8a27.94,27.94,0,0,0,19.2,8H270.8a27.2,27.2,0,0,0,19.2-8,27.94,27.94,0,0,0,8-19.2V82.8a11.83,11.83,0,0,0-.8-4Zm-74-50L268.4,74H235.2a10.89,10.89,0,0,1-8.4-3.6h0a12.47,12.47,0,0,1-3.6-8.4Zm57.6,338.8A11,11,0,0,1,270.4,378H27.2a11.5,11.5,0,0,1-7.2-2.8h0a9.64,9.64,0,0,1-2.8-7.2V26.8a10,10,0,0,1,3.2-7.2l.4-.4a11.35,11.35,0,0,1,6.8-2.8H206.8V61.6a29,29,0,0,0,8.8,20.8h0a29.66,29.66,0,0,0,20.8,8.4h44.4Z" style="fill:#e4472d"></path><path d="M102.4,166.8a15.45,15.45,0,0,0-7.6-4,49.58,49.58,0,0,0-12.4-1.2H64c-3.2,0-5.6.8-6.8,2-1.6,1.2-2,3.6-2,6.8v54.4a10.18,10.18,0,0,0,2,6.4c1.2,1.6,3.2,2,5.2,2a7,7,0,0,0,5.2-2.4,10.18,10.18,0,0,0,2-6.4v-20H82.8c8.8,0,15.2-2,19.6-5.6s6.8-9.2,6.8-16.4a23.47,23.47,0,0,0-1.6-9.2A27.94,27.94,0,0,0,102.4,166.8Zm-9.6,22.4a10.16,10.16,0,0,1-5.2,3.6,26.59,26.59,0,0,1-8.4,1.2H69.6V172.4h9.6c6.4,0,10.4,1.2,12.8,3.2,2,2,2.8,4.4,2.8,7.6C94.4,185.6,94,187.6,92.8,189.2Z" style="fill:#e4472d"></path><path d="M197.2,162.4a4.83,4.83,0,0,0-2.8,2.8c-.8,1.2-.8,2.8-.8,5.2v54c0,2.8.8,5.2,2,6.4,1.2,1.6,3.2,2,5.2,2a8.42,8.42,0,0,0,5.2-2,10.18,10.18,0,0,0,2-6.4V201.2h23.6a6.38,6.38,0,0,0,4.8-1.6c1.2-.8,1.6-2.4,1.6-4a5.14,5.14,0,0,0-1.6-4,8.58,8.58,0,0,0-4.8-1.6H208V172h28c2.4,0,4-.4,5.2-1.6a5.8,5.8,0,0,0,0-8c-1.2-1.2-2.8-1.6-5.2-1.6H202.4A13.29,13.29,0,0,0,197.2,162.4Z" style="fill:#e4472d"></path></g></g></svg> 