<?xml version="1.0" encoding="UTF-8"?> <svg xmlns="http://www.w3.org/2000/svg" xmlns:xlink="http://www.w3.org/1999/xlink" height="100" viewBox="0 0 100 100" width="100"><mask id="a" fill="#fff"><path d="m.0000968.03294915h65.7134996v79.96705085h-65.7134996z" fill="#fff" fill-rule="evenodd"></path></mask><g fill="#e63b1f" fill-rule="evenodd" transform="translate(17 10)"><path d="m60.3293894 77.2850557h-7.6503499v-2.7118644h7.6526731zm-54.9504095 0h7.6517051v-2.7118644h-7.6517051zm-2.66853314-65.7433414h15.99803424c.1794639 1.6242131.4694713 3.2344794.8671184 4.8193704.0280715.1100243.0605957.2146247.0898287.3230993h-10.46020844c-.74825019.0003874-1.35478779.6072639-1.35517498 1.3559322v7.773753c-1.69784066.5222277-2.85864483 2.0885231-2.86522711 3.8655691v24.0472639c.00658228 1.777046 1.16738645 3.3433414 2.86522711 3.865569v7.773753c.00038719.7486683.60692479 1.3555448 1.35517498 1.3559322h47.29928514c.7484438 0 1.355175-.6070702 1.355175-1.3559322v-15.7001453c.7054654-.0515254 1.2516009-.6384503 1.2531497-1.3458595v-13.2338983c-.0015488-.7076029-.5476843-1.2943342-1.2531497-1.3458596v-15.7001453c0-.748862-.6067312-1.3559322-1.355175-1.3559322h-10.4602084c.029233-.1084746.0617572-.213075.0898287-.3230993.3976471-1.5850847.6876545-3.1951573.8671184-4.8193704h15.9982278v60.3196126h-60.28902454zm30.14451224-8.68184021c2.2710797.94915254 6.371452 2.57162228 11.6978705 4.29249395-.0102606 2.87825666-.3610573 5.74508476-1.0456143 8.54082326-1.7057781 6.7161259-5.2880864 11.251138-10.6522562 13.4880387-5.3641697-2.2376755-8.9466716-6.7719128-10.6524497-13.4880387-.6841698-2.7957385-1.0349665-5.6625666-1.0456143-8.54082326 5.3300968-1.72242131 9.428146-3.34334141 11.698064-4.29249395zm-23.80306771 25.46363201h.30956068c.74825023.0007748 1.35459423.6074576 1.35517503 1.3559322v24.0472639c-.0005808.7484746-.6069248 1.3551574-1.35517503 1.3559322h-.30956068c-.74805659-.0007748-1.3544006-.6074576-1.35517498-1.3559322v-24.0472639c.00077438-.7484746.60711839-1.3551574 1.35517498-1.3559322zm46.09743861 5.4066828h-3.0975429c-1.9615189.0042615-3.5505584 1.5943825-3.5542367 3.5571912v8.8329298c.0036783 1.9630024 1.5931049 3.5533172 3.5552047 3.5571913h3.0975428v14.3341404h-44.5899032v-6.4193704c1.6976471-.5220339 2.8586449-2.0883293 2.8652271-3.865569v-24.0472639c-.0065822-1.777046-1.16758-3.3435352-2.8652271-3.8655691v-6.4178208h9.9555026c2.2581088 6.1489589 6.2330306 10.3538983 11.8533284 12.5109928.3126582.1197094.6586151.1197094.9712733 0 5.6204914-2.1570945 9.5944453-6.3612591 11.8533284-12.5109928h9.9555026zm1.2531496 2.7118644v10.5220339h-4.3535964c-.4650186-.0025182-.8405957-.3800485-.8409829-.8453269v-8.8329298c.0003872-.4666344.3782874-.8449395.8446612-.8453269zm7.9521668-27.61220342h-17.1373492c.0466567-1.00726392.055175-1.92309927.0396873-2.69791768-.0123902-.58072639-.3930008-1.08920097-.9462994-1.26450363-6.1341027-1.94169491-10.7316306-3.79661017-12.9262397-4.72639225-.3384066-.14411622-.7207595-.14411622-1.0591661 0-2.1930603.92978208-6.7884586 2.7831477-12.9252718 4.72639225-.5546537.17414044-.9364259.68300242-.9486224 1.26450363-.0162621.77481841-.0077439 1.69297821.0379449 2.69791768h-17.13405812c-.74825019.00038741-1.35517498.60726392-1.35517498 1.35593222v63.0345763c0 .7486682.60692479 1.3555447 1.35517498 1.3559322h1.3164557v4.0677966c.00038719.7486682.60692479 1.3559322 1.35517498 1.3559322h10.36031274c.7484438 0 1.3547878-.607264 1.355175-1.3559322v-4.0708959h34.2262993v4.0677966c0 .748862.6067312 1.3559322 1.355175 1.3559322h10.3630231c.7484437 0 1.3551749-.6070702 1.3551749-1.3559322v-4.0677966h1.3164557c.7484438 0 1.355175-.6070702 1.355175-1.3559322v-63.031477c0-.748862-.6067312-1.35593222-1.355175-1.35593222z" mask="url(#a)" transform="translate(.341109)"></path><path d="m37.7967056 20.0695087c-.0021829.6925357-.5876082 1.256895-1.3038116 1.256895h-7.4934441c-.7183863 0-1.3038116-.5643593-1.3038116-1.256895v-6.0166439c0-.6925357.5854253-1.256895 1.3038116-1.2588081h7.4934441c.7162034.0019131 1.3016287.5662724 1.3038116 1.2568951zm-7.8605752-10.33255752c.0017861-1.49220419 1.2621373-2.70701144 2.8100415-2.70892452 1.5459198.00191308 2.8058741 1.21672033 2.8078586 2.70892452v1.09237002h-5.6179001zm7.6561725 1.27602592v-1.27602592c0-1.24732965-.5022751-2.42196218-1.4169277-3.30389312-.9168356-.88384402-2.1333296-1.36976692-3.4272188-1.36976692h-.0041674c-2.6689441 0-4.843948 2.09482511-4.8461309 4.67174696v1.2798521c-1.3313961.4457481-2.2383093 1.6548161-2.2402938 3.0379746v6.0166439c.0019845 1.7753403 1.5002765 3.2197175 3.3418856 3.2216305h7.4934441c1.8416091-.001913 3.339901-1.4462902 3.3418855-3.2216305v-6.0166439c-.0019845-1.3831585-.909096-2.5922265-2.2424766-3.0398877z"></path><path d="m33.3282251 16.9370112c-.281097.2516246-.4439143.6150822-.4470173.998242v1.0021825c.0001825.0761816-.05987.1381027-.1343425.1382907-.0741074.0001873-.134525-.0615461-.134525-.1379154v-.0003753-1.0115644c-.0034681-.3797823-.1661028-.7396749-.4461046-.9875466-.2133782-.1917676-.3230791-.4779178-.2944218-.7676331.0432598-.4220012.3636009-.7578759.7731994-.8102273.0337681-.0041281.0677188-.0061972.1016695-.0061972.2168463-.0007455.4258437.0814406.5868357.230614.361958.3328725.3929882.9042347.0689965 1.2763238-.0231814.0268324-.047823.0521637-.0742899.0758063m.7690012-2.2289694c-.833252-.7668825-2.1133386-.6942661-2.8593409.1623082-.2885808.3311837-.4663656.7488691-.5072524 1.191323-.0640682.6655573.1894667 1.3217325.6799262 1.7609966.0313953.0253313.0518387.0624839.0569496.1032017v1.0115644c-.0003651.7261648.5718682 1.3153528 1.2784439 1.3157285.7065757.0005625 1.2795391-.5878749 1.2799041-1.3142274v-.0015011-1.0021825c.0043808-.0454087.0261019-.0872523.0602351-.1163364.8383628-.7599399.9188587-2.0747298.1794275-2.9367455-.0527513-.0613581-.1089707-.1195264-.1682931-.1741295"></path></g></svg> 