<?xml version="1.0" encoding="UTF-8"?> <svg xmlns="http://www.w3.org/2000/svg" xmlns:xlink="http://www.w3.org/1999/xlink" width="100px" height="100px" viewBox="0 0 100 100" version="1.1"><!-- Generator: Sketch 63.1 (92452) - https://sketch.com --><title>Keena Icon - Converter</title><desc>Created with Sketch.</desc><defs><polygon id="path-1" points="5.88235294e-05 3.85796977e-05 80.2792157 3.85796977e-05 80.2792157 79.9300395 5.88235294e-05 79.9300395"></polygon></defs><g id="Keena-Icon---Converter" stroke="none" stroke-width="1" fill="none" fill-rule="evenodd"><g id="Group-3" transform="translate(10.000000, 10.000000)"><mask id="mask-2" fill="white"><use xlink:href="#path-1"></use></mask><g id="Clip-2"></g><path d="M76.2557451,9.29121569 L51.6116275,9.29121569 C45.6267255,9.29807843 40.7771176,14.1492549 40.7716275,20.1343529 L40.7716275,63.7916078 C40.7700588,71.1900392 34.7714314,77.1863137 27.3728039,77.1847454 C19.9767255,77.1833725 13.9810392,71.1878824 13.9796667,63.7916078 L13.9796667,46.5704314 L16.5365294,46.5704314 L16.5365294,63.7916078 C16.5365294,69.7778824 21.3894706,74.6308235 27.3757451,74.6308235 C33.3620196,74.6308235 38.2147647,69.7778824 38.2147647,63.7916078 L38.2147647,20.1343529 C38.223,12.7388627 44.2163333,6.74572549 51.6116275,6.7374902 L76.2557451,6.7374902 C76.9618235,6.7374902 77.5341765,7.30984314 77.5341765,8.01592157 C77.5341765,8.722 76.9618235,9.29435294 76.2557451,9.29435294 L76.2557451,9.29121569 Z M9.68711765,43.8221961 L20.8243725,43.8221961 L20.8243725,41.384549 L9.68711765,41.384549 L9.68711765,43.8221961 Z M2.74515686,31.8104314 L2.74515686,20.559451 L27.7702549,20.559451 L27.7702549,31.8104314 C24.2716275,32.4018039 21.5308431,35.1435686 20.9412353,38.6425882 L9.57417647,38.6425882 C8.98398039,35.1437647 6.24358824,32.402 2.74515686,31.8104314 L2.74515686,31.8104314 Z M5.14672549,16.0308235 L25.3716275,16.0308235 L25.3716275,17.8143529 L5.14260784,17.8143529 L5.14672549,16.0308235 Z M6.97731373,3.6465098 C6.97731373,3.14964706 7.37986275,2.74690196 7.87692157,2.74690196 C8.37378431,2.74690196 8.77633333,3.14964706 8.77633333,3.6465098 L8.77633333,13.2857255 L6.97339216,13.2857255 L6.97731373,3.6465098 Z M21.7459412,3.6465098 C21.7453529,3.14964706 22.1477059,2.7465098 22.6445686,2.74592128 C23.1414314,2.74552941 23.5445686,3.14788235 23.5451569,3.6447451 L23.5451569,3.6465098 L23.5451569,13.2857255 L21.7418235,13.2857255 L21.7459412,3.6465098 Z M76.2557451,3.99239216 L51.6116275,3.99239216 C42.7002549,4.00062745 35.477902,11.2227843 35.4696667,20.1343529 L35.4696667,63.7916078 C35.4690784,68.2618039 31.8449608,71.8851373 27.3745686,71.884549 C22.9051569,71.8839608 19.2822157,68.2610196 19.2816275,63.7916078 L19.2816275,46.5704314 L22.1998627,46.5704314 C22.9577059,46.5708235 23.5720196,45.957098 23.5724118,45.1992549 L23.5724118,45.1978824 L23.5724118,40.0151373 C23.5769216,36.9414118 26.0675098,34.4508235 29.1412353,34.4465098 C29.8992745,34.4465098 30.5137843,33.832 30.5137843,33.0739608 L30.5137843,19.1916078 C30.5137843,18.4335686 29.8992745,17.8190588 29.1412353,17.8190588 L28.1167255,17.8190588 L28.1167255,14.6582745 C28.1167255,13.9002353 27.5022157,13.2857255 26.7441765,13.2857255 L26.2861373,13.2857255 L26.2861373,3.6465098 C26.2873137,1.63356863 24.6563333,0.00101960784 22.6433922,3.85796977e-05 C20.630451,-0.0011372549 18.9977059,1.63003922 18.9967255,3.64278431 L18.9967255,3.6465098 L18.9967255,13.2857255 L11.5177059,13.2857255 L11.5177059,3.6465098 C11.5167255,1.63356863 9.88398039,0.00258823529 7.87103922,0.00356862745 C5.85947059,0.00454901961 4.22927451,1.63494118 4.22829412,3.6465098 L4.22829412,13.2857255 L3.77005882,13.2857255 C3.01221569,13.2857255 2.3975098,13.9002353 2.3975098,14.6582745 L2.3975098,17.8143529 L1.37260784,17.8143529 C0.614372549,17.8143529 5.88235294e-05,18.4288627 5.88235294e-05,19.186902 L5.88235294e-05,33.0692549 C5.88235294e-05,33.8272941 0.614372549,34.4418039 1.37260784,34.4418039 C4.44633333,34.4457255 6.93731373,36.9365098 6.94123529,40.0102353 L6.94123529,45.1931765 C6.94064706,45.9506275 7.55456863,46.5651373 8.31201961,46.5657255 L8.31378431,46.5657255 L11.2337843,46.5657255 L11.2337843,63.7916078 C11.2351569,72.7061176 18.463,79.9316078 27.3775098,79.9300395 C36.2900588,79.9286667 43.5147647,72.7041569 43.5159412,63.7916078 L43.5159412,20.1343529 C43.5212353,15.6655294 47.1428039,12.0441569 51.6116275,12.039451 L76.2557451,12.039451 C78.477902,12.039451 80.2792745,10.2380784 80.2792745,8.01592157 C80.2792745,5.79376471 78.477902,3.99239216 76.2557451,3.99239216 Z" id="Fill-1" fill="#E63B1F" mask="url(#mask-2)"></path></g></g></svg> 