<svg class="logo-svg" data-name="Keena Healthcare Technology" xmlns="http://www.w3.org/2000/svg" viewBox="0 0 429.54 149.31">
    <title>Keena Healthcare Technology</title>
    <path d="M0,136.7H62.12v3.08H0Zm367.42,0h62.12v3.08H367.42Z" style="fill:#36414f" />
    <path d="M254,75.87H190.15a21.34,21.34,0,0,0,7.4,13.41q6,5,15.3,5A26.48,26.48,0,0,0,232,86.47l16.73,7.87a39.69,39.69,0,0,1-15,13.14Q225,111.73,213,111.72q-18.63,0-30.32-11.74T171,70.56q0-18.14,11.67-30.09t29.27-12q18.7,0,30.42,12T254,72.08ZM234,60.23a20.07,20.07,0,0,0-7.75-10.77,22.48,22.48,0,0,0-13.43-4.15A23.72,23.72,0,0,0,198.3,50c-2.61,1.93-5,5.36-7.28,10.25Z" style="fill:#36414f" />
    <polygon points="0 0 19.86 0 19.86 63.21 49.11 30.54 73.99 30.54 39.95 68.53 78.13 109.69 53.45 109.69 19.86 73.24 19.86 109.69 0 109.69 0 0" style="fill:#36414f" />
    <path d="M266.55,30.54h19.79v8.09a46.53,46.53,0,0,1,12.27-7.89,29.59,29.59,0,0,1,11.22-2.24,27.23,27.23,0,0,1,20,8.24c4.62,4.65,6.9,11.53,6.9,20.66v52.29H317.1V75q0-14.19-1.26-18.84a13,13,0,0,0-4.45-7.1,12.44,12.44,0,0,0-7.79-2.43,14.61,14.61,0,0,0-10.38,4,21.58,21.58,0,0,0-6,11.15c-.57,2.48-.87,7.85-.87,16.09v31.78h-19.8Z" style="fill:#36414f" />
    <path d="M409.75,30.54h19.79v79.15H409.75v-8.37a38.82,38.82,0,0,1-11.67,8,32.75,32.75,0,0,1-12.71,2.44q-15.35,0-26.54-11.9t-11.2-29.57q0-18.32,10.83-30c7.22-7.79,16-11.72,26.34-11.72a33.62,33.62,0,0,1,13.38,2.71,36.84,36.84,0,0,1,11.57,8.07ZM388.87,46.85a20.1,20.1,0,0,0-15.34,6.51q-6.11,6.51-6.11,16.68c0,6.85,2.06,12.46,6.21,16.88A20.18,20.18,0,0,0,389,93.55,20.55,20.55,0,0,0,404.51,87q6.18-6.48,6.19-17.06c0-6.87-2.07-12.46-6.19-16.7a20.82,20.82,0,0,0-15.64-6.41" style="fill:#36414f" />
    <path class="logo-accent-path" d="M102.56,86.48a20.58,20.58,0,0,0,2.8,2.8q6,5,15.29,5a26.6,26.6,0,0,0,19.14-7.79l16.74,7.87a39.66,39.66,0,0,1-15,13.13q-8.72,4.24-20.73,4.25-18.63,0-30.32-11.75a41.42,41.42,0,0,1-4.7-5.62Z" style="fill:#e43a20" />
    <path d="M161.77,75.87H79.05a49.57,49.57,0,0,1-.28-5.31q0-18.14,11.67-30.09t29.27-12q18.69,0,30.41,12t11.72,31.6ZM141.83,60.23a20.07,20.07,0,0,0-7.75-10.77,22.48,22.48,0,0,0-13.43-4.15A23.68,23.68,0,0,0,106.1,50c-2.61,1.93-5,5.36-7.27,10.25Z" style="fill:#36414f" />
    <path d="M77.4,127.58h3.25v6.36h5.64v-6.36h3.24v16.85H86.29v-7.38H80.65v7.38H77.4ZM106,139.11H96a3.37,3.37,0,0,0,1.17,2.11,3.65,3.65,0,0,0,2.4.79,4.17,4.17,0,0,0,3-1.23L105.2,142a6.28,6.28,0,0,1-2.36,2.07,7.34,7.34,0,0,1-3.26.67,6.45,6.45,0,0,1-4.78-1.85A6.3,6.3,0,0,1,93,138.27a6.54,6.54,0,0,1,1.84-4.74,6.16,6.16,0,0,1,4.61-1.88,6.49,6.49,0,0,1,4.79,1.88,6.84,6.84,0,0,1,1.84,5Zm-3.14-2.46a3.13,3.13,0,0,0-1.22-1.7,3.57,3.57,0,0,0-2.12-.65,3.77,3.77,0,0,0-2.29.73,4.2,4.2,0,0,0-1.14,1.62ZM118.23,132h3.12v12.46h-3.12v-1.31a6.06,6.06,0,0,1-1.84,1.25,5.06,5.06,0,0,1-2,.39,5.57,5.57,0,0,1-4.18-1.88,6.52,6.52,0,0,1-1.76-4.65,6.64,6.64,0,0,1,1.71-4.73,5.42,5.42,0,0,1,4.14-1.85,5.11,5.11,0,0,1,2.11.43,5.64,5.64,0,0,1,1.82,1.27Zm-3.29,2.57a3.17,3.17,0,0,0-2.41,1,4.1,4.1,0,0,0,0,5.29,3.17,3.17,0,0,0,2.42,1,3.24,3.24,0,0,0,2.45-1,4,4,0,0,0,0-5.31,3.28,3.28,0,0,0-2.47-1m9.73-7.38h3.12v17.27h-3.12Zm6.82.22h3.12V132h1.85v2.7H134.6v9.76h-3.12V134.7h-1.6V132h1.6Zm7.16-.22h3.11v6.07a7.13,7.13,0,0,1,1.84-1.18,4.67,4.67,0,0,1,1.88-.4A4.2,4.2,0,0,1,148.6,133a4.46,4.46,0,0,1,1.08,3.26v8.23H146.6V139a13.72,13.72,0,0,0-.2-2.93,2,2,0,0,0-.71-1.14,1.93,1.93,0,0,0-1.23-.38,2.3,2.3,0,0,0-1.63.63,3.32,3.32,0,0,0-1,1.71,14.71,14.71,0,0,0-.13,2.57v5h-3.11Zm26.76,7.33-2.6,1.43a4.45,4.45,0,0,0-1.45-1.06,4.33,4.33,0,0,0-1.67-.3,3.88,3.88,0,0,0-2.84,1.05,3.57,3.57,0,0,0-1.08,2.69,3.45,3.45,0,0,0,1,2.6,3.75,3.75,0,0,0,2.74,1,4,4,0,0,0,3.26-1.44l2.46,1.68a7.57,7.57,0,0,1-10.69.75l-.11-.09A6.5,6.5,0,0,1,156,132.52a7.54,7.54,0,0,1,3.63-.87,7.4,7.4,0,0,1,3.33.74,6.37,6.37,0,0,1,2.42,2.1M177.93,132h3.12v12.46h-3.12v-1.31a6.06,6.06,0,0,1-1.84,1.25,5.06,5.06,0,0,1-2,.39,5.57,5.57,0,0,1-4.18-1.88,6.52,6.52,0,0,1-1.76-4.65,6.64,6.64,0,0,1,1.71-4.73,5.42,5.42,0,0,1,4.14-1.85,5.11,5.11,0,0,1,2.11.43,5.64,5.64,0,0,1,1.82,1.27Zm-3.29,2.57a3.17,3.17,0,0,0-2.41,1,4.1,4.1,0,0,0,0,5.29,3.17,3.17,0,0,0,2.42,1,3.24,3.24,0,0,0,2.45-1,4,4,0,0,0,0-5.31,3.28,3.28,0,0,0-2.47-1M184,132h2.68v1.57a3.41,3.41,0,0,1,1.15-1.4,2.74,2.74,0,0,1,1.59-.49,3,3,0,0,1,1.27.32l-1,2.7a2,2,0,0,0-.9-.28,1.45,1.45,0,0,0-1.22.89,8.24,8.24,0,0,0-.5,3.51v5.64H184Zm21.21,7.14H195.13a3.37,3.37,0,0,0,1.17,2.11,3.68,3.68,0,0,0,2.41.79,4.15,4.15,0,0,0,3-1.23l2.64,1.24a6.28,6.28,0,0,1-2.36,2.07,7.52,7.52,0,0,1-3.27.67,6.43,6.43,0,0,1-4.77-1.85,6.29,6.29,0,0,1-1.85-4.64,6.54,6.54,0,0,1,1.84-4.74,6.24,6.24,0,0,1,4.61-1.88,6.41,6.41,0,0,1,4.79,1.88,6.8,6.8,0,0,1,1.84,5ZM202,136.65a3.13,3.13,0,0,0-1.22-1.7,3.56,3.56,0,0,0-2.11-.65,3.7,3.7,0,0,0-2.29.73,4.22,4.22,0,0,0-1.15,1.62Zm13.33-9.07h9.31v3.17h-3.06v13.68h-3.26V130.75h-3Zm24.15,11.53h-10a3.37,3.37,0,0,0,1.17,2.11,3.68,3.68,0,0,0,2.41.79,4.15,4.15,0,0,0,3-1.23L238.7,142a6.28,6.28,0,0,1-2.36,2.07,7.52,7.52,0,0,1-3.27.67,6.43,6.43,0,0,1-4.77-1.85,6.29,6.29,0,0,1-1.85-4.64,6.54,6.54,0,0,1,1.84-4.74,6.24,6.24,0,0,1,4.61-1.88,6.41,6.41,0,0,1,4.79,1.88,6.8,6.8,0,0,1,1.84,5Zm-3.14-2.46a3.13,3.13,0,0,0-1.22-1.7,3.56,3.56,0,0,0-2.11-.65,3.7,3.7,0,0,0-2.29.73,4.22,4.22,0,0,0-1.15,1.62Zm18.36-2.16-2.6,1.43a4.45,4.45,0,0,0-1.45-1.06,4.33,4.33,0,0,0-1.67-.3,3.88,3.88,0,0,0-2.84,1.05,3.57,3.57,0,0,0-1.08,2.69,3.45,3.45,0,0,0,1,2.6,3.83,3.83,0,0,0,2.74,1,4,4,0,0,0,3.26-1.44l2.46,1.68a7.57,7.57,0,0,1-10.69.75l-.11-.09a6.58,6.58,0,0,1-1-7.9,6.46,6.46,0,0,1,2.53-2.39,7.94,7.94,0,0,1,7-.13,6.34,6.34,0,0,1,2.41,2.1m3.33-7.33h3.1v6.07a7.4,7.4,0,0,1,1.84-1.18,4.67,4.67,0,0,1,1.88-.4,4.2,4.2,0,0,1,3.13,1.29,4.42,4.42,0,0,1,1.09,3.26v8.23h-3V139a13.72,13.72,0,0,0-.2-2.93,2,2,0,0,0-.71-1.14,1.91,1.91,0,0,0-1.22-.38,2.31,2.31,0,0,0-1.64.63,3.26,3.26,0,0,0-.94,1.71,14.72,14.72,0,0,0-.14,2.57v5h-3.1ZM272.62,132h3.12v1.28a7,7,0,0,1,1.93-1.25,4.66,4.66,0,0,1,1.77-.35,4.27,4.27,0,0,1,3.15,1.3,4.39,4.39,0,0,1,1.09,3.25v8.23h-3.1V139a13.14,13.14,0,0,0-.2-3,2,2,0,0,0-.7-1.12,1.86,1.86,0,0,0-1.22-.39,2.32,2.32,0,0,0-1.64.64,3.41,3.41,0,0,0-.94,1.76,14.27,14.27,0,0,0-.14,2.53v5h-3.12Zm20.43-.32a6.68,6.68,0,0,1,3.32.88,6.55,6.55,0,0,1,2.41,9,6.33,6.33,0,0,1-2.39,2.4,6.57,6.57,0,0,1-3.33.87,6.2,6.2,0,0,1-4.57-1.91,6.57,6.57,0,0,1,4.56-11.2m.05,2.94a3.22,3.22,0,0,0-2.43,1,4.07,4.07,0,0,0,0,5.23,3.43,3.43,0,0,0,4.84,0l0,0a3.67,3.67,0,0,0,1-2.63,3.59,3.59,0,0,0-1-2.6,3.2,3.2,0,0,0-2.44-1m9.27-7.43h3.13v17.27h-3.13Zm12.3,4.49a6.68,6.68,0,0,1,3.32.88,6.57,6.57,0,0,1,2.42,9,6.4,6.4,0,0,1-2.39,2.4,6.64,6.64,0,0,1-3.34.87,6.24,6.24,0,0,1-4.57-1.91,6.36,6.36,0,0,1-1.9-4.64,6.54,6.54,0,0,1,6.46-6.56m0,2.94a3.21,3.21,0,0,0-2.42,1,3.57,3.57,0,0,0-1,2.59,3.68,3.68,0,0,0,1,2.64,3.17,3.17,0,0,0,2.42,1,3.25,3.25,0,0,0,2.44-1,4,4,0,0,0,0-5.23,3.27,3.27,0,0,0-2.45-1M333.54,132h3.12v10.68a7,7,0,0,1-1.28,4.65,6.37,6.37,0,0,1-5.14,2,9.2,9.2,0,0,1-3.08-.45,5.66,5.66,0,0,1-2.11-1.35,5.38,5.38,0,0,1-1.27-2.16h3.45a2.89,2.89,0,0,0,1.18.8,4.92,4.92,0,0,0,1.7.27,4.44,4.44,0,0,0,2-.39,2.33,2.33,0,0,0,1.08-1,5,5,0,0,0,.32-2.13,5.12,5.12,0,0,1-1.73,1.18,5.5,5.5,0,0,1-2,.36,5.63,5.63,0,0,1-4.24-1.81,7,7,0,0,1,.1-9.34,5.46,5.46,0,0,1,4-1.63,5.07,5.07,0,0,1,2,.4,6.39,6.39,0,0,1,1.92,1.3Zm-3.24,2.61a3.24,3.24,0,0,0-2.44,1,3.42,3.42,0,0,0-1,2.49,3.5,3.5,0,0,0,1,2.56,3.36,3.36,0,0,0,2.47,1,3.19,3.19,0,0,0,2.4-1,3.86,3.86,0,0,0,0-5.08,3.27,3.27,0,0,0-2.45-1M338.9,132h3.2l3.24,7.82,3.57-7.82h3.21l-7.81,17H341.1l2.57-5.48Z" style="fill:#36414f" />
</svg>