<?xml version="1.0" encoding="UTF-8"?> <svg xmlns="http://www.w3.org/2000/svg" xmlns:xlink="http://www.w3.org/1999/xlink" version="1.1" id="Layer_1" x="0px" y="0px" viewBox="0 0 71 71" style="enable-background:new 0 0 71 71;" xml:space="preserve"> <style type="text/css"> .st0{fill:#EC4F28;} .st1{fill:#FFFFFF;} .st2{fill:none;stroke:#FFFFFF;stroke-width:2.5;stroke-miterlimit:10;} </style> <g> <circle class="st0" cx="35.5" cy="35.5" r="35"></circle> <g> <g> <g> <path class="st1" d="M26.3,53.1l0.5-0.5c0.9,0.5,1.8,0.8,2.8,1.1v0.7c0,1.8,1.4,3.2,3.2,3.2h5.4c1.8,0,3.2-1.4,3.2-3.2v-0.7 c1-0.3,1.9-0.7,2.8-1.1l0.5,0.5c1.2,1.2,3.3,1.2,4.5,0l3.9-3.9c1.2-1.2,1.2-3.3,0-4.5l-0.5-0.5c0.5-0.9,0.8-1.8,1.1-2.8h0.7 c1.8,0,3.2-1.4,3.2-3.2v-5.4c0-1.8-1.4-3.2-3.2-3.2h-0.7c-0.3-1-0.7-1.9-1.1-2.8l0.5-0.5c1.2-1.2,1.2-3.3,0-4.5l-3.9-3.9 c-0.6-0.6-1.4-0.9-2.3-0.9c0,0,0,0,0,0c-0.9,0-1.7,0.3-2.2,0.9l-0.5,0.5c-0.9-0.5-1.8-0.8-2.8-1.2v-0.7c0-1.8-1.4-3.2-3.2-3.2 h-5.4c-1.8,0-3.2,1.4-3.2,3.2v0.7c-1,0.3-1.9,0.7-2.8,1.2l-0.5-0.5c-0.6-0.6-1.4-0.9-2.3-0.9c-0.9,0-1.7,0.3-2.3,0.9l-3.9,3.9 c-1.2,1.2-1.2,3.3,0,4.5l0.5,0.5c-0.5,0.9-0.8,1.8-1.1,2.8h-0.7c-1.8,0-3.2,1.4-3.2,3.2v5.4c0,1.8,1.4,3.2,3.2,3.2h0.7 c0.3,1,0.7,1.9,1.1,2.8l-0.5,0.5c-1.2,1.2-1.2,3.3,0,4.5l3.9,3.9C23,54.3,25.1,54.3,26.3,53.1L26.3,53.1z M19.1,47.7l1.4-1.4 c0.5-0.5,0.6-1.4,0.3-2c-0.8-1.4-1.5-2.9-1.9-4.5c-0.2-0.7-0.9-1.3-1.6-1.3h-2c0,0-0.1,0-0.1-0.1v-5.8c0,0,0-0.1,0.1-0.1h2 c0.8,0,1.4-0.5,1.6-1.3c0.4-1.6,1-3.1,1.9-4.5c0.4-0.7,0.3-1.5-0.3-2l-1.4-1.4c0,0,0-0.1,0-0.1l4.1-4.1c0,0,0.1,0,0.1,0l1.4,1.4 c0.5,0.5,1.4,0.6,2,0.3c1.4-0.8,2.9-1.5,4.5-1.9c0.7-0.2,1.3-0.9,1.3-1.6v-2c0,0,0-0.1,0.1-0.1h5.8c0,0,0.1,0,0.1,0.1v2 c0,0.8,0.5,1.4,1.3,1.6c1.6,0.4,3.1,1,4.5,1.9c0.7,0.4,1.5,0.3,2-0.3l1.4-1.4c0,0,0,0,0,0h0c0,0,0,0,0.1,0l4.1,4.1 c0,0,0,0.1,0,0.1l-1.4,1.4c-0.5,0.5-0.6,1.4-0.3,2c0.8,1.4,1.5,2.9,1.9,4.5c0.2,0.7,0.9,1.3,1.6,1.3h2c0,0,0.1,0,0.1,0.1v5.8 c0,0,0,0.1-0.1,0.1h-2c-0.8,0-1.4,0.5-1.6,1.3c-0.4,1.6-1,3.1-1.9,4.5c-0.4,0.7-0.3,1.5,0.3,2l1.4,1.4c0,0,0,0.1,0,0.1l-4.1,4.1 c0,0-0.1,0-0.1,0l-1.4-1.4c-0.5-0.5-1.4-0.6-2-0.3c-1.4,0.8-2.9,1.5-4.5,1.9c-0.7,0.2-1.3,0.9-1.3,1.6v2c0,0,0,0.1-0.1,0.1h-5.8 c0,0-0.1,0-0.1-0.1v-2c0-0.8-0.5-1.4-1.3-1.6c-1.6-0.4-3.1-1-4.5-1.9c-0.3-0.2-0.6-0.2-0.9-0.2c-0.4,0-0.9,0.2-1.2,0.5l-1.4,1.4 c0,0-0.1,0-0.1,0l-4.1-4.1C19.1,47.8,19.1,47.7,19.1,47.7L19.1,47.7z"></path> </g> </g> <circle class="st2" cx="35.5" cy="35.5" r="11"></circle> </g> </g> </svg> 