<?xml version="1.0" encoding="UTF-8"?> <svg xmlns="http://www.w3.org/2000/svg" xmlns:xlink="http://www.w3.org/1999/xlink" version="1.1" id="Layer_1" x="0px" y="0px" viewBox="0 0 71 71" style="enable-background:new 0 0 71 71;" xml:space="preserve"> <style type="text/css"> .st0{fill:#EBEBEB;} .st1{opacity:0.8;} .st2{fill:#465362;} </style> <g> <circle class="st0" cx="35.5" cy="35.5" r="35"></circle> <g class="st1"> <g> <g> <path class="st2" d="M32.3,21.6c-4.7,1.1-8.5,4.9-9.7,9.6c-1.2,4.7,0.2,9.5,3.6,12.9c1.2,1.2,1.9,3.1,1.9,5.1v0.3 c0,1.3,0.6,2.5,1.5,3.3v2.6c0,2.4,2,4.4,4.4,4.4h3c2.4,0,4.4-2,4.4-4.4v-2.6c0.9-0.8,1.5-2,1.5-3.3V49c0-2,0.8-3.9,2-5.2 c2.5-2.5,3.9-5.8,3.9-9.4C48.8,26,40.9,19.6,32.3,21.6z M38.5,55.3c0,0.8-0.7,1.5-1.5,1.5h-3c-0.8,0-1.5-0.7-1.5-1.5v-1.5h5.9 V55.3z M42.8,41.8c-1.8,1.8-2.9,4.5-2.9,7.2v0.3c0,0.8-0.7,1.5-1.5,1.5h-5.9c-0.8,0-1.5-0.7-1.5-1.5v-0.3c0-2.8-1-5.4-2.8-7.2 c-2.6-2.6-3.7-6.4-2.8-10c0.9-3.6,3.8-6.5,7.5-7.4c6.8-1.6,12.8,3.5,12.8,10C45.8,37.3,44.8,39.9,42.8,41.8z"></path> </g> </g> <g> <g> <path class="st2" d="M24,20.9l-4.2-4.2c-0.6-0.6-1.5-0.6-2.1,0c-0.6,0.6-0.6,1.5,0,2.1l4.2,4.2c0.6,0.6,1.5,0.6,2.1,0 C24.6,22.4,24.6,21.5,24,20.9z"></path> </g> </g> <g> <g> <path class="st2" d="M17.8,33h-6c-0.8,0-1.5,0.7-1.5,1.5c0,0.8,0.7,1.5,1.5,1.5h6c0.8,0,1.5-0.7,1.5-1.5 C19.3,33.7,18.6,33,17.8,33z"></path> </g> </g> <g> <g> <path class="st2" d="M59.2,33h-6c-0.8,0-1.5,0.7-1.5,1.5c0,0.8,0.7,1.5,1.5,1.5h6c0.8,0,1.5-0.7,1.5-1.5 C60.7,33.7,60,33,59.2,33z"></path> </g> </g> <g> <g> <path class="st2" d="M53.3,16.7c-0.6-0.6-1.5-0.6-2.1,0L47,20.9c-0.6,0.6-0.6,1.5,0,2.1c0.6,0.6,1.5,0.6,2.1,0l4.2-4.2 C53.8,18.3,53.8,17.3,53.3,16.7z"></path> </g> </g> <g> <g> <path class="st2" d="M35.5,9.3c-0.8,0-1.5,0.7-1.5,1.5v6c0,0.8,0.7,1.5,1.5,1.5s1.5-0.7,1.5-1.5v-6C37,10,36.3,9.3,35.5,9.3z"></path> </g> </g> <g> <g> <path class="st2" d="M35.5,27.1c-0.6,0-1.2,0.1-1.8,0.2c-2.5,0.6-4.7,2.7-5.3,5.2c-0.2,0.8,0.3,1.6,1.1,1.8 c0.8,0.2,1.6-0.3,1.8-1.1c0.4-1.5,1.6-2.7,3.1-3.1c0.4-0.1,0.8-0.1,1.2-0.1c0.8,0,1.5-0.7,1.5-1.5C37,27.8,36.3,27.1,35.5,27.1z "></path> </g> </g> </g> </g> </svg> 