<?xml version="1.0" encoding="UTF-8"?> <svg xmlns="http://www.w3.org/2000/svg" xmlns:xlink="http://www.w3.org/1999/xlink" version="1.1" id="Layer_1" x="0px" y="0px" viewBox="0 0 71 71" style="enable-background:new 0 0 71 71;" xml:space="preserve"> <style type="text/css"> .st0{fill:#EC4F28;} .st1{fill:#FFFFFF;} </style> <g> <circle class="st0" cx="35.5" cy="35.5" r="35"></circle> <g id="b85db83d-9203-44f9-8716-5a4a8d73faeb_00000163072445612334595830000006573632770873040769_"> <path class="st1" d="M27.6,48.1c-0.5,0-0.9-0.2-1.2-0.5c-6.7-6.3-6.9-16.9-0.6-23.6c0.2-0.2,0.4-0.4,0.6-0.6 c0.8-0.6,1.9-0.5,2.5,0.3c0.6,0.7,0.5,1.7-0.1,2.4c-5.2,5-5.4,13.3-0.4,18.5c0.1,0.1,0.3,0.3,0.4,0.4c0.7,0.7,0.8,1.8,0.1,2.5 C28.5,47.9,28,48.1,27.6,48.1L27.6,48.1z M20.4,52.9c0.7-0.7,0.7-1.8,0-2.5c-8.2-7.8-8.5-20.8-0.7-29c0.2-0.2,0.4-0.5,0.7-0.7 c0.7-0.7,0.7-1.9,0-2.6s-1.9-0.7-2.6,0c-9.6,9.2-10,24.5-0.8,34.1c0.3,0.3,0.5,0.6,0.8,0.8C18.6,53.7,19.7,53.6,20.4,52.9 C20.4,52.9,20.4,52.9,20.4,52.9L20.4,52.9z M44.7,47.6c6.7-6.3,6.9-16.9,0.6-23.6c-0.2-0.2-0.4-0.4-0.6-0.6 c-0.7-0.7-1.9-0.6-2.5,0.1c-0.7,0.7-0.6,1.9,0.1,2.5c5.2,5,5.4,13.2,0.5,18.5c-0.2,0.2-0.3,0.3-0.5,0.5c-0.7,0.7-0.8,1.8-0.1,2.5 c0.3,0.4,0.8,0.6,1.3,0.6C43.9,48.1,44.3,47.9,44.7,47.6z M53.1,53c9.6-9.2,10.1-24.4,0.9-34c-0.3-0.3-0.6-0.6-0.9-0.9 c-0.8-0.6-1.9-0.5-2.5,0.3C50,19,50.1,20,50.7,20.7c8.2,7.8,8.5,20.8,0.7,29c-0.2,0.2-0.4,0.5-0.7,0.7c-0.7,0.7-0.8,1.8-0.1,2.5 c0.3,0.4,0.8,0.6,1.3,0.6C52.4,53.5,52.8,53.3,53.1,53z M39.1,35.5c0-2-1.6-3.6-3.6-3.6c-2,0-3.6,1.6-3.6,3.6c0,2,1.6,3.6,3.6,3.6 C37.5,39.1,39.1,37.5,39.1,35.5z"></path> </g> </g> </svg> 