<?xml version="1.0" encoding="UTF-8"?> <svg xmlns="http://www.w3.org/2000/svg" xmlns:xlink="http://www.w3.org/1999/xlink" version="1.1" id="Layer_1" x="0px" y="0px" viewBox="0 0 71 71" style="enable-background:new 0 0 71 71;" xml:space="preserve"> <style type="text/css"> .st0{fill:#EC4F28;} .st1{fill:#FFFFFF;} </style> <g> <circle class="st0" cx="35.5" cy="35.5" r="35"></circle> <g> <path class="st1" d="M42,18.8c-6.1-6.1-15.9-6.1-22,0s-6.1,15.9,0,22c5.5,5.5,13.9,6,19.9,1.8l2.1,2.1l-0.6,0.6 c-0.3,0.3-0.3,0.6,0,0.9l7,6.9c1.6,1.6,4.3,1.6,5.9,0c1.6-1.6,1.6-4.3,0-5.9l-6.9-6.9c-0.3-0.3-0.6-0.3-0.9,0L45.9,41l-2.1-2.1 C48,32.8,47.5,24.3,42,18.8L42,18.8z M53.4,48.1c1.1,1.1,1.1,3,0,4.1c-1.1,1.1-3,1.1-4.1,0l-6.5-6.5l4.1-4.1L53.4,48.1z M45,41.9 c-0.1,0.1-2.1,2.1-2,2L41,41.8c0.4-0.3,0.7-0.6,1.1-0.9c0.3-0.3,0.6-0.7,0.9-1.1L45,41.9z"></path> </g> <path class="st0" d="M40.6,20.3c-5.3-5.3-13.9-5.3-19.1,0s-5.3,13.9,0,19.1s13.9,5.3,19.1,0S45.9,25.5,40.6,20.3z M39.5,38.4 c-4.7,4.7-12.4,4.7-17.1,0s-4.7-12.4,0-17.1s12.4-4.7,17.1,0C44.3,26,44.3,33.6,39.5,38.4z"></path> <path class="st0" d="M38.1,24.7c-0.8-0.8-2.1-0.8-2.9,0l-5.8,5.8l-2.6-2.6c-0.8-0.8-2.1-0.8-2.9,0c-0.8,0.8-0.8,2.1,0,2.9l4.1,4.1 c0.4,0.4,0.9,0.6,1.4,0.6s1.1-0.2,1.4-0.6l7.3-7.3C38.9,26.9,38.9,25.5,38.1,24.7z"></path> </g> </svg> 