<?xml version="1.0" encoding="UTF-8"?> <svg xmlns="http://www.w3.org/2000/svg" xmlns:xlink="http://www.w3.org/1999/xlink" id="Layer_1" viewBox="0 0 50 50"><defs><style>.cls-1{fill:none;}.cls-2{clip-path:url(#clippath);}.cls-3{fill:#f5e845;}.cls-4{fill:#2a333d;}</style><clipPath id="clippath"><rect class="cls-1" x=".7" y=".38" width="48.99" height="48.99"></rect></clipPath></defs><g class="cls-2"><path class="cls-4" d="m26.98,49.37c12.54,0,22.71-10.17,22.71-22.71S39.53,3.96,26.98,3.96,4.28,14.12,4.28,26.66s10.17,22.71,22.71,22.71"></path><path class="cls-3" d="m36.45,19.25l-14.27,14.27c-.61.61-1.41.94-2.27.94s-1.67-.34-2.27-.94l-7.27-7.27c-.61-.61-.94-1.41-.94-2.27s.34-1.66.94-2.27c.61-.61,1.41-.94,2.27-.94s1.67.34,2.27.94l5,5,11.99-11.99c.61-.61,1.41-.94,2.27-.94s1.66.33,2.27.94c1.25,1.25,1.25,3.29,0,4.54M23.41.38C10.88.38.7,10.57.7,23.09s10.19,22.71,22.71,22.71,22.71-10.19,22.71-22.71S35.93.38,23.41.38"></path></g></svg> 