<?xml version="1.0" encoding="UTF-8"?> <svg xmlns="http://www.w3.org/2000/svg" xmlns:xlink="http://www.w3.org/1999/xlink" id="Layer_1" viewBox="0 0 50 50"><defs><style>.cls-1{fill:none;}.cls-2{clip-path:url(#clippath);}.cls-3{fill:#f5e845;}.cls-4{fill:#455461;}</style><clipPath id="clippath"><rect class="cls-1" x=".37" y=".5" width="49.1" height="48.88"></rect></clipPath></defs><g class="cls-2"><path class="cls-3" d="m24.8,49.35c13.49,0,24.43-10.94,24.43-24.43S38.28.5,24.8.5.37,11.44.37,24.93s10.94,24.43,24.43,24.43"></path><path class="cls-4" d="m25.04,21.62c1.82,0,3.29,1.47,3.29,3.29s-1.47,3.29-3.29,3.29-3.29-1.47-3.29-3.29,1.47-3.29,3.29-3.29"></path><path class="cls-4" d="m14.56,35.44c-2.15-2.16-3.56-4.86-4.1-7.79h1.88c1.45,0,2.62-1.17,2.62-2.62v-.07c0-1.5-1.21-2.71-2.7-2.71h-1.8c.54-2.94,1.95-5.63,4.1-7.79,2.16-2.15,4.86-3.56,7.79-4.1v1.8c0,1.49,1.21,2.7,2.7,2.7s2.7-1.21,2.7-2.7v-1.8c2.94.54,5.63,1.95,7.79,4.1,2.15,2.16,3.56,4.85,4.1,7.79h-1.8c-1.49,0-2.7,1.21-2.7,2.7s1.21,2.7,2.7,2.7h1.8c-.54,2.93-1.95,5.63-4.1,7.79-2.16,2.15-4.85,3.56-7.79,4.1v-1.8c0-1.49-1.21-2.7-2.7-2.7s-2.7,1.21-2.7,2.7v1.8c-2.93-.54-5.63-1.95-7.79-4.1m10.49,13.94h0c1.49,0,2.7-1.21,2.7-2.7v-1.68c1.78-.24,3.51-.71,5.18-1.41,2.41-1.02,4.57-2.48,6.43-4.33,1.85-1.85,3.31-4.02,4.33-6.42.71-1.67,1.17-3.4,1.42-5.18h1.68c1.49,0,2.7-1.21,2.7-2.7s-1.21-2.7-2.7-2.7h-1.68c-.24-1.78-.71-3.51-1.42-5.18-1.02-2.41-2.48-4.57-4.33-6.43-1.86-1.85-4.02-3.31-6.43-4.33-1.67-.71-3.4-1.18-5.18-1.41v-1.68c0-1.49-1.21-2.7-2.7-2.7s-2.7,1.21-2.7,2.7v1.68c-1.78.23-3.51.71-5.18,1.41-2.41,1.02-4.57,2.48-6.42,4.33-1.86,1.85-3.32,4.02-4.33,6.42-.71,1.67-1.17,3.4-1.42,5.18h-1.68c-1.49,0-2.7,1.21-2.7,2.7s1.21,2.7,2.7,2.7h1.68c.24,1.78.71,3.51,1.42,5.18,1.02,2.41,2.48,4.57,4.33,6.42,1.85,1.86,4.02,3.32,6.42,4.33,1.67.71,3.4,1.17,5.18,1.41v1.68c0,1.49,1.21,2.7,2.7,2.7"></path></g></svg> 