<?xml version="1.0" encoding="UTF-8"?> <svg xmlns="http://www.w3.org/2000/svg" xmlns:xlink="http://www.w3.org/1999/xlink" version="1.1" id="Layer_1" x="0px" y="0px" viewBox="0 0 180 65" style="enable-background:new 0 0 180 65;" xml:space="preserve"> <style type="text/css"> .st0{fill:#8D96F4;} .st1{fill:url(#SVGID_1_);} .st2{fill:#FFFFFF;} </style> <g> <g> <path class="st0" d="M54.3,57.6h2.5c2.3,0,3.8,1.6,3.8,3.6v0c0,2-1.6,3.6-3.8,3.6h-2.5V57.6z M56.8,64.1c1.8,0,3-1.2,3-2.9v0 c0-1.6-1.2-2.9-3-2.9h-1.7v5.7H56.8z"></path> <path class="st0" d="M64.6,57.6h0.8v7.3h-0.8V57.6z"></path> <path class="st0" d="M69.2,61.3L69.2,61.3c0-2,1.5-3.8,3.6-3.8c1.2,0,2,0.4,2.7,1L75,59.1c-0.6-0.5-1.2-0.8-2.2-0.8 c-1.6,0-2.8,1.4-2.8,3v0c0,1.7,1.1,3,2.9,3c0.8,0,1.6-0.3,2.1-0.7v-1.8h-2.2V61h3v2.9c-0.7,0.6-1.7,1.1-2.9,1.1 C70.6,65,69.2,63.3,69.2,61.3z"></path> <path class="st0" d="M79.8,57.6h0.8v7.3h-0.8V57.6z"></path> <path class="st0" d="M86.7,58.4h-2.4v-0.8H90v0.8h-2.4v6.5h-0.8V58.4z"></path> <path class="st0" d="M95.3,57.6h0.8l3.3,7.3h-0.9L97.7,63h-3.9l-0.9,1.9H92L95.3,57.6z M97.4,62.2l-1.6-3.7l-1.7,3.7H97.4z"></path> <path class="st0" d="M102.9,57.6h0.8v6.5h4.1v0.8h-4.9V57.6z"></path> <path class="st0" d="M117.8,57.6h0.8v3.2h4.2v-3.2h0.8v7.3h-0.8v-3.3h-4.2v3.3h-0.8V57.6z"></path> <path class="st0" d="M127.7,57.6h5.2v0.7h-4.4v2.5h4v0.7h-4v2.5h4.5v0.7h-5.3V57.6z"></path> <path class="st0" d="M139.4,57.6h0.8l3.3,7.3h-0.9l-0.8-1.9h-3.9l-0.9,1.9h-0.8L139.4,57.6z M141.4,62.2l-1.6-3.7l-1.7,3.7H141.4z "></path> <path class="st0" d="M147,57.6h0.8v6.5h4.1v0.8H147V57.6z"></path> <path class="st0" d="M156.4,58.4h-2.4v-0.8h5.7v0.8h-2.4v6.5h-0.8V58.4z"></path> <path class="st0" d="M163.2,57.6h0.8v3.2h4.2v-3.2h0.8v7.3h-0.8v-3.3H164v3.3h-0.8V57.6z"></path> </g> <g> <linearGradient id="SVGID_1_" gradientUnits="userSpaceOnUse" x1="173.1071" y1="47.0446" x2="180" y2="47.0446"> <stop offset="0" style="stop-color:#F28D98"></stop> <stop offset="1" style="stop-color:#EF6E7B"></stop> </linearGradient> <path class="st1" d="M180,49.7v-5.4c0-1-1.2-1.5-1.9-0.7l-4.7,5.4c-0.6,0.7-0.1,1.8,0.8,1.8h4.7C179.5,50.8,180,50.3,180,49.7z"></path> </g> <g> <g> <path class="st2" d="M86.8,34.2v-0.9c0-9.1,7.3-16.5,16.4-16.4c10.2,0.2,15.3,8.3,15.3,17.7c0,0.6,0,1.1-0.1,1.7 c0,0.2-0.2,0.4-0.4,0.4l-23.7,0c0.8,5.4,4.6,8.3,9.4,8.3c3.6,0,6.1-1.3,8.7-3.7c0.1-0.1,0.3-0.1,0.4,0l4,3.6 c0.1,0.1,0.1,0.3,0,0.4c-3.1,3.6-7.3,6-13.2,6C94.1,51.2,86.8,44.3,86.8,34.2z M110.7,31.7c0.2,0,0.3-0.1,0.3-0.3 c-0.6-4.7-3.4-8.3-8.3-8.3c-4.5,0-7.7,3.4-8.5,8.3c0,0.2,0.1,0.3,0.3,0.3H110.7z"></path> <path class="st2" d="M124,21.8l6-4.2c0.4-0.3,0.8,0,0.8,0.4v5.5c4.2-4.2,7.6-5.5,13-6.9c0.2-0.1,0.4,0.1,0.4,0.3l0.1,1.8 c0,0.9-0.1,1.8-0.4,2.6c-1.1,2.4-3.1,2.5-5.8,4.4c-3.7,2.6-7.3,6.3-7.3,12.4v12.2c0,0.1-0.1,0.3-0.3,0.3h-7 c-0.1,0-0.3-0.1-0.3-0.3V23.1C123.3,22.6,123.6,22.1,124,21.8z"></path> <path class="st2" d="M85.3,18c0-0.2-0.1-0.3-0.3-0.3l-1.9,0h-6.5V9.4c0-0.5-0.5-0.7-0.9-0.4l-6.1,5.4c-0.3,0.3-0.5,0.7-0.5,1.2 l0,8.5h0v17.3c0,7.2,3.9,9.6,9.4,9.6c2.7,0,4.7-0.6,6.6-1.6c0.1-0.1,0.2-0.2,0.2-0.3v-5.4c0-0.2-0.2-0.4-0.4-0.3 c-1.3,0.6-2.7,0.9-4.2,0.9c-2.5,0-4-1.2-4-4.1V24.1h2.4C81.6,24.1,85.1,21.4,85.3,18z"></path> <path class="st2" d="M155.5,22.8c5.2,1.4,6.4,3.5,6.4,8v0.6c-2.5-0.8-5.1-1.4-9.1-1.4c-7.6,0-13.3,3.5-13.3,10.8V41 c0,6.6,5.5,10.1,11.7,10.1c5,0,8.4-2.1,10.6-4.7v3.8c0,0.1,0.1,0.3,0.3,0.3h6.9c0.1,0,0.3-0.1,0.3-0.3V31c0-8.8-7-13.9-15.8-14.9 c-1.7-0.2-4-0.2-6.4-0.1c-0.2,0-0.3,0.2-0.3,0.4l0.2,1.8c0.1,2.6,2.8,3.5,5.2,4C155.1,22.8,155.5,22.8,155.5,22.8z M162,38.6 c0,4.1-3.7,6.9-8.7,6.9c-3.5,0-6.3-1.7-6.3-4.9v-0.1c0-3.2,2.8-5.1,7.5-5.1c2.7,0,5.2,0.5,7,1.1c0.3,0.1,0.5,0.4,0.5,0.7V38.6z"></path> <g> <path class="st2" d="M39.6,39.1H19c-0.4,0-0.8,0.2-1.1,0.5L12,46.7c-3.1,3.8-4.3,3.8-8.1,3.8H0.5c-0.5,0-0.7-0.5-0.4-0.9 L34.5,8.9l1-1.1c1.6-2.1,4-4.1,7.1-4.1h4.9v46.5c0,0.1-0.1,0.3-0.3,0.3h-7c-0.1,0-0.3-0.1-0.3-0.3V39.3 C39.9,39.2,39.8,39.1,39.6,39.1z M39.9,31.4l0.2-17.8c0-0.3-0.3-0.4-0.5-0.2L24.8,31.2c-0.2,0.2,0,0.5,0.2,0.5h14.6 C39.8,31.7,39.9,31.6,39.9,31.4z"></path> </g> </g> <path class="st2" d="M55,7.6L61,0.2c0.3-0.4,1-0.2,1,0.3v49.7c0,0.1-0.1,0.3-0.3,0.3h-7c-0.1,0-0.3-0.1-0.3-0.3V9 C54.4,8.5,54.6,8,55,7.6z"></path> </g> </g> </svg> 