<?xml version="1.0" encoding="UTF-8"?> <svg xmlns="http://www.w3.org/2000/svg" viewBox="0 0 480 384"><title>Asset 1</title><g id="f5f06aed-dd14-43d3-8247-60ab2197de5c" data-name="Layer 2"><g id="b2e909b4-a9fc-442c-90fd-1ff7f4120b75" data-name="Capa 1"><path d="M80,0H16A16,16,0,0,0,0,16V80a16,16,0,0,0,32,0V32H80A16,16,0,0,0,80,0Z" style="fill:#e4472d"></path><path d="M464,288a16,16,0,0,0-16,16v48H400a16,16,0,0,0,0,32h64a16,16,0,0,0,16-16V304A16,16,0,0,0,464,288Z" style="fill:#e4472d"></path><path d="M464,0H400a16,16,0,0,0,0,32h48V80a16,16,0,0,0,32,0V16A16,16,0,0,0,464,0Z" style="fill:#e4472d"></path><path d="M80,352H32V304a16,16,0,0,0-32,0v64a16,16,0,0,0,16,16H80a16,16,0,0,0,0-32Z" style="fill:#e4472d"></path><rect x="64" y="64" width="32" height="256" style="fill:#e4472d"></rect><rect x="128" y="64" width="32" height="192" style="fill:#e4472d"></rect><rect x="192" y="64" width="32" height="192" style="fill:#e4472d"></rect><rect x="256" y="64" width="32" height="256" style="fill:#e4472d"></rect><rect x="320" y="64" width="32" height="192" style="fill:#e4472d"></rect><rect x="384" y="64" width="32" height="256" style="fill:#e4472d"></rect><rect x="128" y="288" width="32" height="32" style="fill:#e4472d"></rect><rect x="192" y="288" width="32" height="32" style="fill:#e4472d"></rect><rect x="320" y="288" width="32" height="32" style="fill:#e4472d"></rect></g></g></svg> 