<?xml version="1.0" encoding="UTF-8"?> <svg xmlns="http://www.w3.org/2000/svg" viewBox="0 0 298 394.8"><title>Asset 2</title><g id="e5833435-7a06-4375-82f3-e8019dce6da1" data-name="Layer 2"><g id="e95ab541-29a6-45ad-b24f-52a22ce9a31c" data-name="Capa 1"><path d="M297.2,78.8h0l-.4-.4h0V78h0l-76-76-.4-.4h0a.39.39,0,0,1-.4-.4h0a.39.39,0,0,1-.4-.4h0c-1.2-.8-2.4-.8-4-.8H27.2A26.62,26.62,0,0,0,8.4,7.6L8,8A27.94,27.94,0,0,0,0,27.2V367.6a27.2,27.2,0,0,0,8,19.2H8a27.94,27.94,0,0,0,19.2,8H270.8a27.2,27.2,0,0,0,19.2-8,27.94,27.94,0,0,0,8-19.2V82.8a11.83,11.83,0,0,0-.8-4Zm-74-50L268.4,74H235.2a10.89,10.89,0,0,1-8.4-3.6h0a12.47,12.47,0,0,1-3.6-8.4Zm57.6,338.8A11,11,0,0,1,270.4,378H27.2a11.5,11.5,0,0,1-7.2-2.8h0a9.64,9.64,0,0,1-2.8-7.2V26.8a10,10,0,0,1,3.2-7.2l.4-.4a11.35,11.35,0,0,1,6.8-2.8H206.8V61.6a29,29,0,0,0,8.8,20.8h0a29.66,29.66,0,0,0,20.8,8.4h44.4Z" style="fill:#e4472d"></path><path d="M35.26,64.17a9.78,9.78,0,0,1,10-9.48h55.81a9.49,9.49,0,1,1,0,19H45.27A9.78,9.78,0,0,1,35.26,64.17Z" style="fill:#e4472d"></path><path d="M35.26,121.53a9.78,9.78,0,0,1,10-9.48H176.91a9.78,9.78,0,0,1,10,9.48c0,5.21-4.51,9.48-10,9.48H45.27A9.78,9.78,0,0,1,35.26,121.53Z" style="fill:#e4472d"></path><path d="M205.87,121.53a9.78,9.78,0,0,1,10-9.48h36.85a9.49,9.49,0,1,1,0,19H215.88A9.78,9.78,0,0,1,205.87,121.53Z" style="fill:#e4472d"></path><path d="M35.26,178.4a9.78,9.78,0,0,1,10-9.48H252.73a9.49,9.49,0,1,1,0,19H45.27A9.78,9.78,0,0,1,35.26,178.4Z" style="fill:#e4472d"></path><path d="M35.26,292.14a9.78,9.78,0,0,1,10-9.48H252.73a9.49,9.49,0,1,1,0,19H45.27A9.78,9.78,0,0,1,35.26,292.14Z" style="fill:#e4472d"></path><path d="M120.56,235.27c0-5.21,4.51-9.47,10-9.47H252.73a9.49,9.49,0,1,1,0,18.95H130.57C125.07,244.75,120.56,240.48,120.56,235.27Z" style="fill:#e4472d"></path><path d="M35.26,235.27a9.78,9.78,0,0,1,10-9.47H91.6a9.49,9.49,0,1,1,0,18.95H45.27A9.78,9.78,0,0,1,35.26,235.27Z" style="fill:#e4472d"></path><path d="M35.26,349a9.78,9.78,0,0,1,10-9.48H63.16a9.49,9.49,0,1,1,0,18.95H45.27A9.78,9.78,0,0,1,35.26,349Z" style="fill:#e4472d"></path><path d="M92.13,349a9.78,9.78,0,0,1,10-9.48H252.73a9.49,9.49,0,1,1,0,18.95H102.14A9.78,9.78,0,0,1,92.13,349Z" style="fill:#e4472d"></path></g></g></svg> 