<?xml version="1.0" encoding="UTF-8"?> <!-- Generator: Adobe Illustrator 23.0.6, SVG Export Plug-In . SVG Version: 6.00 Build 0) --> <svg xmlns="http://www.w3.org/2000/svg" xmlns:xlink="http://www.w3.org/1999/xlink" id="Layer_1" x="0px" y="0px" viewBox="0 0 756 387" style="enable-background:new 0 0 756 387;" xml:space="preserve"> <style type="text/css"> .st0{fill:none;stroke:#5D5954;stroke-width:2;stroke-miterlimit:10;} .st1{fill:none;stroke:#E43A20;stroke-width:2;stroke-miterlimit:10;} .st2{font-family:'OpenSans-LightItalic';} .st3{font-size:21.8664px;} .st4{fill:#E43A20;} .st5{font-family:'OpenSans-SemiBold';} .st6{font-size:12px;} .st7{font-family:'MyriadPro-Regular';} .st8{clip-path:url(#SVGID_2_);fill:#231F20;} .st9{clip-path:url(#SVGID_2_);fill:#95B8AC;} .st10{clip-path:url(#SVGID_2_);fill:#36414F;} .st11{clip-path:url(#SVGID_2_);fill:#5D5954;} .st12{clip-path:url(#SVGID_2_);fill:#E43A20;} .st13{fill:none;stroke:#C1C1C1;stroke-width:10;stroke-miterlimit:10;} .st14{fill:#C1C1C1;} .st15{clip-path:url(#SVGID_4_);fill:#36414F;} .st16{clip-path:url(#SVGID_4_);fill:#E43A20;} .st17{clip-path:url(#SVGID_6_);fill:#95B8AC;} .st18{clip-path:url(#SVGID_6_);fill:none;stroke:#FFFFFF;stroke-width:3.5;stroke-linecap:round;stroke-miterlimit:10;} .st19{clip-path:url(#SVGID_8_);fill:#36414F;} .st20{clip-path:url(#SVGID_8_);fill:none;stroke:#FFFFFF;stroke-width:2.04;stroke-linecap:round;stroke-miterlimit:10;} .st21{clip-path:url(#SVGID_8_);fill:#FFFFFF;} .st22{clip-path:url(#SVGID_10_);fill:#36414F;} .st23{clip-path:url(#SVGID_10_);fill:none;stroke:#FFFFFF;stroke-width:2;stroke-miterlimit:10;} .st24{clip-path:url(#SVGID_12_);fill:#95B8AC;} .st25{clip-path:url(#SVGID_12_);fill:#FFFFFF;} .st26{fill:#95B8AC;} .st27{clip-path:url(#SVGID_14_);fill:#95B8AC;} .st28{clip-path:url(#SVGID_16_);fill:#95B8AC;} .st29{clip-path:url(#SVGID_16_);fill:none;stroke:#95B8AC;stroke-width:1.75;stroke-miterlimit:10;} </style> <polyline class="st0" points="150.27,245.75 150.27,331.19 571.04,331.19 571.04,245.75 "></polyline> <polyline class="st1" points="642.84,364.16 710.26,364.16 710.26,32.17 642.84,32.17 "></polyline> <text transform="matrix(1 0 0 1 201.7715 353.8428)" class="st2 st3">Index &amp; Document Filing Workﬂow</text> <text transform="matrix(-6.123234e-17 -1 1 -6.123234e-17 732.665 323.4678)" class="st4 st2 st3">Orders &amp; Tasking Workﬂow</text> <text transform="matrix(1 0 0 1 35.4541 258.8857)" class="st5 st6">Send Unﬁled </text> <text transform="matrix(1 0 0 1 37.5059 275.8896)" class="st5 st6">Information </text> <text transform="matrix(1 0 0 1 32.1182 292.8936)" class="st5 st6">from HIM and </text> <text transform="matrix(1 0 0 1 53.7783 309.8975)" class="st5 st6">Clinics</text> <text transform="matrix(1 0 0 1 190.1221 258.8975)" class="st5 st6">SmartFiler </text> <text transform="matrix(1 0 0 1 174.6782 275.9014)" class="st5 st6">Document Data </text> <text transform="matrix(1 0 0 1 196.5063 292.9053)" class="st5 st6">Analysis</text> <text transform="matrix(1 0 0 1 297.5103 258.9102)" class="st5 st6">Client Pre-Conﬁgured </text> <text transform="matrix(1 0 0 1 297.9062 275.9141)" class="st5 st6">Filing Rules and Logic </text> <text transform="matrix(1 0 0 1 337.5781 292.918)" class="st5 st6">Applied</text> <text transform="matrix(1 0 0 1 470.6221 258.9219)" class="st5 st6">SmartFiler </text> <text transform="matrix(1 0 0 1 469.6143 275.9258)" class="st7 st6">Technician </text> <text transform="matrix(1 0 0 1 471.3779 292.9297)" class="st5 st6">Validation</text> <g> <defs> <rect id="SVGID_1_" x="163.73" y="49.87" width="370.93" height="81.53"></rect> </defs> <clipPath id="SVGID_2_"> <use xlink:href="#SVGID_1_" style="overflow:visible;"></use> </clipPath> <path class="st8" d="M306.98,119.85v-7.02h3.53c0.38,0,0.73,0.07,1.05,0.2c0.32,0.13,0.6,0.3,0.82,0.52 c0.23,0.21,0.41,0.46,0.54,0.73c0.13,0.27,0.19,0.55,0.19,0.84c0,0.3-0.06,0.58-0.18,0.85c-0.12,0.27-0.29,0.52-0.52,0.73 c-0.22,0.21-0.49,0.38-0.8,0.51c-0.31,0.13-0.66,0.19-1.04,0.19h-2.28v2.44H306.98z M308.31,116.43h2.19c0.19,0,0.36-0.03,0.52-0.1 c0.15-0.07,0.29-0.16,0.4-0.28c0.11-0.12,0.2-0.26,0.26-0.42c0.06-0.16,0.09-0.33,0.09-0.52c0-0.2-0.04-0.38-0.11-0.53 c-0.07-0.16-0.17-0.3-0.3-0.41c-0.13-0.12-0.27-0.2-0.43-0.27c-0.16-0.06-0.33-0.09-0.5-0.09h-2.12V116.43z"></path> <path class="st8" d="M317.87,119.9c-0.59,0-1.13-0.1-1.62-0.3c-0.49-0.2-0.9-0.47-1.26-0.8c-0.35-0.33-0.62-0.71-0.81-1.14 c-0.19-0.43-0.29-0.87-0.29-1.31c0-0.47,0.1-0.92,0.3-1.34c0.2-0.43,0.48-0.81,0.84-1.14c0.36-0.33,0.78-0.59,1.27-0.79 c0.49-0.19,1.02-0.29,1.6-0.29c0.59,0,1.13,0.1,1.62,0.31c0.49,0.21,0.9,0.48,1.25,0.81c0.35,0.34,0.62,0.72,0.81,1.14 c0.19,0.42,0.29,0.86,0.29,1.3c0,0.47-0.1,0.92-0.3,1.34c-0.2,0.43-0.48,0.81-0.84,1.13c-0.36,0.33-0.78,0.59-1.26,0.78 C318.98,119.8,318.45,119.9,317.87,119.9 M315.25,116.34c0,0.33,0.06,0.65,0.18,0.96c0.12,0.31,0.3,0.58,0.53,0.82 c0.23,0.24,0.51,0.43,0.83,0.57c0.32,0.14,0.69,0.21,1.09,0.21c0.41,0,0.78-0.08,1.11-0.22c0.33-0.15,0.6-0.34,0.83-0.59 c0.22-0.24,0.4-0.52,0.51-0.82c0.12-0.3,0.18-0.61,0.18-0.93c0-0.34-0.06-0.66-0.19-0.96c-0.13-0.31-0.3-0.58-0.53-0.81 c-0.23-0.23-0.51-0.42-0.83-0.56c-0.32-0.14-0.68-0.21-1.08-0.21c-0.41,0-0.78,0.08-1.11,0.22c-0.33,0.15-0.6,0.34-0.83,0.58 c-0.22,0.24-0.4,0.51-0.52,0.82C315.31,115.71,315.25,116.03,315.25,116.34"></path> <polygon class="st8" points="325.99,112.86 327.24,112.86 328.27,115.24 329.31,112.86 330.57,112.86 329.12,115.99 330.39,118.56 333.01,112.83 334.46,112.83 331,119.85 329.85,119.85 328.28,116.71 326.7,119.85 325.57,119.85 322.1,112.83 323.54,112.83 326.18,118.56 327.43,115.99 "></polygon> <polygon class="st8" points="341.29,118.87 341.29,119.85 335.51,119.85 335.51,112.83 341.18,112.83 341.18,113.81 336.84,113.81 336.84,115.81 340.6,115.81 340.6,116.73 336.84,116.73 336.84,118.87 "></polygon> <path class="st8" d="M342.77,119.85v-7.02h3.66c0.38,0,0.73,0.07,1.05,0.2c0.32,0.13,0.59,0.3,0.82,0.52s0.41,0.46,0.54,0.73 c0.13,0.27,0.19,0.55,0.19,0.84c0,0.24-0.04,0.46-0.12,0.68c-0.08,0.22-0.19,0.42-0.33,0.6c-0.14,0.18-0.32,0.34-0.52,0.48 c-0.21,0.13-0.43,0.24-0.68,0.3l2,2.67h-1.51l-1.85-2.44h-1.94v2.44H342.77z M344.1,116.43h2.32c0.19,0,0.36-0.03,0.52-0.1 c0.15-0.07,0.29-0.17,0.4-0.29c0.11-0.12,0.2-0.26,0.26-0.42c0.06-0.16,0.1-0.33,0.1-0.5c0-0.18-0.04-0.35-0.11-0.5 c-0.07-0.16-0.17-0.3-0.3-0.42c-0.12-0.12-0.27-0.21-0.43-0.28c-0.16-0.07-0.33-0.1-0.5-0.1h-2.25V116.43z"></path> <polygon class="st8" points="356.54,118.87 356.54,119.85 350.76,119.85 350.76,112.83 356.43,112.83 356.43,113.81 352.09,113.81 352.09,115.81 355.85,115.81 355.85,116.73 352.09,116.73 352.09,118.87 "></polygon> <path class="st8" d="M358.02,119.85v-7.02h2.99c0.68,0,1.27,0.09,1.78,0.28c0.51,0.18,0.94,0.43,1.28,0.75 c0.35,0.32,0.6,0.69,0.78,1.11c0.18,0.42,0.26,0.88,0.26,1.36c0,0.53-0.1,1.02-0.29,1.45c-0.19,0.43-0.47,0.8-0.82,1.11 c-0.36,0.31-0.79,0.54-1.29,0.71c-0.51,0.17-1.07,0.25-1.7,0.25H358.02z M363.76,116.33c0-0.37-0.06-0.71-0.18-1.02 c-0.12-0.31-0.3-0.58-0.54-0.8c-0.24-0.22-0.52-0.39-0.87-0.52c-0.34-0.12-0.73-0.19-1.16-0.19h-1.66v5.06h1.66 c0.44,0,0.84-0.06,1.18-0.19c0.34-0.13,0.63-0.31,0.86-0.53c0.23-0.23,0.41-0.5,0.53-0.81 C363.7,117.03,363.76,116.69,363.76,116.33"></path> <path class="st8" d="M376.17,118.04c0,0.28-0.07,0.54-0.21,0.76c-0.14,0.22-0.32,0.41-0.56,0.57c-0.23,0.15-0.51,0.27-0.82,0.36 c-0.32,0.08-0.65,0.12-1.01,0.12h-4.02v-7.02h4.34c0.29,0,0.56,0.05,0.79,0.16c0.24,0.1,0.44,0.24,0.61,0.41 c0.16,0.17,0.29,0.36,0.39,0.57c0.09,0.21,0.14,0.43,0.14,0.65c0,0.34-0.11,0.66-0.31,0.96c-0.21,0.3-0.51,0.52-0.9,0.67 c0.48,0.12,0.86,0.33,1.14,0.65C376.03,117.21,376.17,117.59,376.17,118.04 M370.88,113.79v2.07h2.44c0.17,0,0.32-0.02,0.46-0.08 c0.14-0.05,0.26-0.12,0.37-0.21c0.11-0.09,0.19-0.2,0.25-0.32c0.06-0.13,0.09-0.27,0.09-0.42c0-0.3-0.1-0.55-0.31-0.75 c-0.2-0.19-0.47-0.29-0.78-0.29H370.88z M374.81,117.83c0-0.14-0.03-0.28-0.09-0.41c-0.06-0.13-0.14-0.25-0.24-0.35 s-0.22-0.18-0.36-0.24c-0.14-0.06-0.3-0.09-0.46-0.09h-2.78v2.14h2.69c0.17,0,0.34-0.03,0.49-0.08c0.15-0.06,0.28-0.13,0.39-0.23 c0.11-0.1,0.2-0.21,0.26-0.34C374.78,118.11,374.81,117.98,374.81,117.83"></path> <polygon class="st8" points="377.8,112.83 380.13,116.35 382.48,112.83 383.93,112.83 380.8,117.34 380.8,119.85 379.46,119.85 379.46,117.32 376.34,112.83 "></polygon> <polygon class="st9" points="484.91,106.25 484.42,106.25 484.42,106.15 485.51,106.15 485.51,106.25 485.02,106.25 485.02,107.56 484.91,107.56 "></polygon> <polygon class="st9" points="485.83,106.15 485.93,106.15 486.5,106.99 487.06,106.15 487.16,106.15 487.16,107.56 487.06,107.56 487.06,106.34 486.5,107.15 486.49,107.15 485.93,106.34 485.93,107.56 485.83,107.56 "></polygon> <path class="st9" d="M388.29,118.77l0.48-0.52c1.56,1.47,3.28,2.23,5.42,2.23c2.54,0,4.2-1.39,4.2-3.24v-0.04 c0-1.72-0.99-2.65-4.54-3.38c-3.59-0.71-5-1.85-5-3.97v-0.04c0-2.1,2-3.8,4.77-3.8c2.02,0,3.61,0.63,5,1.72l-0.44,0.57 c-1.35-1.07-2.88-1.64-4.6-1.64c-2.41,0-4.01,1.45-4.01,3.09v0.04c0,1.7,0.99,2.65,4.56,3.38c3.65,0.74,4.98,1.91,4.98,3.97v0.04 c0,2.27-1.95,3.95-4.96,3.95C391.87,121.12,389.95,120.3,388.29,118.77"></path> <path class="st9" d="M401.13,110.33h0.67v2.37c0.46-1.24,1.72-2.63,3.61-2.63c2.12,0,3.28,1.28,3.74,2.79 c0.52-1.39,1.87-2.79,3.8-2.79c2.42,0,4.01,1.64,4.01,4.52v6.32h-0.67v-6.26c0-2.56-1.34-3.95-3.38-3.95 c-1.81,0-3.53,1.64-3.53,4.03v6.18h-0.67v-6.28c0-2.52-1.36-3.93-3.36-3.93c-1.85,0-3.55,1.77-3.55,4.06v6.15h-0.67V110.33z"></path> <path class="st9" d="M418.52,117.93v-0.04c0-2.21,2-3.4,4.68-3.4c1.47,0,2.75,0.25,3.78,0.59v-0.71c0-2.4-1.43-3.57-3.78-3.57 c-1.3,0-2.39,0.36-3.44,0.88l-0.25-0.59c1.18-0.57,2.33-0.92,3.74-0.92c1.45,0,2.58,0.38,3.36,1.16c0.67,0.69,1.05,1.7,1.05,3v6.6 h-0.67v-2.21c-0.55,1.15-2.02,2.46-4.45,2.46C420.5,121.17,418.52,120.07,418.52,117.93 M427.01,117.01v-1.3 c-1.03-0.33-2.25-0.59-3.82-0.59c-2.33,0-3.95,0.99-3.95,2.73v0.04c0,1.74,1.58,2.65,3.34,2.65 C425.14,120.54,427.01,118.9,427.01,117.01"></path> <path class="st9" d="M430.01,110.33h0.67v3.24c0.63-1.81,2.25-3.51,4.5-3.44v0.69h-0.1c-2.56,0-4.39,2.48-4.39,5.08v5.02h-0.67 V110.33z"></path> <path class="st9" d="M438.16,118.2v-7.27h-1.62v-0.61h1.62v-3.55h0.67v3.55h3.85v0.61h-3.85v7.21c0,1.55,0.82,2.33,2.21,2.33 c0.53,0,1.05-0.13,1.6-0.38v0.65c-0.52,0.25-1.07,0.36-1.66,0.36C439.28,121.1,438.16,120.12,438.16,118.2"></path> <polygon class="st9" points="445.22,106.21 455.47,106.21 455.47,106.86 445.94,106.86 445.94,113.37 454.55,113.37 454.55,114.02 445.94,114.02 445.94,120.91 445.22,120.91 "></polygon> <path class="st9" d="M458.06,106.12h0.9v1.28h-0.9V106.12z M458.16,110.33h0.69v10.59h-0.69V110.33z"></path> <rect x="462.34" y="105.58" class="st9" width="0.69" height="15.34"></rect> <path class="st9" d="M466,115.62v-0.04c0-3.11,2.14-5.5,5.06-5.5c3.19,0,4.85,2.73,4.85,5.57v0.23h-9.18 c0.13,2.88,2.16,4.66,4.54,4.66c1.64,0,2.96-0.86,3.8-1.95l0.5,0.4c-0.96,1.26-2.39,2.18-4.33,2.18 C468.39,121.17,466,119,466,115.62 M475.18,115.26c-0.11-2.31-1.51-4.56-4.16-4.56c-2.4,0-4.16,1.96-4.29,4.56H475.18z"></path> <path class="st9" d="M478.31,110.33h0.67v3.24c0.63-1.81,2.25-3.51,4.5-3.44v0.69h-0.11c-2.56,0-4.39,2.48-4.39,5.08v5.02h-0.67 V110.33z"></path> <rect x="213.57" y="58.58" class="st10" width="4.3" height="44.21"></rect> <path class="st10" d="M253.79,102.79h-4.24V84.64c0-3.87-0.56-6.67-1.68-8.42c-1.12-1.75-2.87-2.62-5.24-2.62 c-1.25,0-2.49,0.23-3.74,0.68c-1.25,0.46-2.41,1.1-3.49,1.93c-1.08,0.83-2.03,1.82-2.84,2.96c-0.81,1.14-1.42,2.38-1.84,3.71v19.89 h-4.24V70.3h3.87v7.36c0.67-1.16,1.49-2.23,2.46-3.21c0.98-0.98,2.07-1.82,3.27-2.53c1.21-0.7,2.48-1.25,3.84-1.62 c1.35-0.37,2.75-0.56,4.21-0.56c1.83,0,3.36,0.33,4.58,1c1.22,0.67,2.21,1.6,2.96,2.81c0.75,1.21,1.29,2.68,1.62,4.43 c0.33,1.75,0.5,3.68,0.5,5.8V102.79z"></path> <path class="st10" d="M276.49,101.23c-0.25,0.12-0.61,0.29-1.09,0.5c-0.48,0.21-1.03,0.42-1.65,0.62c-0.62,0.21-1.33,0.4-2.12,0.56 c-0.79,0.17-1.62,0.25-2.49,0.25c-0.92,0-1.79-0.12-2.62-0.37c-0.83-0.25-1.56-0.63-2.18-1.15c-0.62-0.52-1.12-1.17-1.49-1.96 c-0.38-0.79-0.56-1.7-0.56-2.74V73.67h-4.49V70.3h4.49V59.32h4.24V70.3h7.48v3.37h-7.48v22.08c0.08,1.21,0.5,2.09,1.25,2.65 c0.75,0.56,1.64,0.84,2.68,0.84c1.2,0,2.26-0.2,3.18-0.59c0.91-0.4,1.5-0.68,1.75-0.84L276.49,101.23z"></path> <path class="st10" d="M294.45,103.41c-2.37,0-4.55-0.45-6.55-1.34c-2-0.89-3.72-2.12-5.18-3.68c-1.46-1.56-2.59-3.36-3.4-5.39 c-0.81-2.04-1.21-4.22-1.21-6.55c0-2.29,0.41-4.44,1.21-6.45c0.81-2.02,1.94-3.78,3.4-5.3c1.46-1.52,3.17-2.72,5.14-3.62 c1.98-0.89,4.15-1.34,6.52-1.34c2.37,0,4.54,0.45,6.52,1.34c1.97,0.89,3.67,2.11,5.08,3.65c1.41,1.54,2.52,3.31,3.31,5.3 c0.79,2,1.18,4.11,1.18,6.36c0,0.33-0.01,0.67-0.03,1c-0.02,0.33-0.05,0.56-0.09,0.69H282.6c0.12,1.75,0.53,3.36,1.22,4.83 c0.69,1.48,1.56,2.76,2.62,3.84c1.06,1.08,2.28,1.92,3.68,2.53c1.39,0.6,2.88,0.9,4.46,0.9c1.08,0,2.14-0.15,3.18-0.44 c1.04-0.29,2-0.69,2.87-1.19c0.87-0.5,1.65-1.11,2.34-1.84c0.68-0.73,1.21-1.53,1.59-2.4l3.68,1c-0.5,1.21-1.21,2.3-2.12,3.27 c-0.92,0.98-1.98,1.83-3.18,2.56c-1.21,0.73-2.54,1.29-3.99,1.68C297.48,103.22,295.99,103.41,294.45,103.41 M306.42,84.83 c-0.12-1.75-0.53-3.34-1.22-4.77c-0.69-1.43-1.56-2.67-2.62-3.71c-1.06-1.04-2.3-1.85-3.71-2.43c-1.41-0.58-2.91-0.87-4.49-0.87 c-1.58,0-3.08,0.29-4.49,0.87c-1.41,0.58-2.65,1.39-3.71,2.43c-1.06,1.04-1.91,2.29-2.56,3.74c-0.65,1.45-1.03,3.04-1.15,4.74 H306.42z"></path> <path class="st10" d="M315.78,57.27h4.24v38.17c0,1.21,0.33,2.15,1,2.84c0.67,0.68,1.6,1.03,2.81,1.03c0.46,0,1-0.06,1.62-0.19 c0.62-0.12,1.2-0.29,1.75-0.5l0.75,3.43c-0.79,0.33-1.76,0.6-2.9,0.81c-1.14,0.21-2.13,0.31-2.96,0.31c-1.95,0-3.49-0.55-4.61-1.65 c-1.12-1.1-1.68-2.65-1.68-4.65V57.27z"></path> <path class="st11" d="M345.15,103.42c-2.54,0-4.84-0.45-6.92-1.34c-2.08-0.89-3.86-2.11-5.33-3.65c-1.48-1.54-2.62-3.32-3.43-5.36 c-0.81-2.04-1.22-4.2-1.22-6.49c0-2.29,0.4-4.46,1.22-6.52c0.81-2.06,1.95-3.87,3.43-5.42c1.48-1.56,3.25-2.79,5.33-3.68 c2.08-0.89,4.41-1.34,6.98-1.34c2.54,0,4.83,0.46,6.89,1.37c2.06,0.92,3.81,2.13,5.27,3.65c1.45,1.52,2.57,3.29,3.34,5.3 c0.77,2.02,1.15,4.12,1.15,6.33c0,0.5-0.02,0.97-0.06,1.4c-0.04,0.44-0.09,0.8-0.12,1.09h-26.13c0.12,1.46,0.47,2.77,1.03,3.93 c0.56,1.16,1.29,2.17,2.18,3.02c0.89,0.85,1.91,1.51,3.05,1.96c1.14,0.46,2.34,0.69,3.59,0.69c0.91,0,1.82-0.11,2.71-0.34 c0.89-0.23,1.71-0.56,2.46-1c0.75-0.44,1.41-0.97,1.99-1.59c0.58-0.62,1.04-1.31,1.37-2.06l5.86,1.68 c-1.12,2.45-2.98,4.46-5.58,6.02C351.62,102.64,348.6,103.42,345.15,103.42 M355.06,84.02c-0.12-1.37-0.47-2.64-1.03-3.8 c-0.56-1.16-1.28-2.15-2.15-2.96c-0.87-0.81-1.89-1.44-3.05-1.9c-1.16-0.46-2.39-0.69-3.68-0.69c-1.29,0-2.5,0.23-3.65,0.69 c-1.14,0.46-2.15,1.09-3.02,1.9c-0.87,0.81-1.58,1.8-2.12,2.96c-0.54,1.16-0.87,2.43-1,3.8H355.06z"></path> <polygon class="st12" points="369.23,102.69 369.23,58.8 398.72,58.8 398.72,66.28 377.76,66.28 377.76,77.59 395.19,77.59 395.19,84.51 377.76,84.51 377.76,102.69 "></polygon> <path class="st12" d="M403.65,57.57h8.29v8.22h-8.29V57.57z M403.65,70.29h8.29v32.39h-8.29V70.29z"></path> <path class="st12" d="M419.23,57.57h8.28v34.37c0,2.51,1.13,3.77,3.4,3.77c0.45,0,0.98-0.08,1.58-0.24 c0.59-0.17,1.16-0.35,1.7-0.56l1.11,6.62c-1.11,0.53-2.41,0.95-3.9,1.24c-1.48,0.29-2.82,0.43-4.02,0.43c-2.6,0-4.6-0.69-6.03-2.07 c-1.42-1.38-2.13-3.35-2.13-5.9V57.57z"></path> <path class="st12" d="M453.97,103.3c-2.6,0-4.95-0.44-7.05-1.33c-2.1-0.89-3.89-2.09-5.38-3.61c-1.48-1.53-2.63-3.3-3.43-5.32 c-0.8-2.01-1.21-4.14-1.21-6.36c0-2.31,0.39-4.48,1.18-6.53c0.78-2.03,1.91-3.83,3.4-5.37c1.49-1.55,3.29-2.78,5.41-3.68 c2.12-0.9,4.5-1.36,7.14-1.36c2.63,0,4.99,0.45,7.08,1.36c2.08,0.9,3.85,2.12,5.32,3.65c1.46,1.52,2.57,3.3,3.33,5.31 c0.76,2.02,1.14,4.12,1.14,6.31c0,0.53-0.01,1.05-0.03,1.54c-0.02,0.5-0.07,0.91-0.15,1.24h-25.03c0.12,1.28,0.43,2.41,0.92,3.4 c0.5,0.99,1.13,1.84,1.92,2.54c0.79,0.7,1.67,1.24,2.66,1.61c0.98,0.37,2.02,0.55,3.09,0.55c1.65,0,3.2-0.4,4.67-1.21 c1.46-0.8,2.46-1.86,3-3.18l7.11,1.98c-1.2,2.47-3.1,4.5-5.72,6.09C460.71,102.51,457.59,103.3,453.97,103.3 M462.37,83.77 c-0.21-2.43-1.11-4.38-2.69-5.84c-1.58-1.46-3.51-2.19-5.78-2.19c-1.11,0-2.15,0.2-3.12,0.58c-0.97,0.39-1.82,0.94-2.57,1.64 c-0.74,0.71-1.35,1.55-1.82,2.54c-0.48,0.98-0.75,2.08-0.84,3.27H462.37z"></path> <path class="st12" d="M495.25,77.47c-2.51,0.04-4.76,0.52-6.74,1.45c-1.98,0.92-3.4,2.32-4.26,4.17v19.6h-8.28V70.29h7.6v6.92 c1.11-2.22,2.57-4.02,4.36-5.38c1.79-1.36,3.68-2.04,5.65-2.04c0.45,0,0.8,0.01,1.02,0.03c0.23,0.02,0.44,0.06,0.65,0.1V77.47z"></path> </g> <line class="st13" x1="128.72" y1="197.53" x2="163.08" y2="197.53"></line> <polygon class="st14" points="161.13,182.95 161.13,212.11 175.7,197.53 "></polygon> <line class="st13" x1="264.4" y1="197.53" x2="298.76" y2="197.53"></line> <polygon class="st14" points="296.81,182.95 296.81,212.11 311.38,197.53 "></polygon> <line class="st13" x1="406.82" y1="197.53" x2="441.17" y2="197.53"></line> <polygon class="st14" points="439.22,182.95 439.22,212.11 453.79,197.53 "></polygon> <line class="st13" x1="548.66" y1="197.53" x2="583.02" y2="197.53"></line> <polygon class="st14" points="581.06,182.95 581.06,212.11 595.64,197.53 "></polygon> <line class="st13" x1="643.5" y1="154.53" x2="643.5" y2="139.9"></line> <polygon class="st14" points="628.93,141.85 658.08,141.85 643.5,127.28 "></polygon> <line class="st13" x1="643.5" y1="240.32" x2="643.5" y2="254.95"></line> <polygon class="st14" points="658.08,253 628.93,253 643.5,267.57 "></polygon> <g> <defs> <rect id="SVGID_3_" width="756" height="387"></rect> </defs> <clipPath id="SVGID_4_"> <use xlink:href="#SVGID_3_" style="overflow:visible;"></use> </clipPath> <path class="st15" d="M643.64,154.53c-23.88,0-43.24,19.36-43.24,43.24c0,23.87,19.36,43.23,43.24,43.23 c23.87,0,43.23-19.36,43.23-43.23C686.87,173.89,667.51,154.53,643.64,154.53 M643.64,233.22c-19.58,0-35.46-15.87-35.46-35.45 s15.88-35.46,35.46-35.46c19.58,0,35.45,15.88,35.45,35.46S663.22,233.22,643.64,233.22"></path> <rect x="616.04" y="193.11" class="st15" width="0.88" height="9.07"></rect> <path class="st15" d="M624.29,202.18h-0.87v-3.72c0-0.79-0.11-1.37-0.35-1.73c-0.23-0.36-0.59-0.54-1.08-0.54 c-0.26,0-0.51,0.05-0.77,0.14c-0.26,0.1-0.49,0.23-0.71,0.4c-0.22,0.17-0.42,0.37-0.58,0.61c-0.17,0.24-0.29,0.49-0.38,0.76v4.08 h-0.87v-6.66h0.79v1.51c0.14-0.24,0.31-0.46,0.51-0.66c0.2-0.2,0.42-0.37,0.67-0.52c0.25-0.15,0.51-0.26,0.79-0.33 c0.28-0.08,0.57-0.12,0.86-0.12c0.38,0,0.69,0.07,0.94,0.21c0.25,0.14,0.45,0.33,0.61,0.57c0.15,0.25,0.27,0.55,0.33,0.91 c0.07,0.36,0.1,0.76,0.1,1.19V202.18z"></path> <path class="st15" d="M628.95,201.86c-0.05,0.03-0.13,0.06-0.22,0.1c-0.1,0.04-0.21,0.08-0.34,0.13c-0.13,0.04-0.27,0.08-0.44,0.12 c-0.16,0.03-0.33,0.05-0.51,0.05c-0.19,0-0.37-0.03-0.54-0.08c-0.17-0.05-0.32-0.13-0.45-0.24c-0.13-0.11-0.23-0.24-0.31-0.4 c-0.08-0.16-0.12-0.35-0.12-0.56v-4.77h-0.92v-0.69h0.92v-2.25h0.87v2.25h1.54v0.69h-1.54v4.53c0.02,0.25,0.1,0.43,0.26,0.54 c0.15,0.11,0.34,0.17,0.55,0.17c0.25,0,0.47-0.04,0.65-0.12c0.19-0.08,0.31-0.14,0.36-0.17L628.95,201.86z"></path> <path class="st15" d="M632.64,202.31c-0.49,0-0.93-0.09-1.34-0.28s-0.76-0.43-1.06-0.75c-0.3-0.32-0.53-0.69-0.7-1.11 s-0.25-0.87-0.25-1.34c0-0.47,0.08-0.91,0.25-1.32c0.17-0.41,0.4-0.78,0.7-1.09c0.3-0.31,0.65-0.56,1.05-0.74 c0.41-0.18,0.85-0.28,1.34-0.28c0.49,0,0.93,0.09,1.34,0.28c0.4,0.18,0.75,0.43,1.04,0.75c0.29,0.32,0.52,0.68,0.68,1.09 c0.16,0.41,0.24,0.84,0.24,1.3c0,0.07,0,0.14-0.01,0.21c-0.01,0.07-0.01,0.12-0.02,0.14h-5.69c0.03,0.36,0.11,0.69,0.25,0.99 c0.14,0.3,0.32,0.57,0.54,0.79c0.22,0.22,0.47,0.4,0.76,0.52c0.29,0.12,0.59,0.18,0.91,0.18c0.22,0,0.44-0.03,0.65-0.09 c0.21-0.06,0.41-0.14,0.59-0.24c0.18-0.1,0.34-0.23,0.48-0.38c0.14-0.15,0.25-0.31,0.33-0.49l0.76,0.2 c-0.1,0.25-0.25,0.47-0.43,0.67c-0.19,0.2-0.41,0.38-0.65,0.52c-0.25,0.15-0.52,0.26-0.82,0.35 C633.26,202.27,632.95,202.31,632.64,202.31 M635.09,198.5c-0.03-0.36-0.11-0.68-0.25-0.98c-0.14-0.29-0.32-0.55-0.54-0.76 c-0.22-0.21-0.47-0.38-0.76-0.5c-0.29-0.12-0.6-0.18-0.92-0.18c-0.32,0-0.63,0.06-0.92,0.18c-0.29,0.12-0.54,0.29-0.76,0.5 c-0.22,0.21-0.39,0.47-0.53,0.77c-0.13,0.3-0.21,0.62-0.24,0.97H635.09z"></path> <path class="st15" d="M637.01,192.84h0.87v7.83c0,0.25,0.07,0.44,0.2,0.58c0.14,0.14,0.33,0.21,0.58,0.21 c0.09,0,0.21-0.01,0.33-0.04c0.13-0.03,0.25-0.06,0.36-0.1l0.15,0.7c-0.16,0.07-0.36,0.12-0.6,0.17c-0.23,0.04-0.44,0.06-0.61,0.06 c-0.4,0-0.72-0.11-0.95-0.34c-0.23-0.23-0.35-0.54-0.35-0.95V192.84z"></path> <path class="st15" d="M643.04,202.31c-0.52,0-0.99-0.09-1.42-0.27s-0.79-0.43-1.09-0.75c-0.3-0.31-0.54-0.68-0.7-1.1 c-0.17-0.42-0.25-0.86-0.25-1.33c0-0.47,0.08-0.91,0.25-1.34c0.17-0.42,0.4-0.79,0.7-1.11c0.3-0.32,0.67-0.57,1.09-0.76 s0.9-0.27,1.43-0.27c0.52,0,0.99,0.09,1.41,0.28c0.42,0.19,0.78,0.44,1.08,0.75c0.3,0.31,0.53,0.67,0.68,1.09 c0.16,0.41,0.24,0.85,0.24,1.3c0,0.1,0,0.2-0.01,0.29c-0.01,0.09-0.02,0.17-0.03,0.23h-5.36c0.03,0.3,0.1,0.57,0.21,0.81 c0.11,0.24,0.27,0.45,0.45,0.62c0.18,0.18,0.39,0.31,0.63,0.4c0.24,0.09,0.48,0.14,0.74,0.14c0.19,0,0.37-0.02,0.56-0.07 s0.35-0.12,0.51-0.2c0.15-0.09,0.29-0.2,0.41-0.33c0.12-0.13,0.21-0.27,0.28-0.42l1.2,0.35c-0.23,0.5-0.61,0.91-1.15,1.23 C644.36,202.15,643.74,202.31,643.04,202.31 M645.07,198.33c-0.03-0.28-0.1-0.54-0.21-0.78c-0.11-0.24-0.26-0.44-0.44-0.61 c-0.18-0.17-0.39-0.3-0.63-0.39c-0.24-0.09-0.49-0.14-0.76-0.14c-0.26,0-0.51,0.05-0.75,0.14c-0.23,0.09-0.44,0.22-0.62,0.39 c-0.18,0.17-0.33,0.37-0.44,0.61c-0.11,0.24-0.18,0.5-0.21,0.78H645.07z"></path> <polygon class="st16" points="647.98,202.16 647.98,193.16 654.03,193.16 654.03,194.69 649.73,194.69 649.73,197.01 653.3,197.01 653.3,198.43 649.73,198.43 649.73,202.16 "></polygon> <path class="st16" d="M655.04,192.9h1.7v1.69h-1.7V192.9z M655.04,195.51h1.7v6.65h-1.7V195.51z"></path> <path class="st16" d="M658.23,192.9h1.7v7.05c0,0.52,0.23,0.77,0.7,0.77c0.09,0,0.2-0.02,0.32-0.05c0.12-0.03,0.24-0.07,0.35-0.11 l0.23,1.36c-0.23,0.11-0.49,0.19-0.8,0.25s-0.58,0.09-0.82,0.09c-0.53,0-0.95-0.14-1.24-0.43c-0.29-0.28-0.44-0.69-0.44-1.21V192.9 z"></path> <path class="st16" d="M665.36,202.28c-0.53,0-1.01-0.09-1.45-0.27c-0.43-0.18-0.8-0.43-1.1-0.74c-0.3-0.31-0.54-0.68-0.71-1.09 c-0.16-0.41-0.25-0.85-0.25-1.3c0-0.47,0.08-0.92,0.24-1.34c0.16-0.42,0.39-0.79,0.7-1.1c0.3-0.32,0.67-0.57,1.11-0.76 c0.43-0.18,0.92-0.28,1.46-0.28c0.54,0,1.02,0.09,1.45,0.28c0.43,0.19,0.79,0.44,1.09,0.75c0.3,0.31,0.53,0.68,0.68,1.09 c0.16,0.41,0.23,0.85,0.23,1.29c0,0.11,0,0.21-0.01,0.32c0,0.1-0.01,0.19-0.03,0.25h-5.14c0.03,0.26,0.09,0.49,0.19,0.7 c0.1,0.2,0.23,0.38,0.39,0.52c0.16,0.15,0.34,0.25,0.55,0.33c0.2,0.08,0.41,0.11,0.63,0.11c0.34,0,0.66-0.08,0.96-0.25 c0.3-0.16,0.5-0.38,0.61-0.65l1.46,0.41c-0.25,0.5-0.64,0.92-1.17,1.25C666.74,202.12,666.1,202.28,665.36,202.28 M667.09,198.28 c-0.04-0.5-0.23-0.9-0.55-1.2c-0.32-0.3-0.72-0.45-1.18-0.45c-0.23,0-0.44,0.04-0.64,0.12c-0.2,0.08-0.37,0.19-0.53,0.34 c-0.15,0.14-0.28,0.32-0.37,0.52c-0.1,0.2-0.16,0.43-0.17,0.67H667.09z"></path> <path class="st16" d="M673.83,196.98c-0.52,0.01-0.98,0.11-1.38,0.3c-0.41,0.19-0.7,0.48-0.88,0.86v4.02h-1.7v-6.64h1.56v1.42 c0.23-0.46,0.53-0.82,0.89-1.1c0.37-0.28,0.76-0.42,1.16-0.42c0.09,0,0.16,0,0.21,0.01c0.05,0,0.09,0.01,0.13,0.02V196.98z"></path> </g> <g> <defs> <rect id="SVGID_5_" width="756" height="387"></rect> </defs> <clipPath id="SVGID_6_"> <use xlink:href="#SVGID_5_" style="overflow:visible;"></use> </clipPath> <path class="st17" d="M543.9,197.77c0,23.88-19.36,43.23-43.23,43.23c-23.88,0-43.23-19.36-43.23-43.23 c0-23.88,19.36-43.23,43.23-43.23C524.54,154.53,543.9,173.89,543.9,197.77"></path> <path class="st18" d="M489.77,207.96c-4.93,0-8.93-4-8.93-8.94c0-4.35,3.11-7.97,7.22-8.77c1.41-5.94,6.74-10.36,13.12-10.36 c6.47,0,11.88,4.57,13.18,10.65c3.57,1.17,6.14,4.53,6.14,8.48c0,4.94-4,8.94-8.94,8.94"></path> <polyline class="st18" points="495.77,207.28 501.03,211.62 509.05,201.23 "></polyline> </g> <g> <defs> <rect id="SVGID_7_" width="756" height="387"></rect> </defs> <clipPath id="SVGID_8_"> <use xlink:href="#SVGID_7_" style="overflow:visible;"></use> </clipPath> <path class="st19" d="M682.54,311.62c0,21.49-17.42,38.91-38.91,38.91c-21.49,0-38.91-17.42-38.91-38.91 c0-21.49,17.42-38.91,38.91-38.91C665.12,272.71,682.54,290.14,682.54,311.62"></path> <polyline class="st20" points="639.76,307.17 642.83,309.7 647.5,303.65 "></polyline> <path class="st21" d="M658.7,294.39h-30.13c-1.48,0-2.68,1.2-2.68,2.68v22.3c0,1.48,1.2,2.68,2.68,2.68h10.17v4.76h-0.04 c-1.13,0-2.04,0.92-2.04,2.05h13.95c0-0.57-0.23-1.08-0.6-1.45s-0.87-0.6-1.44-0.6h-0.04v-4.76h10.17c1.48,0,2.68-1.2,2.68-2.68 v-22.3C661.38,295.59,660.18,294.39,658.7,294.39 M659.62,317.62h-31.98v-21.57h31.98V317.62z"></path> </g> <g> <defs> <rect id="SVGID_9_" width="756" height="387"></rect> </defs> <clipPath id="SVGID_10_"> <use xlink:href="#SVGID_9_" style="overflow:visible;"></use> </clipPath> <path class="st22" d="M682.54,82.9c0,21.49-17.42,38.91-38.91,38.91c-21.49,0-38.91-17.42-38.91-38.91 c0-21.49,17.42-38.91,38.91-38.91C665.12,43.99,682.54,61.41,682.54,82.9"></path> <path class="st23" d="M651.5,66h6.94c1.24,0,2.25,1.01,2.25,2.26v28.51c0,1.25-1.01,2.26-2.25,2.26h-29.62 c-1.25,0-2.26-1.01-2.26-2.26V68.26c0-1.24,1.01-2.26,2.26-2.26h7.02"></path> <path class="st23" d="M651.5,63.11l-5.35-2.02c-1.62-0.61-3.41-0.61-5.04,0.01l-5.27,2.02v7.49h15.66V63.11z"></path> <line class="st23" x1="634.48" y1="78.51" x2="652.53" y2="78.51"></line> <line class="st23" x1="634.48" y1="84.98" x2="652.53" y2="84.98"></line> <line class="st23" x1="634.48" y1="91.45" x2="652.53" y2="91.45"></line> </g> <g> <defs> <rect id="SVGID_11_" width="756" height="387"></rect> </defs> <clipPath id="SVGID_12_"> <use xlink:href="#SVGID_11_" style="overflow:visible;"></use> </clipPath> <path class="st24" d="M259.08,197.77c0,21.49-17.42,38.91-38.91,38.91c-21.49,0-38.91-17.42-38.91-38.91 c0-21.49,17.42-38.91,38.91-38.91C241.66,158.86,259.08,176.28,259.08,197.77"></path> <path class="st25" d="M225.05,174.17c-8.41,0-15.23,6.82-15.23,15.24c0,4.43,1.89,8.42,4.92,11.21l-8.34,12.07 c-0.78,1.14-0.5,2.69,0.64,3.48c0.43,0.3,0.93,0.44,1.42,0.44c0.79,0,1.57-0.38,2.06-1.08l8.41-12.18 c1.87,0.83,3.94,1.29,6.12,1.29c8.41,0,15.24-6.82,15.24-15.23C240.29,180.99,233.46,174.17,225.05,174.17 M225.05,201.9 c-1.74,0-3.4-0.36-4.9-1c-1.34-0.57-2.56-1.37-3.61-2.35c-2.45-2.28-3.98-5.53-3.98-9.14c0-6.9,5.59-12.5,12.49-12.5 c6.9,0,12.49,5.6,12.49,12.5C237.54,196.31,231.95,201.9,225.05,201.9"></path> </g> <polygon class="st26" points="98.81,179.37 92.18,210.42 77.01,203.12 95.97,181.84 71.49,200.46 56.37,193.18 "></polygon> <polygon class="st26" points="80.47,207.18 70.71,213.76 70.71,202.33 "></polygon> <g> <defs> <rect id="SVGID_13_" width="756" height="387"></rect> </defs> <clipPath id="SVGID_14_"> <use xlink:href="#SVGID_13_" style="overflow:visible;"></use> </clipPath> <path class="st27" d="M79.45,154.53c-23.88,0-43.24,19.36-43.24,43.24c0,23.87,19.36,43.23,43.24,43.23 c23.87,0,43.23-19.36,43.23-43.23C122.68,173.89,103.32,154.53,79.45,154.53 M79.45,233.22c-19.58,0-35.46-15.87-35.46-35.45 s15.88-35.46,35.46-35.46s35.45,15.88,35.45,35.46S99.03,233.22,79.45,233.22"></path> </g> <g> <defs> <rect id="SVGID_15_" width="756" height="387"></rect> </defs> <clipPath id="SVGID_16_"> <use xlink:href="#SVGID_15_" style="overflow:visible;"></use> </clipPath> <path class="st28" d="M359.57,190.85c-3.69,0-6.68,2.99-6.68,6.68c0,3.69,2.99,6.68,6.68,6.68c3.69,0,6.69-2.99,6.69-6.68 C366.26,193.84,363.26,190.85,359.57,190.85 M359.57,202.61c-2.8,0-5.07-2.27-5.07-5.08c0-2.8,2.27-5.08,5.07-5.08 c2.81,0,5.08,2.28,5.08,5.08C364.65,200.34,362.38,202.61,359.57,202.61"></path> <path class="st29" d="M378.95,206.13l-2.79,4.83c-0.32,0.55-1.02,0.74-1.57,0.42l-4.46-2.58c-1.86,1.75-4.16,3.04-6.7,3.69v4.46 c0,0.64-0.52,1.15-1.15,1.15h-5.58c-0.63,0-1.14-0.51-1.14-1.15v-4.51c-2.44-0.64-4.64-1.88-6.44-3.55l-4.58,2.65 c-0.55,0.32-1.25,0.13-1.57-0.42l-2.79-4.83c-0.31-0.55-0.12-1.25,0.42-1.57l4.27-2.46c-0.48-1.49-0.74-3.08-0.74-4.73 c0-1.38,0.18-2.73,0.53-4l-4.06-2.34c-0.54-0.31-0.73-1.02-0.42-1.56l2.79-4.83c0.32-0.55,1.02-0.74,1.57-0.42l4.03,2.32 c1.93-1.97,4.38-3.42,7.13-4.12v-3.77c0-0.64,0.52-1.15,1.15-1.15h5.58c0.63,0,1.14,0.51,1.14,1.15v3.8 c2.65,0.7,5.02,2.1,6.91,3.98l4.11-2.37c0.55-0.32,1.25-0.13,1.57,0.42l2.79,4.83c0.31,0.55,0.12,1.25-0.42,1.57l-4.08,2.35 c0.37,1.32,0.57,2.7,0.57,4.14c0,1.61-0.24,3.15-0.69,4.61l4.2,2.42C379.07,204.88,379.26,205.58,378.95,206.13z"></path> <path class="st28" d="M359.95,154.53c-23.88,0-43.24,19.36-43.24,43.24c0,23.87,19.36,43.23,43.24,43.23 c23.87,0,43.23-19.36,43.23-43.23C403.18,173.89,383.82,154.53,359.95,154.53 M359.95,233.22c-19.58,0-35.46-15.87-35.46-35.45 s15.88-35.46,35.46-35.46c19.58,0,35.45,15.88,35.45,35.46S379.53,233.22,359.95,233.22"></path> </g> </svg> 