<?xml version="1.0" encoding="UTF-8"?> <svg xmlns="http://www.w3.org/2000/svg" xmlns:xlink="http://www.w3.org/1999/xlink" width="100px" height="100px" viewBox="0 0 100 100"><!-- Generator: Sketch 61.2 (89653) - https://sketch.com --><title>Keena Icon - Record Release</title><desc>Created with Sketch.</desc><g id="Keena-Icon---Record-Release" stroke="none" stroke-width="1" fill="none" fill-rule="evenodd"><g transform="translate(10.000000, 15.000000)"><path d="M2.94716049,19.2646914 C2.94716049,16.9022222 4.87901235,15.0780247 7.13382716,15.0780247 L39.8765432,15.0780247 C40.5204938,15.0780247 41.1644444,14.5407407 41.1644444,13.7901235 L41.1644444,7.02567901 C41.1644444,4.66419753 43.097284,2.84 45.3520988,2.84 L72.6192593,2.84 C74.9817284,2.84 76.8059259,4.77185185 76.8059259,7.02567901 L76.8059259,65.6419753 L2.94716049,65.6419753 L2.94716049,19.2646914 Z M7.13382716,5.8454321 C3.37679012,5.8454321 0.37037037,8.85185185 0.37037037,12.6088889 L0.37037037,67.0375309 C0.37037037,67.6814815 0.907654321,68.3244444 1.6582716,68.3244444 L78.0948148,68.3244444 C78.7387654,68.3244444 79.382716,67.7881481 79.382716,67.0375309 L79.382716,7.13333333 C79.382716,3.3762963 76.377284,0.370864198 72.6192593,0.370864198 L45.3520988,0.370864198 C41.5940741,0.370864198 38.588642,3.3762963 38.588642,7.13333333 L38.588642,12.6088889 L7.13382716,12.6088889 C5.52296296,12.6088889 4.12740741,13.1451852 2.94716049,14.1111111 L2.94716049,12.6088889 C2.94716049,10.2474074 4.87901235,8.42123457 7.13382716,8.42123457 L34.8306173,8.42123457 C35.4755556,8.42123457 36.1195062,7.88493827 36.1195062,7.13333333 C36.1195062,6.48938272 35.5822222,5.8454321 34.8306173,5.8454321 L7.13382716,5.8454321 Z" id="Fill-1" fill="#ED5E3B"></path><path d="M2.94716049,19.2646914 C2.94716049,16.9022222 4.87901235,15.0780247 7.13382716,15.0780247 L39.8765432,15.0780247 C40.5204938,15.0780247 41.1644444,14.5407407 41.1644444,13.7901235 L41.1644444,7.02567901 C41.1644444,4.66419753 43.097284,2.84 45.3520988,2.84 L72.6192593,2.84 C74.9817284,2.84 76.8059259,4.77185185 76.8059259,7.02567901 L76.8059259,65.6419753 L2.94716049,65.6419753 L2.94716049,19.2646914 Z M7.13382716,5.8454321 C3.37679012,5.8454321 0.37037037,8.85185185 0.37037037,12.6088889 L0.37037037,67.0375309 C0.37037037,67.6814815 0.907654321,68.3244444 1.6582716,68.3244444 L78.0948148,68.3244444 C78.7387654,68.3244444 79.382716,67.7881481 79.382716,67.0375309 L79.382716,7.13333333 C79.382716,3.3762963 76.377284,0.370864198 72.6192593,0.370864198 L45.3520988,0.370864198 C41.5940741,0.370864198 38.588642,3.3762963 38.588642,7.13333333 L38.588642,12.6088889 L7.13382716,12.6088889 C5.52296296,12.6088889 4.12740741,13.1451852 2.94716049,14.1111111 L2.94716049,12.6088889 C2.94716049,10.2474074 4.87901235,8.42123457 7.13382716,8.42123457 L34.8306173,8.42123457 C35.4755556,8.42123457 36.1195062,7.88493827 36.1195062,7.13333333 C36.1195062,6.48938272 35.5822222,5.8454321 34.8306173,5.8454321 L7.13382716,5.8454321 Z" id="Stroke-3" stroke="#ED5E3B" stroke-width="0.75"></path><path d="M39.8761481,26.1354074 C42.9892346,26.1354074 45.4583704,28.6045432 45.4583704,31.7176296 C45.4583704,34.830716 42.9892346,37.2998519 39.8761481,37.2998519 C36.7640494,37.2998519 34.2949136,34.830716 34.2949136,31.7176296 C34.2949136,28.6045432 36.870716,26.1354074 39.8761481,26.1354074 M39.8761481,39.7689877 C44.3847901,39.7689877 48.0351605,36.1186173 48.0351605,31.6099753 C48.0351605,27.1013333 44.3847901,23.450963 39.8761481,23.450963 C35.3684938,23.450963 31.7171358,27.1013333 31.7171358,31.6099753 C31.8257778,36.1186173 35.4751605,39.7689877 39.8761481,39.7689877" id="Fill-5" fill="#ED5E3B"></path><path d="M39.8761481,26.1354074 C42.9892346,26.1354074 45.4583704,28.6045432 45.4583704,31.7176296 C45.4583704,34.830716 42.9892346,37.2998519 39.8761481,37.2998519 C36.7640494,37.2998519 34.2949136,34.830716 34.2949136,31.7176296 C34.2949136,28.6045432 36.870716,26.1354074 39.8761481,26.1354074 Z M39.8761481,39.7689877 C44.3847901,39.7689877 48.0351605,36.1186173 48.0351605,31.6099753 C48.0351605,27.1013333 44.3847901,23.450963 39.8761481,23.450963 C35.3684938,23.450963 31.7171358,27.1013333 31.7171358,31.6099753 C31.8257778,36.1186173 35.4751605,39.7689877 39.8761481,39.7689877 Z" id="Stroke-7" stroke="#ED5E3B" stroke-width="0.75"></path><path d="M28.8190617,54.6915556 C29.4630123,49.1093333 34.186963,44.8150123 39.8758519,44.8150123 C45.5657284,44.8150123 50.289679,49.1093333 50.9346173,54.6915556 L28.8190617,54.6915556 Z M39.8758519,42.3458765 C32.3617778,42.3458765 26.2432593,48.4643951 26.2432593,55.9794568 C26.2432593,56.6234074 26.7795556,57.267358 27.5301728,57.267358 L52.3301728,57.267358 C52.9731358,57.267358 53.6170864,56.7310617 53.6170864,55.9794568 C53.6170864,48.4643951 47.4985679,42.3458765 39.8758519,42.3458765 L39.8758519,42.3458765 Z" id="Fill-9" fill="#ED5E3B"></path><path d="M28.8190617,54.6915556 C29.4630123,49.1093333 34.186963,44.8150123 39.8758519,44.8150123 C45.5657284,44.8150123 50.289679,49.1093333 50.9346173,54.6915556 L28.8190617,54.6915556 Z" id="Stroke-11" stroke="#ED5E3B" stroke-width="0.75"></path><path d="M61.0248889,20.9820247 C60.8105679,21.1973333 60.3819259,21.304 60.1666173,21.304 C59.9513086,21.304 59.5226667,21.1973333 59.307358,20.9820247 C58.8777284,20.5523951 58.8777284,19.8017778 59.307358,19.2644938 L67.358716,11.2131358 L62.5280988,11.2131358 C61.7764938,11.2131358 61.3468642,10.5691852 61.3468642,10.0319012 C61.3468642,9.2802963 61.9918025,8.85165432 62.5280988,8.85165432 L70.2584691,8.85165432 C70.3651358,8.85165432 70.5794568,8.85165432 70.6871111,8.95832099 C70.9014321,9.06597531 71.1167407,9.2802963 71.3320494,9.60325926 C71.438716,9.70992593 71.438716,9.92523457 71.438716,10.0319012 L71.438716,17.761284 C71.438716,18.5128889 70.7947654,18.9425185 70.2584691,18.9425185 C69.6135309,18.9425185 69.0762469,18.2985679 69.0762469,17.761284 L69.0762469,12.9306667 L61.0248889,20.9820247 Z" id="Fill-13" fill="#ED5E3B"></path></g></g></svg> 