<?xml version="1.0" encoding="UTF-8"?> <svg xmlns="http://www.w3.org/2000/svg" xmlns:xlink="http://www.w3.org/1999/xlink" width="100px" height="100px" viewBox="0 0 100 100"><!-- Generator: Sketch 61.2 (89653) - https://sketch.com --><title>Keena Icon - Convert to New System</title><desc>Created with Sketch.</desc><g id="Keena-Icon---Convert-to-New-System" stroke="none" stroke-width="1" fill="none" fill-rule="evenodd"><g transform="translate(16.000000, 10.000000)" fill="#ED5E3B"><path d="M34.5785,50.2236 L31.0785,53.7236 C30.6785,54.1236 30.6785,54.8246 31.0785,55.3246 L34.5785,58.8246 L30.7785,62.6236 L27.2785,59.1236 C26.8785,58.7236 26.1785,58.7236 25.6785,59.1236 L22.1785,62.6236 L18.4785,58.9236 L21.9785,55.4236 C22.3785,55.0236 22.3785,54.3246 21.9785,53.8246 L18.4785,50.3246 L22.1785,46.6236 L25.6785,50.1236 C26.0785,50.5236 26.7785,50.5236 27.2785,50.1236 L30.7785,46.6236 L34.5785,50.2236 Z M29.7785,44.6236 C29.6785,44.6236 29.6785,44.6236 29.7785,44.6236 L26.6785,47.7236 L23.4785,44.6236 C22.8785,44.0236 21.8785,44.0236 21.1785,44.6236 L16.6785,49.1236 C16.0785,49.7236 16.0785,50.7236 16.6785,51.4236 L19.7785,54.5236 L16.6785,57.6236 C16.0785,58.2236 16.0785,59.2236 16.6785,59.9236 L21.1785,64.4236 C21.7785,65.0236 22.7785,65.0236 23.4785,64.4236 L26.5785,61.3246 L29.6785,64.4236 C30.2785,65.0236 31.2785,65.0236 31.9785,64.4236 L36.4785,59.9236 C37.0785,59.3246 37.0785,58.3246 36.4785,57.6236 L33.3785,54.5236 L36.4785,51.4236 C37.0785,50.8246 37.0785,49.8246 36.4785,49.1236 L31.9785,44.6236 C31.3785,43.9236 30.2785,44.0236 29.7785,44.6236 L29.7785,44.6236 Z" id="X"></path><g id="Pages-Group"><path d="M58.3866,65.376 L51.7206,65.376 L51.7206,38.064 L51.7206,37.957 C51.7206,37.85 51.7206,37.742 51.6136,37.634 L51.6136,37.527 C51.5056,37.419 51.5056,37.204 51.2896,37.097 L26.6666,12.473 C26.5586,12.366 26.4516,12.258 26.2366,12.15 L26.1286,12.15 C26.0216,12.15 25.9136,12.043 25.6986,12.043 L25.5916,12.043 L18.9246,12.043 L18.9246,9.677 C18.9246,6.022 21.9356,2.903 25.6986,2.903 L40.5376,2.903 L40.5376,17.85 C40.5376,23.118 44.8386,27.419 50.1076,27.419 L65.0536,27.419 L65.0536,58.494 C65.1606,62.365 62.1506,65.376 58.3866,65.376 L58.3866,65.376 Z M46.7746,36.667 L33.8706,36.667 C30.1076,36.667 27.0966,33.656 27.0966,30 L27.0966,16.989 L46.7746,36.667 Z M48.8176,70.646 C48.8176,74.301 45.8066,77.419 42.1506,77.419 L9.4626,77.419 C5.8066,77.419 2.7956,74.408 2.7956,70.646 L2.7956,21.72 C2.7956,18.064 5.8066,14.946 9.4626,14.946 L24.3016,14.946 L24.3016,29.893 C24.3016,35.161 28.6016,39.462 33.8706,39.462 L48.8176,39.462 L48.8176,70.646 Z M43.4416,4.946 L63.1176,24.624 L50.2146,24.624 C46.4516,24.624 43.4416,21.613 43.4416,17.85 L43.4416,4.946 Z M67.9566,26.022 C67.9566,25.914 67.9566,25.807 67.8496,25.699 L67.8496,25.591 C67.7416,25.484 67.6346,25.269 67.5276,25.161 L43.0106,0.43 C42.9036,0.323 42.7956,0.215 42.5806,0.107 L42.4736,0.107 C42.3656,0.107 42.2576,0 42.0426,0 L41.9356,0 L25.8066,0 C20.5376,0 16.2366,4.301 16.2366,9.57 L16.2366,11.936 L9.5696,11.936 C4.3016,11.936 -0.0004,16.236 -0.0004,21.505 L-0.0004,70.43 C-0.0004,75.699 4.3016,80 9.5696,80 L42.0426,80 C47.3116,80 51.6136,75.699 51.6136,70.43 L51.6136,68.064 L58.2796,68.064 C63.5486,68.064 67.8496,63.764 67.8496,58.494 L67.9566,26.022 Z" id="Pages"></path></g></g></g></svg> 