<?xml version="1.0" encoding="UTF-8"?> <svg xmlns="http://www.w3.org/2000/svg" xmlns:xlink="http://www.w3.org/1999/xlink" width="100px" height="100px" viewBox="0 0 100 100"><!-- Generator: Sketch 61.2 (89653) - https://sketch.com --><title>Keena Icon - Archiving</title><desc>Created with Sketch.</desc><g id="Keena-Icon---Archiving" stroke="none" stroke-width="1" fill="none" fill-rule="evenodd"><g transform="translate(10.000000, 10.000000)" fill="#ED5E3B"><path d="M69.0998,75.4283 L66.7048,71.0853 L66.7048,53.3713 L76.7398,53.3713 L69.0998,75.4283 Z M16.9898,77.3713 L3.8768,53.3713 L53.9338,53.3713 L67.0468,77.3713 L16.9898,77.3713 Z M14.9378,8.1143 L25.5418,8.1143 L25.5418,12.1143 C25.5418,12.8003 24.9718,13.4863 24.1728,13.4863 C23.4898,13.4863 22.8048,12.9143 22.8048,12.1143 L22.8048,10.7423 L20.1828,10.7423 L20.1828,12.1143 C20.1828,14.2853 22.0068,16.1143 24.1728,16.1143 C26.3398,16.1143 28.1638,14.2853 28.1638,12.1143 L28.1638,8.1143 L58.7228,8.1143 L58.7228,56.5723 L55.8718,51.4283 C55.6448,50.9713 55.1888,50.7423 54.7328,50.7423 L14.8238,50.7423 L14.8238,8.1143 L14.9378,8.1143 Z M22.9188,2.8573 C24.4018,2.8573 25.5418,4.0003 25.5418,5.4863 L20.1828,5.4863 C20.1828,4.0003 21.4368,2.8573 22.9188,2.8573 L22.9188,2.8573 Z M64.0818,13.4863 L64.0818,66.2853 L61.4598,61.3713 L61.4598,13.4863 L64.0818,13.4863 Z M79.7038,51.3143 C79.4758,50.9713 79.0198,50.7423 78.6778,50.7423 L66.7048,50.7423 L66.7048,12.1143 C66.7048,11.4283 66.1348,10.7423 65.3358,10.7423 L61.3458,10.7423 L61.3458,6.7423 C61.3458,6.0573 60.7758,5.3713 59.9778,5.3713 L28.0498,5.3713 C28.0498,2.4003 25.6558,0.0003 22.6908,0.0003 C19.7268,0.0003 17.3318,2.4003 17.3318,5.3713 L13.3408,5.3713 C12.6568,5.3713 11.9728,5.9433 11.9728,6.7423 L11.9728,50.7423 L1.3688,50.7423 C0.6838,50.7423 -0.0002,51.3143 -0.0002,52.1143 C-0.0002,52.3423 -0.0002,52.5723 0.1148,52.8003 L15.0508,79.3143 C15.2798,79.7713 15.7358,79.9993 16.1918,79.9993 L69.3278,79.9993 C69.8978,79.9993 70.3538,79.6573 70.5818,79.0853 L79.9318,52.4573 C80.0458,52.1143 80.0458,51.6573 79.7038,51.3143 L79.7038,51.3143 Z" id="Folder"></path><path d="M30.9006,20.1143 L34.8916,20.1143 C35.5766,20.1143 36.2596,19.5433 36.2596,18.7423 L36.2596,14.7423 L38.8826,14.7423 L38.8826,18.7423 C38.8826,19.4283 39.4526,20.1143 40.2516,20.1143 L44.2426,20.1143 L44.2426,22.7423 L40.2516,22.7423 C39.5666,22.7423 38.8826,23.3143 38.8826,24.1143 L38.8826,28.1143 L36.2596,28.1143 L36.2596,24.1143 C36.2596,23.4283 35.6896,22.7423 34.8916,22.7423 L30.9006,22.7423 L30.9006,20.1143 Z M29.5326,25.4863 L33.5236,25.4863 L33.5236,29.4863 C33.5236,30.1713 34.0936,30.8573 34.8916,30.8573 L40.2516,30.8573 C40.9346,30.8573 41.6196,30.2853 41.6196,29.4863 L41.6196,25.4863 L45.6106,25.4863 C46.2946,25.4863 46.9786,24.9143 46.9786,24.1143 L46.9786,18.7423 C46.9786,18.0573 46.4086,17.3713 45.6106,17.3713 L41.6196,17.3713 L41.6196,13.3713 C41.6196,12.6853 41.0486,12.0003 40.2516,12.0003 L34.8916,12.0003 C34.2076,12.0003 33.5236,12.5713 33.5236,13.3713 L33.5236,17.3713 L29.5326,17.3713 C28.8486,17.3713 28.1646,17.9433 28.1646,18.7423 L28.1646,24.1143 C28.1646,24.8003 28.7346,25.4863 29.5326,25.4863 L29.5326,25.4863 Z" id="+"></path><polygon id="Fill-6" points="21.551 36.114 24.173 36.114 24.173 33.486 21.551 33.486"></polygon><polygon id="Fill-8" points="26.91 36.114 54.846 36.114 54.846 33.486 26.91 33.486"></polygon><polygon id="Fill-9" points="18.928 41.371 54.846 41.371 54.846 38.743 18.928 38.743"></polygon><polygon id="Fill-10" points="18.928 46.743 49.488 46.743 49.488 44.114 18.928 44.114"></polygon><polygon id="Fill-11" points="53.25 14.742 55.986 14.742 55.986 12.114 53.25 12.114"></polygon><polygon id="Fill-12" points="53.478 20.114 56.101 20.114 56.101 17.486 53.478 17.486"></polygon></g></g></svg> 