<?xml version="1.0" encoding="UTF-8"?> <svg xmlns="http://www.w3.org/2000/svg" height="100" viewBox="0 0 100 100" width="100"><g fill="#ed5e3b" fill-rule="evenodd" transform="translate(10 23)"><path d="m35.424 42.4667c-1.187.678-2.459 1.187-3.816 1.526-.509.17-.848.594-.933 1.103l-.933 6.275h-5.682l-.933-6.275c-.084-.509-.424-.933-.932-1.103-1.357-.339-2.629-.932-3.817-1.526-.424-.255-1.017-.255-1.442.085l-5.003 3.815-3.986-3.985 3.816-5.004c.34-.424.34-1.017.085-1.441-.678-1.188-1.187-2.459-1.527-3.817-.169-.508-.593-.847-1.102-.932l-6.275-.933v-5.682l6.275-.933c.509-.085.933-.424 1.102-.933.34-1.357.934-2.629 1.527-3.816.255-.425.255-1.018-.085-1.442l-3.816-5.003 3.986-3.986 5.003 3.816c.425.339 1.018.339 1.442.085 1.188-.679 2.46-1.187 3.817-1.527.508-.169.848-.594.932-1.102l.933-6.276h5.682l.933 6.276c.085.508.424.933.933 1.102 1.357.34 2.629.933 3.816 1.527.424.254 1.018.254 1.442-.085l5.003-3.816 3.986 3.986-3.816 5.003c-.339.424-.339 1.017-.085 1.442.678 1.187 1.187 2.459 1.527 3.816.169.509.593.848 1.102.933l6.276.933v5.682l-6.276.933c-.509.085-.933.424-1.102.932-.34 1.358-.933 2.629-1.527 3.817-.254.424-.254 1.017.085 1.441l3.816 5.004-3.986 3.985-5.003-3.815c-.424-.255-.933-.34-1.442-.085m7.548 6.614 5.682-5.681c.509-.509.509-1.188.084-1.782l-3.985-5.257c.424-.848.848-1.782 1.102-2.714l6.53-.933c.679-.085 1.187-.679 1.187-1.356v-7.973c0-.678-.508-1.187-1.187-1.356l-6.53-.933c-.339-.933-.678-1.866-1.102-2.714l3.985-5.258c.425-.509.34-1.272-.084-1.781l-5.682-5.682c-.509-.509-1.188-.509-1.781-.085l-5.258 3.986c-.848-.424-1.781-.848-2.714-1.102l-.933-6.531c-.085-.678-.678-1.187-1.357-1.187h-7.971c-.679 0-1.188.509-1.357 1.187l-.933 6.531c-.933.339-1.866.678-2.714 1.102l-5.258-3.986c-.509-.424-1.272-.339-1.781.085l-5.682 5.682c-.509.509-.509 1.187-.084 1.781l3.985 5.258c-.424.848-.848 1.781-1.102 2.714l-6.53.933c-.679.084-1.187.678-1.187 1.356v7.973c0 .677.508 1.186 1.187 1.356l6.53.933c.339.932.678 1.866 1.102 2.714l-3.985 5.257c-.425.509-.34 1.273.084 1.782l5.682 5.681c.509.509 1.188.509 1.781.085l5.258-3.985c.848.424 1.781.848 2.714 1.102l.933 6.53c.085.678.678 1.187 1.357 1.187h7.971c.679 0 1.187-.509 1.357-1.187l.933-6.53c.933-.339 1.866-.678 2.714-1.102l5.258 3.985c.593.424 1.357.34 1.781-.085" transform="translate(13 .2579)"></path><path d="m30.615 34.3279h18.657v-5.343h-18.657zm0-8.056h18.657v-5.343h-18.657zm21.371 8.056v-5.343c0-.508-.17-.932-.339-1.356.254-.424.339-.848.339-1.357v-5.343c0-1.441-1.188-2.629-2.629-2.629h-18.657c-1.442 0-2.63 1.188-2.63 2.629v5.343c0 .509.17.933.34 1.357-.255.424-.34.848-.34 1.356v5.343c0 1.443 1.188 2.63 2.63 2.63h18.657c1.441 0 2.629-1.187 2.629-2.63z"></path><path d="m33.244 32.8869h2.629v-2.629h-2.629z"></path><path d="m33.244 24.9149h2.629v-2.629h-2.629z"></path><path d="m38.587 32.8869h7.972v-2.629h-7.972z"></path><path d="m38.587 24.9149h7.972v-2.629h-7.972z"></path><path d="m2.629 27.6289c0-.509.339-1.018.848-1.272.509-.17 1.103-.085 1.442.254.339.34.508.933.254 1.442s-.678.848-1.272.848c-.678.084-1.272-.509-1.272-1.272m5.088 1.356h2.884v-2.628h-2.884c-.678-1.866-2.544-2.968-4.41-2.629-1.95.339-3.307 2.035-3.307 3.986 0 1.95 1.442 3.646 3.307 3.985 1.866.17 3.732-.932 4.41-2.714"></path><path d="m75.986 28.9854c-.509 0-1.018-.339-1.272-.848-.254-.508-.085-1.102.254-1.442.339-.338.933-.508 1.442-.254.509.17.848.679.848 1.273.085.678-.509 1.271-1.272 1.271m0-5.342c-1.696 0-3.223 1.102-3.731 2.629h-2.884v2.629h2.884c.508 1.441 1.78 2.374 3.222 2.629 1.442.169 2.968-.425 3.816-1.696.848-1.188.933-2.799.255-4.156-.679-1.272-2.036-2.035-3.562-2.035"></path><path d="m21.286 28.9009h2.629v-2.629h-2.629z"></path><path d="m55.972 28.9009h2.629v-2.629h-2.629z"></path></g></svg> 