<?xml version="1.0" encoding="UTF-8"?> <svg xmlns="http://www.w3.org/2000/svg" viewBox="0 0 512 512"><title>Asset 1</title><g id="a07382aa-d677-40bc-a2c1-dca5abecf710" data-name="Layer 2"><g id="b83f8198-580e-410f-a14b-cd59ff099e40" data-name="Layer 1"><path d="M505.43,344.15l-76.95-77a166.55,166.55,0,0,0,6.67-192.13,7.5,7.5,0,0,0-12.53,8.25c39.24,59.67,31,139.7-19.57,190.28-59.07,59.08-155.19,59.08-214.26,0s-59.07-155.21,0-214.29S344,.23,403,59.28l.41.42a7.5,7.5,0,0,0,10.65-10.57l-.43-.44c-64.93-64.92-170.56-64.92-235.48,0q-3.06,3.06-5.92,6.24H7.5A7.5,7.5,0,0,0,0,62.43V95.6a7.5,7.5,0,0,0,15,0V69.93H160.23a165.28,165.28,0,0,0-14.79,25.24H52a7.5,7.5,0,0,0,0,15h87.23a167,167,0,0,0-5.38,18.33H52a7.5,7.5,0,0,0,0,15h79.08a165.71,165.71,0,0,0-1.51,18.33H52a7.51,7.51,0,0,0,0,15h77.83a166.61,166.61,0,0,0,16.79,63.35H134a7.5,7.5,0,0,0-7.5,7.5v222a7.5,7.5,0,0,0,7.5,7.51h60a7.5,7.5,0,0,0,7.5-7.51V303.62a164.89,164.89,0,0,0,21,12.3v153.8a7.5,7.5,0,0,0,7.5,7.51h60a7.5,7.5,0,0,0,7.5-7.51V332.88A170.89,170.89,0,0,0,315,331.8V447.65a7.5,7.5,0,1,0,15,0V329.39A165.42,165.42,0,0,0,396.66,299L473.59,376a22.51,22.51,0,0,0,31.84-31.82ZM186.5,462.22h-45v-207H155a166.45,166.45,0,0,0,23.16,29q4.06,4.05,8.32,7.76Zm51,0V322.37a166.85,166.85,0,0,0,45,10V462.22Zm257.31-96.86a7.5,7.5,0,0,1-10.61,0l-76-76c1.84-1.69,3.65-3.4,5.43-5.18s3.5-3.58,5.18-5.43l76,76a7.5,7.5,0,0,1,0,10.6Z" style="fill:#e4482d"></path><path d="M322.51,472.49A7.5,7.5,0,0,0,315,480v17H15V128.11a7.5,7.5,0,0,0-15,0V504.5A7.5,7.5,0,0,0,7.5,512h315a7.5,7.5,0,0,0,7.5-7.5V480a7.5,7.5,0,0,0-7.5-7.5Z" style="fill:#e4482d"></path><path d="M32.5,307.69v162a7.5,7.5,0,0,0,7.5,7.5h60a7.5,7.5,0,0,0,7.5-7.5v-162a7.5,7.5,0,0,0-7.5-7.5H40a7.5,7.5,0,0,0-7.5,7.5Zm15,7.51h45v147h-45Z" style="fill:#e4482d"></path><path d="M108.08,210.18a7.5,7.5,0,0,0,0-15H52a7.5,7.5,0,0,0,0,15Z" style="fill:#e4482d"></path><path d="M295.92,30A136.52,136.52,0,0,0,199.4,263a136.51,136.51,0,0,0,193-193.07A135.62,135.62,0,0,0,295.92,30Zm85.92,222.38a121.69,121.69,0,1,1,35.52-85.92,120.66,120.66,0,0,1-35.52,85.92Z" style="fill:#e4482d"></path></g></g></svg> 