<svg xmlns="http://www.w3.org/2000/svg" viewBox="0 0 121.99 122.26"><defs><style>.cls-1{fill:#f7ea56;}.cls-2{fill:#465362;}</style></defs><g id="Layer_2" data-name="Layer 2"><g id="Capa_1" data-name="Capa 1"><rect class="cls-1" x="64.73" y="61.92" width="7.33" height="15.38"/><rect class="cls-1" x="56.73" y="65.36" width="7.33" height="12.17"/><rect class="cls-1" x="48.35" y="69.7" width="7.33" height="9.22"/><circle class="cls-1" cx="13.64" cy="84.52" r="4.77"/><circle class="cls-1" cx="109.1" cy="84.87" r="4.77"/><circle class="cls-1" cx="61.21" cy="12.87" r="4.77"/><path class="cls-2" d="M66.9,13.8A5.91,5.91,0,1,0,61,19.72,5.92,5.92,0,0,0,66.9,13.8ZM59,13.8a2,2,0,1,1,2,2A2,2,0,0,1,59,13.8Z"/><path class="cls-2" d="M10.83,79.67a5.91,5.91,0,1,0,8.06,2.16A5.94,5.94,0,0,0,10.83,79.67Zm3.93,6.83a2,2,0,1,1,.72-2.7A2,2,0,0,1,14.76,86.5Z"/><path class="cls-2" d="M111.16,79.67a5.91,5.91,0,0,0-5.9,10.25h0a5.91,5.91,0,0,0,5.9-10.25Zm-1.24,6.11a2,2,0,1,1-.72-2.7A2,2,0,0,1,109.92,85.78Z"/><path class="cls-2" d="M115.1,72.84a13.74,13.74,0,0,0-18.19,4.08L82.63,69.77V52.49l21.81-10.93a9.81,9.81,0,0,0,17.21-3.51,9.87,9.87,0,0,0-7-12.08,9.79,9.79,0,0,0-12,12.06l-20.05,10v-9.7a2.88,2.88,0,0,0-2.88-2.89H63v-8a13.78,13.78,0,1,0-3.93,0v8H42.23a2.88,2.88,0,0,0-2.88,2.89v9.7l-20-10a9.82,9.82,0,0,0-18-7.47,9.94,9.94,0,0,0-.09,9.73,9.05,9.05,0,0,0,2,2.52,9.91,9.91,0,0,0,6.6,2.55,9.72,9.72,0,0,0,7.72-3.8l21.8,10.93V69.77L25.08,76.92A13.73,13.73,0,0,0,6.89,72.83,13.8,13.8,0,1,0,20.66,96.74a13.83,13.83,0,0,0,6.18-16.3l12.51-6.26v9.73a2.85,2.85,0,0,0,2.86,2.85H59v16a9.84,9.84,0,1,0,3.93,0v-16H79.75a2.88,2.88,0,0,0,2.88-2.88v-9.7l12.51,6.26a13.83,13.83,0,0,0,6.19,16.3,13.55,13.55,0,0,0,6.86,1.85,13.8,13.8,0,0,0,6.91-25.75ZM106.44,34a5.92,5.92,0,1,1,1.08,5.21A5.91,5.91,0,0,1,106.44,34ZM51.16,13.8A9.84,9.84,0,1,1,61,23.66a9.86,9.86,0,0,1-9.83-9.86ZM15,38.45A5.92,5.92,0,1,1,15.54,34,5.89,5.89,0,0,1,15,38.45Zm3.74,54.88a9.85,9.85,0,1,1-4.93-18.4,10.05,10.05,0,0,1,4.26,1,9.26,9.26,0,0,1,2.7,1.89A9.9,9.9,0,0,1,18.69,93.33ZM66.74,111a5.91,5.91,0,1,1-4.4-4.4A5.85,5.85,0,0,1,66.74,111Zm12-28.22H43.29V39.44H78.7Zm38,6.9a9.84,9.84,0,1,1-3.6-13.47,9.84,9.84,0,0,1,3.6,13.47Z"/><path class="cls-2" d="M74.76,59.16H63V63.1H55.09v3.95H47.22V78.88H74.76ZM51.16,71h3.93v3.94H51.16ZM59,74.93V67.05H63v7.88Zm11.8,0H66.9V63.1h3.93Z"/><path class="cls-2" d="M49.06,43.38H72.79a2,2,0,0,1,2,2h0a2,2,0,0,1-2,2H49.06a2,2,0,0,1-2-2h0A2,2,0,0,1,49.06,43.38Z"/><path class="cls-2" d="M49.19,51.27h23.6a2,2,0,0,1,2,2h0a2,2,0,0,1-2,2H49.19a2,2,0,0,1-2-2h0A2,2,0,0,1,49.19,51.27Z"/></g></g></svg>