<svg xmlns="http://www.w3.org/2000/svg" viewBox="0 0 128.62 115.56"><defs><style>.cls-1{fill:#ec4f28;}.cls-2{fill:#465362;}</style></defs><g id="Layer_2" data-name="Layer 2"><g id="Capa_1" data-name="Capa 1"><path class="cls-1" d="M41.7,12.56a2.51,2.51,0,1,1-2.51-2.51A2.51,2.51,0,0,1,41.7,12.56Z"/><path class="cls-1" d="M31.65,12.56a2.51,2.51,0,1,1-2.51-2.51A2.51,2.51,0,0,1,31.65,12.56Z"/><path class="cls-1" d="M21.6,12.56a2.51,2.51,0,1,1-2.51-2.51A2.51,2.51,0,0,1,21.6,12.56Z"/><path class="cls-2" d="M109.53,35.17H19.09a2.51,2.51,0,0,0-2.51,2.51V52.75a2.51,2.51,0,0,0,2.51,2.52h90.44A2.51,2.51,0,0,0,112,52.75V37.68A2.51,2.51,0,0,0,109.53,35.17ZM107,50.24H21.6V40.19H107Z"/><path class="cls-2" d="M64.31,65.32H19.09a2.51,2.51,0,0,0-2.51,2.51V98a2.51,2.51,0,0,0,2.51,2.52H64.31A2.51,2.51,0,0,0,66.82,98V67.83A2.51,2.51,0,0,0,64.31,65.32ZM61.8,95.46H21.6V70.34H61.8Z"/><path class="cls-2" d="M109.53,65.32H79.38a2.51,2.51,0,0,0-2.51,2.51V98a2.52,2.52,0,0,0,2.51,2.52h30.15A2.51,2.51,0,0,0,112,98V67.83A2.51,2.51,0,0,0,109.53,65.32ZM107,95.46H81.9V70.34H107Z"/><path class="cls-2" d="M121.08,0h-9.44a2.51,2.51,0,0,0,0,5h9.44a2.52,2.52,0,0,1,2.52,2.52V20.1H5V7.54A2.52,2.52,0,0,1,7.54,5H101a2.51,2.51,0,1,0,0-5H7.54A7.55,7.55,0,0,0,0,7.54V108a7.55,7.55,0,0,0,7.54,7.54H121.08a7.55,7.55,0,0,0,7.54-7.54V7.54A7.55,7.55,0,0,0,121.08,0Zm0,110.53H7.54A2.51,2.51,0,0,1,5,108V25.12H123.6V108A2.51,2.51,0,0,1,121.08,110.53Z"/></g></g></svg>