<svg xmlns="http://www.w3.org/2000/svg" viewBox="0 0 134.26 130.92"><defs><style>.cls-1{fill:#465362;}.cls-2{fill:#ec4f28;}</style></defs><g id="Layer_2" data-name="Layer 2"><g id="Capa_1" data-name="Capa 1"><path class="cls-1" d="M127.91,122.8H73.81c-4.61,0-6.35-1.74-6.35-6.35V79.05c0-4.61,1.74-6.35,6.35-6.35h54.1c4.61,0,6.35,1.74,6.35,6.35v37.4C134.26,121.06,132.52,122.8,127.91,122.8ZM73.67,75.9a3,3,0,0,0-3,3v37.7a3,3,0,0,0,3,3h54a3,3,0,0,0,3-3V78.88a3,3,0,0,0-3-3Z"/><path class="cls-1" d="M106.19,130.92H95.53a1.78,1.78,0,1,1,0-3.55h10.66a1.78,1.78,0,1,1,0,3.55Z"/><path class="cls-1" d="M100.86,130.92a1.78,1.78,0,0,1-1.78-1.78V122a1.78,1.78,0,0,1,3.56,0v7.11A1.78,1.78,0,0,1,100.86,130.92Z"/><path class="cls-1" d="M60.46,50.11H6.35C1.75,50.11,0,48.36,0,43.76V6.35C0,1.75,1.75,0,6.35,0H60.46c4.6,0,6.35,1.75,6.35,6.35V43.76C66.81,48.36,65.06,50.11,60.46,50.11ZM6.22,3.2a3,3,0,0,0-3,3V43.89a3,3,0,0,0,3,3h54a3,3,0,0,0,3-3V6.18a3,3,0,0,0-3-3Z"/><path class="cls-1" d="M38.74,58.22H28.07a1.78,1.78,0,1,1,0-3.55H38.74a1.78,1.78,0,0,1,0,3.55Z"/><path class="cls-1" d="M33.4,58.22a1.77,1.77,0,0,1-1.77-1.78V49.33a1.78,1.78,0,0,1,3.55,0v7.11A1.78,1.78,0,0,1,33.4,58.22Z"/><path class="cls-1" d="M91.14,25H86.4a1.58,1.58,0,0,1,0-3.16h4.74a1.58,1.58,0,0,1,0,3.16Z"/><path class="cls-1" d="M78.79,25H74.05a1.58,1.58,0,0,1,0-3.16h4.74a1.58,1.58,0,0,1,0,3.16Z"/><path class="cls-1" d="M103.15,32.77a1.58,1.58,0,0,1-1.58-1.58V29.75a4.76,4.76,0,0,0-3.47-4.57,1.58,1.58,0,0,1,.84-3,7.91,7.91,0,0,1,5.79,7.61v1.44A1.58,1.58,0,0,1,103.15,32.77Z"/><path class="cls-1" d="M103.15,44.91a1.57,1.57,0,0,1-1.58-1.57V38.6a1.58,1.58,0,1,1,3.16,0v4.74A1.57,1.57,0,0,1,103.15,44.91Z"/><path class="cls-1" d="M103.15,56.8a1.58,1.58,0,0,1-1.58-1.58V50.48a1.58,1.58,0,1,1,3.16,0v4.74A1.58,1.58,0,0,1,103.15,56.8Z"/><path class="cls-1" d="M103.15,68.22a1.58,1.58,0,0,1-1.58-1.58V61.9a1.58,1.58,0,1,1,3.16,0v4.74A1.58,1.58,0,0,1,103.15,68.22Z"/><path class="cls-1" d="M28.08,98.08h4.73a1.58,1.58,0,0,1,0,3.16H28.08a1.58,1.58,0,1,1,0-3.16Z"/><path class="cls-1" d="M40.43,98.08h4.73a1.58,1.58,0,1,1,0,3.16H40.43a1.58,1.58,0,1,1,0-3.16Z"/><path class="cls-1" d="M52.38,98.08h4.73a1.58,1.58,0,1,1,0,3.16H52.38a1.58,1.58,0,0,1,0-3.16Z"/><path class="cls-1" d="M16.07,90.32a1.57,1.57,0,0,1,1.57,1.58v1.45a4.74,4.74,0,0,0,3.47,4.56,1.58,1.58,0,1,1-.84,3,7.92,7.92,0,0,1-5.78-7.61V91.9A1.58,1.58,0,0,1,16.07,90.32Z"/><path class="cls-1" d="M16.07,78.18a1.57,1.57,0,0,1,1.57,1.58v4.73a1.58,1.58,0,1,1-3.15,0V79.76A1.58,1.58,0,0,1,16.07,78.18Z"/><path class="cls-1" d="M16.07,66.3a1.57,1.57,0,0,1,1.57,1.57v4.74a1.58,1.58,0,1,1-3.15,0V67.87A1.57,1.57,0,0,1,16.07,66.3Z"/><path class="cls-1" d="M16.07,54.88a1.57,1.57,0,0,1,1.57,1.58v4.73a1.58,1.58,0,1,1-3.15,0V56.46A1.57,1.57,0,0,1,16.07,54.88Z"/><path class="cls-2" d="M38.07,12.07H27.79a1.28,1.28,0,0,0-1.28,1.29V18.5H21.36a1.28,1.28,0,0,0-1.28,1.29V30.07a1.28,1.28,0,0,0,1.28,1.28h5.15V36.5a1.28,1.28,0,0,0,1.28,1.28H38.07a1.28,1.28,0,0,0,1.29-1.28V31.35H44.5a1.28,1.28,0,0,0,1.29-1.28V19.79A1.29,1.29,0,0,0,44.5,18.5H39.36V13.36A1.29,1.29,0,0,0,38.07,12.07Zm5.15,9v7.71H38.07a1.28,1.28,0,0,0-1.28,1.29v5.14H29.08V30.07a1.29,1.29,0,0,0-1.29-1.29H22.65V21.07h5.14a1.28,1.28,0,0,0,1.29-1.28V14.64h7.71v5.15a1.28,1.28,0,0,0,1.28,1.28Z"/><path class="cls-2" d="M98.87,110.62a1.28,1.28,0,0,1-1.28-1.27V108a10.94,10.94,0,0,1-2.45-1l-1,1a1.28,1.28,0,0,1-1.8,0l-2.46-2.46a1.29,1.29,0,0,1,0-1.81l.95-.94a11.14,11.14,0,0,1-1-2.45H88.52A1.28,1.28,0,0,1,87.25,99V95.52a1.28,1.28,0,0,1,1.27-1.28h1.34a10.91,10.91,0,0,1,1-2.45l-.94-1a1.27,1.27,0,0,1,0-1.8l2.46-2.46a1.28,1.28,0,0,1,1.8,0l.94.94a11,11,0,0,1,2.46-1V85.17a1.28,1.28,0,0,1,1.28-1.27h3.48a1.28,1.28,0,0,1,1.28,1.27v1.32a11.21,11.21,0,0,1,2.46,1l.93-.93a1.29,1.29,0,0,1,.91-.37,1.26,1.26,0,0,1,.9.37L111.29,89a1.27,1.27,0,0,1,0,1.8l-.93.94a11.51,11.51,0,0,1,1,2.46h1.32A1.28,1.28,0,0,1,114,95.52V99a1.28,1.28,0,0,1-1.27,1.28h-1.33a11.21,11.21,0,0,1-1,2.46l.94.93a1.29,1.29,0,0,1,0,1.81l-2.46,2.46a1.26,1.26,0,0,1-.9.37,1.29,1.29,0,0,1-.91-.37l-.94-.94a11.39,11.39,0,0,1-2.45,1v1.34a1.28,1.28,0,0,1-1.28,1.27Zm3.23-1.52v-1.68a.77.77,0,0,1,.6-.75,9.41,9.41,0,0,0,3.09-1.28.84.84,0,0,1,.41-.11.73.73,0,0,1,.54.22l1.19,1.18,2.1-2.1-1.18-1.19a.77.77,0,0,1-.1-1A9.41,9.41,0,0,0,110,99.35a.77.77,0,0,1,.75-.6h1.67v-3h-1.67a.76.76,0,0,1-.74-.6,9.71,9.71,0,0,0-1.29-3.1.76.76,0,0,1,.11-.95L110,89.94l-2.1-2.11L106.75,89a.75.75,0,0,1-.54.22.81.81,0,0,1-.41-.11,9.49,9.49,0,0,0-3.1-1.29.76.76,0,0,1-.6-.74V85.42h-3v1.67a.75.75,0,0,1-.6.74,9.66,9.66,0,0,0-3.09,1.29.78.78,0,0,1-.41.12.76.76,0,0,1-.54-.22l-1.19-1.19-2.11,2.11,1.19,1.19a.77.77,0,0,1,.1,1,9.86,9.86,0,0,0-1.28,3.09.75.75,0,0,1-.74.6H88.77v3h1.68a.77.77,0,0,1,.75.6,9.41,9.41,0,0,0,1.28,3.09.74.74,0,0,1-.11.94l-1.19,1.2,2.11,2.1,1.19-1.19a.79.79,0,0,1,.54-.22.73.73,0,0,1,.41.12,9.41,9.41,0,0,0,3.09,1.28.76.76,0,0,1,.6.74v1.69Z"/><path class="cls-2" d="M102.35,84.15a1,1,0,0,1,1,1v1.51a11.41,11.41,0,0,1,2.75,1.14l1.07-1.06a1,1,0,0,1,1.45,0l2.46,2.46a1,1,0,0,1,0,1.45L110,91.74a10.52,10.52,0,0,1,1.14,2.75h1.52a1,1,0,0,1,1,1V99a1,1,0,0,1-1,1h-1.52a10.81,10.81,0,0,1-1.14,2.75l1.07,1.07a1,1,0,0,1,0,1.45l-2.46,2.46a1,1,0,0,1-1.45,0l-1.08-1.07a10.93,10.93,0,0,1-2.74,1.13v1.53a1,1,0,0,1-1,1H98.87a1,1,0,0,1-1-1v-1.53a11,11,0,0,1-2.74-1.14L94,107.76a1,1,0,0,1-1.45,0l-2.46-2.46a1,1,0,0,1,0-1.45l1.08-1.08A10.59,10.59,0,0,1,90.05,100H88.52a1,1,0,0,1-1-1V95.52a1,1,0,0,1,1-1h1.53a11.15,11.15,0,0,1,1.13-2.75l-1.07-1.07a1,1,0,0,1,0-1.45l2.46-2.46a1,1,0,0,1,1.45,0l1.07,1.07a10.66,10.66,0,0,1,2.75-1.14V85.17a1,1,0,0,1,1-1h3.48M95,89a.51.51,0,0,1-.36-.15l-1.36-1.36-2.46,2.46,1.36,1.37a.5.5,0,0,1,.07.63A10,10,0,0,0,91,95.12a.51.51,0,0,1-.5.4H88.52V99h1.93a.51.51,0,0,1,.5.4,9.83,9.83,0,0,0,1.32,3.17.51.51,0,0,1-.07.64l-1.37,1.37L93.29,107l1.37-1.37a.51.51,0,0,1,.36-.15.57.57,0,0,1,.28.08,9.59,9.59,0,0,0,3.17,1.31.52.52,0,0,1,.4.5v1.94h3.48v-1.93a.51.51,0,0,1,.4-.5,10,10,0,0,0,3.18-1.31.45.45,0,0,1,.27-.08.51.51,0,0,1,.36.15l1.37,1.36,2.46-2.46L109,103.22a.51.51,0,0,1-.07-.64,10,10,0,0,0,1.32-3.18.51.51,0,0,1,.5-.4h1.92V95.52h-1.92a.51.51,0,0,1-.5-.4A9.57,9.57,0,0,0,109,91.94a.51.51,0,0,1,.07-.64l1.36-1.36-2.46-2.46-1.36,1.35a.51.51,0,0,1-.36.15.48.48,0,0,1-.28-.08,10,10,0,0,0-3.18-1.31.51.51,0,0,1-.4-.5V85.17H98.87v1.92a.51.51,0,0,1-.4.5,9.75,9.75,0,0,0-3.18,1.32A.54.54,0,0,1,95,89m7.34-5.34H98.87a1.53,1.53,0,0,0-1.53,1.52v1.14a10.72,10.72,0,0,0-2.16.9l-.81-.81A1.5,1.5,0,0,0,93.29,86a1.48,1.48,0,0,0-1.07.44l-2.47,2.47a1.48,1.48,0,0,0-.44,1.07A1.5,1.5,0,0,0,89.75,91l.81.81A11.29,11.29,0,0,0,89.67,94H88.52A1.53,1.53,0,0,0,87,95.52V99a1.53,1.53,0,0,0,1.52,1.53h1.15a10.64,10.64,0,0,0,.9,2.15l-.82.82a1.53,1.53,0,0,0,0,2.15l2.47,2.47a1.52,1.52,0,0,0,1.07.44,1.55,1.55,0,0,0,1.08-.44l.81-.82a12,12,0,0,0,2.16.9v1.15a1.53,1.53,0,0,0,1.53,1.52h3.48a1.53,1.53,0,0,0,1.53-1.52V108.2a11.56,11.56,0,0,0,2.16-.89l.81.81a1.55,1.55,0,0,0,1.08.44,1.52,1.52,0,0,0,1.07-.44l2.47-2.47a1.53,1.53,0,0,0,0-2.15l-.81-.81a11.33,11.33,0,0,0,.9-2.16h1.14A1.53,1.53,0,0,0,114.22,99V95.52A1.53,1.53,0,0,0,112.7,94h-1.14a11.38,11.38,0,0,0-.89-2.17l.8-.8a1.53,1.53,0,0,0,0-2.15L109,86.4a1.48,1.48,0,0,0-1.07-.44,1.5,1.5,0,0,0-1.08.44l-.8.8a12.11,12.11,0,0,0-2.17-.9V85.17a1.53,1.53,0,0,0-1.53-1.52Zm-3,2h2.48v1.42a1,1,0,0,0,.8,1,8.94,8.94,0,0,1,3,1.25,1.08,1.08,0,0,0,.55.15,1,1,0,0,0,.71-.29l1-1,1.75,1.75-1,1a1,1,0,0,0-.14,1.26,9.08,9.08,0,0,1,1.25,3,1,1,0,0,0,1,.8h1.42V98.5h-1.42a1,1,0,0,0-1,.79,9.42,9.42,0,0,1-1.25,3,1,1,0,0,0,.14,1.26l1,1-1.75,1.75-1-1a1,1,0,0,0-1.26-.14,9.46,9.46,0,0,1-3,1.25,1,1,0,0,0-.8,1v1.43H99.37v-1.44a1,1,0,0,0-.8-1,9.32,9.32,0,0,1-3-1.25A1.07,1.07,0,0,0,95,105a1,1,0,0,0-.71.3l-1,1-1.75-1.75,1-1a1,1,0,0,0,.14-1.26,9.37,9.37,0,0,1-1.25-3,1,1,0,0,0-1-.79H89V96h1.43a1,1,0,0,0,1-.8,9.44,9.44,0,0,1,1.24-3A1,1,0,0,0,92.55,91l-1-1,1.75-1.75,1,1a1,1,0,0,0,.71.3,1,1,0,0,0,.55-.16,9.46,9.46,0,0,1,3-1.25,1,1,0,0,0,.8-1V85.67Z"/><path class="cls-2" d="M100.61,105a7.72,7.72,0,0,1-1-15.38,6.73,6.73,0,0,1,1-.07,7.81,7.81,0,0,1,3.79,1,.76.76,0,0,1-.38,1.43.69.69,0,0,1-.37-.1,6.21,6.21,0,0,0-7.42,9.81,6.21,6.21,0,0,0,9.94-7.16.78.78,0,0,1,0-.58.74.74,0,0,1,.38-.45.84.84,0,0,1,.34-.08.75.75,0,0,1,.68.43A7.72,7.72,0,0,1,100.61,105Z"/><path class="cls-2" d="M100.6,89.78a7.53,7.53,0,0,1,3.66,1,.51.51,0,0,1,.2.7.5.5,0,0,1-.45.26.57.57,0,0,1-.25-.06,6.45,6.45,0,1,0-3.15,12.08h0a6.45,6.45,0,0,0,5.77-9.33.51.51,0,1,1,.92-.46,7.47,7.47,0,1,1-7.67-4.08,7.89,7.89,0,0,1,1-.06m0-.5a7,7,0,0,0-1,.07A7.85,7.85,0,0,0,95,91.62a8,8,0,0,0,0,11.28,8,8,0,0,0,11.28,0,8,8,0,0,0,1.5-9.21,1,1,0,0,0-.91-.56,1,1,0,0,0-.45.11,1,1,0,0,0-.45,1.36,5.92,5.92,0,1,1-2.42-2.54,1,1,0,0,0,.49.13,1,1,0,0,0,1-1.28,1,1,0,0,0-.48-.61,8,8,0,0,0-3.91-1Z"/></g></g></svg>