<svg xmlns="http://www.w3.org/2000/svg" viewBox="0 0 124.19 123.14"><defs><style>.cls-1{fill:#465362;}.cls-2{fill:none;stroke:#ec4f28;stroke-linecap:round;stroke-miterlimit:10;stroke-width:3px;}.cls-3{fill:#f7ea56;}</style></defs><g id="Layer_2" data-name="Layer 2"><g id="Capa_1" data-name="Capa 1"><path class="cls-1" d="M115.26,20a2.59,2.59,0,0,0-3.45-2.93l-2.89,1.11a17.93,17.93,0,0,0-30.86,5.06,1.82,1.82,0,0,0,3.42,1.24,14.28,14.28,0,0,1,23.82-4.92l-2,.75a2.58,2.58,0,0,0-.62,4.48l6.79,5.06h0a2.58,2.58,0,0,0,4.07-1.55Zm-4.91,5.94L106.44,23l4.88-1.86Z"/><path class="cls-1" d="M110.67,33.08a1.81,1.81,0,0,0-2.33,1.09,14.29,14.29,0,0,1-24.06,4.68l1.93-.74a2.58,2.58,0,0,0,.62-4.48l-6.78-5.06A2.59,2.59,0,0,0,76,30.13l-1.68,8.29a2.59,2.59,0,0,0,3.45,2.93l3-1.13a17.93,17.93,0,0,0,31.07-4.81,1.82,1.82,0,0,0-1.09-2.33ZM78.24,37.26l1-4.78,3.91,2.92Z"/><path class="cls-1" d="M80.33,3.93C51-4.48,0,1.25,0,16.39v90.39c0,10.62,24.92,16.36,48.36,16.36s48.37-5.74,48.37-16.36V80.37a1.82,1.82,0,0,0-3.64,0v3.81c0,5.82-18,12.72-44.73,12.72S3.64,90,3.64,84.18V68.13c15.74,13,73.71,13,89.45,0v3.75a1.82,1.82,0,0,0,3.64,0V58.54a29.12,29.12,0,0,0,12.7-3.79,1.82,1.82,0,1,0-1.81-3.16c-17,9.74-38.11-2.62-38.35-22a25.65,25.65,0,1,1,44.55,17,1.82,1.82,0,1,0,2.68,2.46,29.21,29.21,0,0,0,7.69-19.78C124.19,6.86,99.78-7.29,80.33,3.93Zm12.76,86.8v16c0,5.81-18,12.72-44.73,12.72S3.64,112.59,3.64,106.78v-16C19.38,103.75,77.35,103.75,93.09,90.73ZM76.84,52.36a29,29,0,0,0,16.25,6.19v3c0,5.81-18,12.72-44.73,12.72S3.64,67.4,3.64,61.59V45.54c11.49,9.51,48.11,12.76,73.2,6.82Zm-3.28-3C42.15,55.8,3.64,48.08,3.64,39v-16c10.88,9,41.25,11.37,62.08,8.78A29.13,29.13,0,0,0,73.56,49.36Zm-7.91-21.3c-31.14,4-62-3.71-62-11.67,0-9.56,41.87-17.2,72.72-9.74A29.07,29.07,0,0,0,65.65,28.06Z"/><path class="cls-2" d="M9.81,35.42s18.65,11.83,53.6,5.78"/><circle class="cls-3" cx="79.97" cy="60.75" r="4.77"/><path class="cls-1" d="M84,56.63a5.65,5.65,0,1,0,0,8A5.66,5.66,0,0,0,84,56.63Zm-2,5.94a2.74,2.74,0,1,1,.81-1.94A2.73,2.73,0,0,1,82,62.57Z"/><path class="cls-2" d="M9.81,58.49s18.88,12.06,53.6,5.78"/><circle class="cls-3" cx="79.97" cy="83.18" r="4.77"/><path class="cls-1" d="M84,79.06a5.65,5.65,0,1,0-4,9.64,5.65,5.65,0,0,0,4-9.64ZM82,85a2.74,2.74,0,1,1,.81-2A2.72,2.72,0,0,1,82,85Z"/><path class="cls-2" d="M9.81,80.63s18.65,12.05,53.6,5.77"/><circle class="cls-3" cx="79.97" cy="105.96" r="4.77"/><path class="cls-1" d="M84,101.84a5.64,5.64,0,1,0,0,8A5.66,5.66,0,0,0,84,101.84Zm-2,5.93a2.73,2.73,0,1,1,.81-1.94A2.73,2.73,0,0,1,82,107.77Z"/><path class="cls-2" d="M9.81,103.69s19.42,12.06,54.6,5.78"/><polygon class="cls-3" points="78.24 37.26 79.21 32.48 83.12 35.4 78.24 37.26"/><polygon class="cls-3" points="110.35 25.92 106.44 23 111.32 21.14 110.35 25.92"/></g></g></svg>