<?xml version="1.0" encoding="UTF-8"?> <svg xmlns="http://www.w3.org/2000/svg" id="Layer_1" data-name="Layer 1" viewBox="0 0 1170 700"><defs><style>.cls-1{fill:#ec522a;}.cls-2,.cls-5{fill:none;stroke:#455260;stroke-miterlimit:10;}.cls-2{stroke-width:3px;}.cls-3,.cls-32,.cls-41,.cls-52,.cls-56,.cls-6,.cls-61{fill:#455260;}.cls-4{fill:#f6e861;}.cls-5{stroke-linecap:round;stroke-width:2px;}.cls-32,.cls-41,.cls-52,.cls-56,.cls-6{font-size:16px;}.cls-32,.cls-41,.cls-52,.cls-56,.cls-6,.cls-61{font-family:Montserrat-SemiBold, Montserrat;font-weight:600;}.cls-6{letter-spacing:0.03em;}.cls-7{letter-spacing:0.01em;}.cls-8{letter-spacing:0.01em;}.cls-9{letter-spacing:0.02em;}.cls-10{letter-spacing:0.06em;}.cls-11{letter-spacing:0.01em;}.cls-12{letter-spacing:0.01em;}.cls-13{letter-spacing:0.03em;}.cls-14{letter-spacing:0.03em;}.cls-15{letter-spacing:0.03em;}.cls-16{letter-spacing:0.03em;}.cls-17{letter-spacing:0.02em;}.cls-18{letter-spacing:0.02em;}.cls-19{letter-spacing:0.02em;}.cls-20{letter-spacing:0.03em;}.cls-21{letter-spacing:0.02em;}.cls-22{letter-spacing:0.02em;}.cls-23{letter-spacing:0.02em;}.cls-24{letter-spacing:0.02em;}.cls-25{letter-spacing:0.03em;}.cls-26{letter-spacing:0.02em;}.cls-27{letter-spacing:0.01em;}.cls-28{letter-spacing:0.02em;}.cls-29{letter-spacing:0.01em;}.cls-30{letter-spacing:0.01em;}.cls-31{letter-spacing:0.03em;}.cls-32{letter-spacing:0.03em;}.cls-33{letter-spacing:0.02em;}.cls-34{letter-spacing:0.02em;}.cls-35{letter-spacing:0.02em;}.cls-36{letter-spacing:0.04em;}.cls-37{letter-spacing:0.02em;}.cls-38{letter-spacing:0.01em;}.cls-39{letter-spacing:0.01em;}.cls-40{letter-spacing:0.02em;}.cls-41{letter-spacing:-0.02em;}.cls-42{letter-spacing:0.01em;}.cls-43{letter-spacing:0.05em;}.cls-44{letter-spacing:0.02em;}.cls-45{letter-spacing:0.01em;}.cls-46{letter-spacing:0.03em;}.cls-47{letter-spacing:0.02em;}.cls-48{letter-spacing:0.01em;}.cls-49{letter-spacing:0.01em;}.cls-50{letter-spacing:0em;}.cls-51{letter-spacing:0.01em;}.cls-52{letter-spacing:0.01em;}.cls-53{letter-spacing:0.02em;}.cls-54{letter-spacing:0.02em;}.cls-55{letter-spacing:0.02em;}.cls-56{letter-spacing:0.02em;}.cls-57{letter-spacing:0.01em;}.cls-58{letter-spacing:0.01em;}.cls-59{letter-spacing:0.02em;}.cls-60{letter-spacing:0.03em;}.cls-61{font-size:24px;}.cls-62{letter-spacing:-0.02em;}.cls-63{letter-spacing:-0.06em;}.cls-64{letter-spacing:-0.01em;}.cls-65{letter-spacing:-0.06em;}</style></defs><path class="cls-1" d="M443.84,210.2a178.12,178.12,0,0,0,23.8,23.93Q518.76,276.67,598,276.66q94.94,0,163.18-66.46l142.68,67.1q-53.34,75.58-127.86,112-74.29,36.18-176.73,36.2-158.76,0-258.45-100.11a353,353,0,0,1-40.08-47.92Z"></path><path class="cls-2" d="M928.39,291.34c-48.1,59.37-102.58,103.94-138.25,121.07C736.44,438.2,673,451.55,599.05,451.55q-171.66,0-279.44-108.24a380.62,380.62,0,0,1-43.34-51.81"></path><path class="cls-3" d="M634.23,583.77a2.46,2.46,0,0,0-3.33,1,31.5,31.5,0,0,1-59.41-14.53l2,2a2.49,2.49,0,0,0,1.75.72,2.47,2.47,0,0,0,1.74-4.21l-6.08-6.08a2.46,2.46,0,0,0-3.76,0l-6,6a2.47,2.47,0,0,0,3.49,3.49l2-2a36.43,36.43,0,0,0,68.71,16.82,2.46,2.46,0,0,0-1-3.33Z"></path><path class="cls-3" d="M643.88,566.08a2.47,2.47,0,0,0-3.49,0l-2,2a36.43,36.43,0,0,0-68.72-16.82,2.47,2.47,0,0,0,4.38,2.29,31.49,31.49,0,0,1,59.4,14.53l-2-2a2.47,2.47,0,0,0-3.49,3.49l6.08,6.08a2.47,2.47,0,0,0,3.77,0l6-6a2.46,2.46,0,0,0,0-3.49Z"></path><path class="cls-3" d="M605.86,566.33a24,24,0,0,1-6.09-2.82,2.06,2.06,0,0,1-.46-2,2.76,2.76,0,0,1,1.84-2.2,5,5,0,0,1,4.45.65,2.47,2.47,0,1,0,2.95-4,9.66,9.66,0,0,0-3.67-1.65v-1a2.47,2.47,0,0,0-4.94,0v1.16l-.22.06a7.67,7.67,0,0,0-5.26,6,6.82,6.82,0,0,0,2.27,6.74c1.57,1.23,3.74,2.27,7.49,3.6a3.18,3.18,0,0,1,2.3,3.73,4.16,4.16,0,0,1-4.13,3.51c-2.38,0-3.13-.11-5-1.3a2.47,2.47,0,0,0-2.7,4.13,11.11,11.11,0,0,0,5.21,2v1.12a2.47,2.47,0,0,0,4.94,0v-1.36a9,9,0,0,0,3.66-2,9.29,9.29,0,0,0,2.85-5.26,8.15,8.15,0,0,0-5.53-9.21Z"></path><path class="cls-3" d="M385.73,509.18a1.73,1.73,0,0,0,1.73-1.73v-7.7a1.73,1.73,0,1,0-3.45,0v7.7a1.73,1.73,0,0,0,1.72,1.73Z"></path><path class="cls-3" d="M428,557.36l-3.05-3.05a5.77,5.77,0,0,0-6.84-1l-5.75-5.74.28-.28a6,6,0,0,0,0-8.47,6.07,6.07,0,0,0-3-1.63,5.83,5.83,0,0,0,.24-1.68,6,6,0,0,0-4.76-5.85,6,6,0,0,0-1.51-5.92,6,6,0,0,0-3-1.62,6,6,0,0,0-6.39-7.63l-11.39-2.16c-1.74-.32-3.91-.54-5.28.71l-.26.27a6,6,0,0,0-7.81,7.3,6,6,0,0,0-4.76,5.85,6,6,0,0,0,.24,1.69,6,6,0,0,0-4.76,5.85,6,6,0,0,0,1.05,3.39,6,6,0,0,0-2.3,9.9l.28.28-5.76,5.74a5.77,5.77,0,0,0-6.53,1.13l-3.05,3a5.76,5.76,0,0,0,0,8.15l3.81,3.81a1.73,1.73,0,1,0,2.44-2.45l-3.81-3.8a2.32,2.32,0,0,1,0-3.26l3.05-3.05a2.32,2.32,0,0,1,2.82-.34,1.32,1.32,0,0,0,.22.26,1.52,1.52,0,0,0,.49.35l17.51,17.48a1.75,1.75,0,0,0,.83.84,2.31,2.31,0,0,1-.09,3.16l-3,3.05a2.34,2.34,0,0,1-3.27,0L361,577.9a1.73,1.73,0,0,0-2.44,2.44l3.81,3.81a5.78,5.78,0,0,0,8.15,0l3-3a5.79,5.79,0,0,0,.81-7.13l6.47-6.46,0,0c.74-.76,2.81-.62,4.8-.48a24.51,24.51,0,0,0,4.54,0l7.09,7.08a5.79,5.79,0,0,0,1,6.84l3.05,3a5.78,5.78,0,0,0,8.15,0L428,565.51a5.76,5.76,0,0,0,0-8.15Zm-45.83-41.6,7.49,1.42-4.49,4.48a11,11,0,0,1-2.68-1.95,8,8,0,0,1-2.55-3.93h0v-.17a5.64,5.64,0,0,1,2.23.15Zm-8.76,1.41a2.54,2.54,0,0,1,3.22-.31,12.34,12.34,0,0,0,3.47,5.34,12.83,12.83,0,0,0,5,3.09,2.47,2.47,0,0,1,.46,1.44,2.54,2.54,0,0,1-4.33,1.79h0l-7.79-7.77a2.53,2.53,0,0,1,0-3.58Zm-4.51,7.53a2.56,2.56,0,0,1,3.59,0l6.27,6.26a2.54,2.54,0,0,1-3.6,3.58h0l-4.75-4.75,0,0-1.49-1.48a2.57,2.57,0,0,1-.74-1.8,2.53,2.53,0,0,1,.75-1.79Zm-4.53,7.54a2.53,2.53,0,0,1,1.8-.74,2.49,2.49,0,0,1,1.78.73l4.77,4.77a2.53,2.53,0,0,1,0,3.58,2.52,2.52,0,0,1-1.79.73,2.56,2.56,0,0,1-1.8-.73l-1.73-1.73h0l-3-3a2.53,2.53,0,0,1,0-3.58Zm-3,9a2.53,2.53,0,0,1,1.79-.74,2.57,2.57,0,0,1,1.8.74l1.73,1.73a2.53,2.53,0,0,1-3.59,3.58l-.22-.22h0l-1.49-1.49a2.54,2.54,0,0,1,0-3.59Zm35.19,19.63a1.73,1.73,0,0,0-2.44,0l-1.53,1.54c-1.46,1.46-4.11,1.27-6.67,1.1-2.78-.2-5.65-.4-7.51,1.51L372,571.43l-15.91-15.89,5.63-5.62a6,6,0,0,0,9.12-5.11v0h.05a6,6,0,0,0,6-6v0h0a6,6,0,0,0,6-6H383a6,6,0,0,0,5.11-9.11l4.93-4.93a2.47,2.47,0,0,1,1.3-.69l.15,0a2.53,2.53,0,0,1,2.15,4.3l-1.5,1.5h0l-1.73,1.73a1.73,1.73,0,0,0,0,2.44,1.71,1.71,0,0,0,2.44,0l1.51-1.5h0l.23-.23a2.55,2.55,0,0,1,3.59,0,2.55,2.55,0,0,1,0,3.58l-1.51,1.51h0L397.86,533a1.73,1.73,0,1,0,2.44,2.44l1.74-1.73a2.53,2.53,0,0,1,3.58,3.59l-3,3a1.73,1.73,0,0,0,1.22,2.95,1.7,1.7,0,0,0,1.22-.51l1.48-1.48,0,0a2.53,2.53,0,0,1,3.58,0,2.53,2.53,0,0,1,0,3.58l-1.5,1.5h0l-2.38,2.38a1.73,1.73,0,1,0,2.44,2.44l1.16-1.16,5.59,5.58-15.91,15.89-5.7-5.7a6.41,6.41,0,0,0,1.14-.91l1.53-1.53a1.73,1.73,0,0,0,0-2.45Zm29,2.14L407,581.55a2.32,2.32,0,0,1-3.26,0l-3.06-3a2.31,2.31,0,0,1,0-3.25l18.52-18.49a2.32,2.32,0,0,1,3.26,0l3.05,3a2.32,2.32,0,0,1,0,3.26Z"></path><path class="cls-3" d="M362.8,507.72a1.71,1.71,0,0,0,2.44,0,1.73,1.73,0,0,0,0-2.44l-6.3-6.29a1.73,1.73,0,0,0-2.44,2.45Z"></path><path class="cls-3" d="M407.45,508.23a1.72,1.72,0,0,0,1.22-.51l6.29-6.28a1.73,1.73,0,0,0,0-2.44,1.71,1.71,0,0,0-2.44,0l-6.29,6.28a1.73,1.73,0,0,0,1.22,3Z"></path><path class="cls-3" d="M352.75,572.32a1.72,1.72,0,0,0,0,2.44h0a1.73,1.73,0,0,0,1.21.5,1.75,1.75,0,0,0,1.23-.52,1.73,1.73,0,0,0-2.47-2.42Z"></path><path class="cls-3" d="M400.74,558.43a1.68,1.68,0,0,0,.78-.18,1.73,1.73,0,0,0-1.56-3.09h0a1.72,1.72,0,0,0,.79,3.26Z"></path><path class="cls-3" d="M756.84,571.93a1.65,1.65,0,0,0-1.66,1.65v10.6a1.66,1.66,0,0,0,3.31,0v-10.6A1.65,1.65,0,0,0,756.84,571.93Z"></path><path class="cls-3" d="M786.85,575.46a1.65,1.65,0,0,0-1.65,1.66v7.06a1.65,1.65,0,0,0,3.3,0v-7.06A1.65,1.65,0,0,0,786.85,575.46Z"></path><path class="cls-3" d="M822.17,575.46a1.66,1.66,0,0,0-1.66,1.66v7.06a1.66,1.66,0,0,0,3.31,0v-7.06A1.65,1.65,0,0,0,822.17,575.46Z"></path><path class="cls-3" d="M773.47,540.32c-3.84-1.91-11-1.94-11.34-1.94a1.66,1.66,0,0,0,0,3.31c1.86,0,7.25.29,9.86,1.59a1.66,1.66,0,0,0,2.21-.74A1.66,1.66,0,0,0,773.47,540.32Z"></path><path class="cls-3" d="M857.06,565.76l-6.69-3.34a.12.12,0,0,1-.07-.1V559a12.2,12.2,0,0,0,5.18-8.39,14,14,0,0,0-3.71-18.19,7,7,0,0,0,.3-2c0-4.32-3.91-7.84-8.72-7.84s-8.71,3.52-8.71,7.84a7,7,0,0,0,.3,2,14,14,0,0,0-4.58,6c-.41-4-.84-8.78-1.25-14.33-.54-7.31-3.17-13.48-7.6-17.85a25.11,25.11,0,0,0-34,0c-4.43,4.37-7.06,10.54-7.6,17.85-.15,1.94-.29,3.78-.44,5.54H763.9A10.49,10.49,0,0,0,753.42,540v.09a8.77,8.77,0,0,0,.92,3.9l.84,1.69v2.7a12.9,12.9,0,0,0,5.3,10.42v2.38a.7.7,0,0,1-.5.67l-6.82,2a7,7,0,0,0-5,6.68v13.66a1.66,1.66,0,0,0,3.31,0V570.52a3.66,3.66,0,0,1,2.64-3.51l6.82-2a3.3,3.3,0,0,0,.7-.28l4.19,4.19v15.21a1.65,1.65,0,0,0,3.3,0V569l4.22-4.21a9.69,9.69,0,0,0,1.53.55l1.68.48a8.71,8.71,0,0,0-3.67,7.1v11.29a1.65,1.65,0,0,0,3.3,0V572.89a5.41,5.41,0,0,1,3.23-4.95l9.44-4.17a17.56,17.56,0,0,0,31.4,0l9.44,4.17a5.4,5.4,0,0,1,3.22,4.95v11.29a1.66,1.66,0,0,0,3.31,0V572.89a8.67,8.67,0,0,0-2.09-5.65l2.56-1.28,1.92,1.82a6.92,6.92,0,0,0,9.57,0l1.92-1.82,5.52,2.76a3.62,3.62,0,0,1,2,3.26v12.2a1.66,1.66,0,0,0,3.31,0V572A6.94,6.94,0,0,0,857.06,565.76Zm-13.71-40c3,0,5.41,2,5.41,4.52,0,.11,0,.21,0,.32a14,14,0,0,0-10.79,0c0-.11,0-.21,0-.32C837.94,527.83,840.37,525.8,843.35,525.8ZM767.43,566l-3.76-3.76a4.44,4.44,0,0,0,.12-1v-.69a11.38,11.38,0,0,0,3.26.57h.38a12.25,12.25,0,0,0,3.64-.55v.66a4.2,4.2,0,0,0,.11,1Zm-.28-8.15a9.24,9.24,0,0,1-8.66-9.38v-3.09a1.62,1.62,0,0,0-.18-.74l-1-2a5.45,5.45,0,0,1-.57-2.42V540a7.19,7.19,0,0,1,7.18-7.18h14.24v6.86a7.15,7.15,0,0,1-.76,3.21l-.83,1.66a1.62,1.62,0,0,0-.18.74v3.53a8.93,8.93,0,0,1-9.22,8.94ZM781,563.62l-5.22-1.49c-1.36-.39-1.36-.54-1.36-.91V559a13.8,13.8,0,0,0,1.58-1.3,12.64,12.64,0,0,0,.93-1,3.38,3.38,0,0,0,1.2,1.35,36.6,36.6,0,0,0,7.5,3.59Zm23.55,6.55a14.23,14.23,0,0,1-12.67-7.74l2.4-1.06a5.18,5.18,0,0,0,3.09-4.74v-4a19.24,19.24,0,0,0,14.36,0v4a5.19,5.19,0,0,0,3.08,4.74l2.41,1.06A14.2,14.2,0,0,1,804.51,570.17Zm14.32-10.62-2.72-1.2a1.89,1.89,0,0,1-1.12-1.72V551a19.32,19.32,0,0,0,8.83-16.21v-3.1a6.91,6.91,0,0,0-2.35-5.21c-3.32-2.89-10.83-7.92-23.86-9.23a1.65,1.65,0,0,0-.33,3.29c12.12,1.21,19,5.81,22,8.43a3.6,3.6,0,0,1,1.21,2.72v3.1a16,16,0,0,1-32,0v-1.38a1.81,1.81,0,0,1,1-1.56,13.06,13.06,0,0,0,6-7.13,1.65,1.65,0,1,0-3.13-1,9.85,9.85,0,0,1-4.55,5.32,5.13,5.13,0,0,0-2.6,4.42v1.38A19.31,19.31,0,0,0,794,551v5.68a1.89,1.89,0,0,1-1.12,1.72l-2.73,1.2a36,36,0,0,1-10.29-4.34s0,0,0-.09c.57-3.41,2-13.23,3.35-30.85.48-6.5,2.77-11.95,6.63-15.75a21.81,21.81,0,0,1,29.36,0c3.85,3.8,6.15,9.25,6.63,15.75,1.3,17.62,2.78,27.44,3.35,30.85a.08.08,0,0,1,0,.09A36.27,36.27,0,0,1,818.83,559.55Zm17.57,2.77a.11.11,0,0,1-.06.1L831.17,565a1.63,1.63,0,0,0-.19-.09l-7.55-3.34a36.61,36.61,0,0,0,7.5-3.59,3.39,3.39,0,0,0,1.5-3.42l0-.24a12.2,12.2,0,0,0,4,4.62Zm9.46,3.07a3.64,3.64,0,0,1-5,0l-1.53-1.46a3.43,3.43,0,0,0,.4-1.61v-1.76a12.35,12.35,0,0,0,7.29,0v1.76a3.43,3.43,0,0,0,.4,1.61Zm-2.51-7.58a8.92,8.92,0,0,1-8.88-8,1.73,1.73,0,0,0-.24-.69,10.7,10.7,0,1,1,19.83-5.58,10.52,10.52,0,0,1-.54,3.34c-4.69-4.77-12.94-6.63-13.34-6.72a1.65,1.65,0,0,0-1.39.32,1.67,1.67,0,0,0-.62,1.29,4.06,4.06,0,0,1-1.28,2.36,1.65,1.65,0,0,0,2.33,2.34,8,8,0,0,0,1.8-2.67c2.78.83,8.55,2.91,11.14,6.57A8.93,8.93,0,0,1,843.35,557.81Z"></path><path class="cls-3" d="M852.18,574.11a1.65,1.65,0,0,0-1.65,1.66v8.41a1.65,1.65,0,0,0,3.3,0v-8.41A1.65,1.65,0,0,0,852.18,574.11Z"></path><path class="cls-3" d="M957.68,473.22c-1.29,0-2.58-.06-3.85-.18a39.86,39.86,0,0,1-23.69-10.68,35.94,35.94,0,0,1,0-52.53,40.44,40.44,0,0,1,55.13,0,36.52,36.52,0,0,1,11.25,22.59,35.9,35.9,0,0,1-6.11,23.93,2.56,2.56,0,0,1-2.11,1.09,2.63,2.63,0,0,1-1.37-.39,2.45,2.45,0,0,1-1.11-1.56,2.35,2.35,0,0,1,.37-1.82,31.22,31.22,0,0,0-4.46-40.38,35.25,35.25,0,0,0-48,0,31.17,31.17,0,0,0,0,45.61,35.44,35.44,0,0,0,42.49,4.27,2.61,2.61,0,0,1,1.36-.38,2.52,2.52,0,0,1,2.11,1.1,2.36,2.36,0,0,1,.37,1.82,2.42,2.42,0,0,1-1.11,1.56A40.31,40.31,0,0,1,957.68,473.22Z"></path><path class="cls-3" d="M957.71,399.6a39.27,39.27,0,0,1,27.13,10.68,35.86,35.86,0,0,1,11.06,22.21,35.26,35.26,0,0,1-6,23.5,1.92,1.92,0,0,1-1.59.82,2,2,0,0,1-1-.29,1.74,1.74,0,0,1-.55-2.5,31.83,31.83,0,0,0-4.55-41.18,35.88,35.88,0,0,0-48.9,0,31.8,31.8,0,0,0,0,46.51,36.07,36.07,0,0,0,43.25,4.36,2,2,0,0,1,2.63.53,1.76,1.76,0,0,1-.56,2.5,39.9,39.9,0,0,1-20.9,5.86c-1.26,0-2.53-.06-3.79-.18a39.28,39.28,0,0,1-23.32-10.51,35.31,35.31,0,0,1,0-51.63,39.28,39.28,0,0,1,27.14-10.68m0-1.25a40.4,40.4,0,0,0-28,11,36.55,36.55,0,0,0,0,53.44,40.56,40.56,0,0,0,24.06,10.86c1.3.12,2.61.18,3.91.18a41,41,0,0,0,21.56-6.05,3,3,0,0,0,1.39-2,3,3,0,0,0-.46-2.31,3.18,3.18,0,0,0-2.63-1.36,3.24,3.24,0,0,0-1.69.47,34.81,34.81,0,0,1-41.73-4.19,30.57,30.57,0,0,1,0-44.71,34.64,34.64,0,0,1,47.17,0,30.58,30.58,0,0,1,4.39,39.57,3,3,0,0,0-.47,2.31,3.06,3.06,0,0,0,1.39,2,3.22,3.22,0,0,0,4.32-.88,36.45,36.45,0,0,0,6.22-24.34,37.12,37.12,0,0,0-11.44-23,40.39,40.39,0,0,0-28-11Z"></path><path class="cls-3" d="M983.44,463.12a2.55,2.55,0,0,1-1.78-.71,2.38,2.38,0,0,1,0-3.46,2.62,2.62,0,0,1,1.83-.75,2.55,2.55,0,0,1,1.78.71,2.33,2.33,0,0,1,.74,1.73,2.39,2.39,0,0,1-.75,1.73A2.62,2.62,0,0,1,983.44,463.12Z"></path><path class="cls-3" d="M983.5,458.82a2,2,0,0,1,1.35.54,1.74,1.74,0,0,1,0,2.55l-.06.06a1.93,1.93,0,0,1-1.34.52,2,2,0,0,1-1.34-.53,1.75,1.75,0,0,1,0-2.56l.06,0a1.94,1.94,0,0,1,1.34-.53m0-1.25h0a3.18,3.18,0,0,0-2.2.87l-.06.06a3,3,0,0,0,0,4.36,3.22,3.22,0,0,0,4.41,0l.06-.05a3,3,0,0,0,0-4.37,3.21,3.21,0,0,0-2.21-.88Z"></path><path class="cls-3" d="M948.93,431.23a1.85,1.85,0,0,1-1.9-1.8,1.19,1.19,0,0,0-2.38,0,1.9,1.9,0,0,1-3.8,0,5,5,0,0,1,10,0A1.85,1.85,0,0,1,948.93,431.23Z"></path><path class="cls-3" d="M973.7,431.23a1.85,1.85,0,0,1-1.9-1.8,1.19,1.19,0,0,0-2.38,0,1.9,1.9,0,0,1-3.8,0,5,5,0,0,1,10,0A1.85,1.85,0,0,1,973.7,431.23Z"></path><path class="cls-3" d="M958.22,454.41a10.59,10.59,0,0,1-10.84-10.31,1.9,1.9,0,0,1,3.8,0,7.05,7.05,0,0,0,14.09,0,1.9,1.9,0,0,1,3.8,0A10.6,10.6,0,0,1,958.22,454.41Z"></path><path class="cls-3" d="M996.84,395.94a1.86,1.86,0,0,1-1.9-1.81v-2.49a1.9,1.9,0,0,1,3.8,0v2.49A1.86,1.86,0,0,1,996.84,395.94Z"></path><path class="cls-3" d="M996.84,407.9a1.86,1.86,0,0,1-1.9-1.81V403.6a1.9,1.9,0,0,1,3.8,0v2.49A1.86,1.86,0,0,1,996.84,407.9Z"></path><path class="cls-3" d="M1004.44,400.67h-2.62a1.81,1.81,0,1,1,0-3.61h2.62a1.81,1.81,0,1,1,0,3.61Z"></path><path class="cls-3" d="M991.87,400.67h-2.63a1.81,1.81,0,1,1,0-3.61h2.63a1.81,1.81,0,1,1,0,3.61Z"></path><path class="cls-3" d="M918.57,470.4a1.86,1.86,0,0,1-1.9-1.81V466.1a1.9,1.9,0,0,1,3.8,0v2.49A1.86,1.86,0,0,1,918.57,470.4Z"></path><path class="cls-3" d="M918.57,482.36a1.86,1.86,0,0,1-1.9-1.81v-2.49a1.9,1.9,0,0,1,3.8,0v2.49A1.86,1.86,0,0,1,918.57,482.36Z"></path><path class="cls-3" d="M926.17,475.13h-2.62a1.81,1.81,0,1,1,0-3.61h2.62a1.81,1.81,0,1,1,0,3.61Z"></path><path class="cls-3" d="M913.6,475.13H911a1.81,1.81,0,1,1,0-3.61h2.63a1.81,1.81,0,1,1,0,3.61Z"></path><circle class="cls-4" cx="400.08" cy="410.57" r="12.97"></circle><circle class="cls-5" cx="401.13" cy="408.07" r="12.97"></circle><circle class="cls-4" cx="922.71" cy="300.73" r="12.61"></circle><circle class="cls-5" cx="920.93" cy="299.34" r="12.61"></circle><circle class="cls-4" cx="802.82" cy="410.2" r="12.76"></circle><circle class="cls-5" cx="801.34" cy="407.86" r="12.76"></circle><circle class="cls-4" cx="600.81" cy="454.52" r="13.49"></circle><circle class="cls-5" cx="600.79" cy="451.43" r="13.49"></circle><text class="cls-6" transform="translate(136.01 357.98)">A<tspan class="cls-7" x="12.41" y="0">n</tspan><tspan class="cls-8" x="23.56" y="0">a</tspan><tspan class="cls-9" x="33.45" y="0">l</tspan><tspan class="cls-10" x="38.43" y="0">y</tspan><tspan class="cls-11" x="48.61" y="0">t</tspan><tspan class="cls-12" x="55.54" y="0">i</tspan><tspan class="cls-13" x="60.38" y="0">c</tspan><tspan class="cls-14" x="70.13" y="0">s</tspan><tspan class="cls-15" x="78.82" y="0">-</tspan><tspan class="cls-16" x="85.54" y="0">B</tspan><tspan class="cls-17" x="98.15" y="0">a</tspan><tspan class="cls-18" x="108.2" y="0">s</tspan><tspan class="cls-19" x="116.83" y="0">e</tspan><tspan class="cls-18" x="127.17" y="0">d</tspan><tspan class="cls-20"><tspan x="-2.73" y="20">D</tspan><tspan class="cls-21" x="10.93" y="20">e</tspan><tspan class="cls-22" x="21.26" y="20">c</tspan><tspan class="cls-23" x="30.81" y="20">is</tspan><tspan class="cls-12" x="44.32" y="20">i</tspan><tspan class="cls-24" x="49.16" y="20">o</tspan><tspan class="cls-25" x="59.75" y="20">n</tspan><tspan class="cls-15" x="71.15" y="20">-</tspan><tspan class="cls-26" x="77.87" y="20">M</tspan><tspan class="cls-27" x="93.44" y="20">a</tspan><tspan class="cls-28" x="103.32" y="20">k</tspan><tspan class="cls-29" x="113.83" y="20">i</tspan><tspan class="cls-30" x="118.61" y="20">n</tspan><tspan class="cls-31" x="129.78" y="20">g</tspan></tspan></text><text class="cls-32" transform="translate(776.08 461.4)">E<tspan class="cls-33" x="11.27" y="0">x</tspan><tspan class="cls-34" x="20.68" y="0">p</tspan><tspan class="cls-35" x="32.04" y="0">e</tspan><tspan class="cls-36" x="42.26" y="0">r</tspan><tspan class="cls-31" x="49.63" y="0">t</tspan><tspan class="cls-37"><tspan x="-15.58" y="20">R</tspan><tspan class="cls-34" x="-3.58" y="20">e</tspan><tspan class="cls-18" x="6.75" y="20">s</tspan><tspan class="cls-38" x="15.39" y="20">o</tspan><tspan class="cls-39" x="25.95" y="20">u</tspan><tspan class="cls-11" x="37.02" y="20">r</tspan><tspan class="cls-40" x="43.88" y="20">c</tspan><tspan class="cls-34" x="53.42" y="20">e</tspan><tspan class="cls-18" x="63.76" y="20">s</tspan></tspan></text><text class="cls-41" transform="translate(344.48 461.4)">W<tspan class="cls-35" x="18.03" y="0">o</tspan><tspan class="cls-42" x="28.62" y="0">r</tspan><tspan class="cls-43" x="35.42" y="0">k</tspan><tspan class="cls-44" x="46.38" y="0">fl</tspan><tspan class="cls-45" x="57.22" y="0">o</tspan><tspan class="cls-31" x="67.65" y="0">w</tspan><tspan class="cls-46"><tspan x="-14.09" y="20">O</tspan><tspan class="cls-47" x="-0.21" y="20">p</tspan><tspan class="cls-48" x="11.05" y="20">t</tspan><tspan class="cls-29" x="17.98" y="20">i</tspan><tspan class="cls-49" x="22.76" y="20">m</tspan><tspan class="cls-50" x="39.76" y="20">i</tspan><tspan class="cls-28" x="44.45" y="20">z</tspan><tspan class="cls-51" x="53.3" y="20">a</tspan><tspan class="cls-11" x="63.13" y="20">t</tspan><tspan class="cls-12" x="70.06" y="20">i</tspan><tspan class="cls-24" x="74.9" y="20">o</tspan><tspan class="cls-31" x="85.49" y="20">n</tspan></tspan></text><text class="cls-52" transform="translate(540.8 503.53)">I<tspan class="cls-40" x="5.3" y="0">n</tspan><tspan class="cls-53" x="16.5" y="0">c</tspan><tspan class="cls-49" x="26.06" y="0">r</tspan><tspan class="cls-54" x="32.93" y="0">e</tspan><tspan class="cls-17" x="43.13" y="0">a</tspan><tspan class="cls-18" x="53.17" y="0">s</tspan><tspan class="cls-21" x="61.81" y="0">e</tspan><tspan class="cls-31" x="72.14" y="0">d </tspan><tspan class="cls-44" x="88.35" y="0">R</tspan><tspan class="cls-55" x="100.35" y="0">O</tspan><tspan class="cls-31" x="114.2" y="0">I</tspan></text><text class="cls-56" transform="translate(919.72 357.98)">R<tspan class="cls-19" x="12" y="0">e</tspan><tspan class="cls-57" x="22.33" y="0">d</tspan><tspan class="cls-24" x="33.49" y="0">u</tspan><tspan class="cls-40" x="44.66" y="0">c</tspan><tspan class="cls-21" x="54.2" y="0">e</tspan><tspan class="cls-18" x="64.53" y="0">d</tspan><tspan class="cls-58"><tspan x="12.07" y="20">S</tspan><tspan class="cls-11" x="22.36" y="20">t</tspan><tspan class="cls-49" x="29.29" y="20">r</tspan><tspan class="cls-59" x="36.16" y="20">e</tspan><tspan class="cls-60" x="46.5" y="20">s</tspan><tspan class="cls-18" x="55.21" y="20">s</tspan></tspan></text><text class="cls-61" transform="translate(547.07 155.99)">H<tspan class="cls-62" x="19.44" y="0">o</tspan><tspan x="34.56" y="0">w </tspan><tspan class="cls-63" x="63.24" y="0">W</tspan><tspan x="89.38" y="0">e</tspan><tspan x="-7.67" y="28.8">Emp</tspan><tspan class="cls-64" x="50.15" y="28.8">ow</tspan><tspan x="86.96" y="28.8">er</tspan><tspan class="cls-65" x="-27.46" y="57.6">Y</tspan><tspan x="-13.03" y="57.6">our IT </tspan><tspan class="cls-63" x="64.22" y="57.6">T</tspan><tspan class="cls-62" x="77.35" y="57.6">e</tspan><tspan x="91.92" y="57.6">am</tspan></text><circle class="cls-4" cx="272.75" cy="301.73" r="12.75"></circle><circle class="cls-5" cx="274.25" cy="299.48" r="12.75"></circle><path class="cls-3" d="M156.77,484a2.58,2.58,0,0,0,0,3.68l6.53,6.54a2.61,2.61,0,0,0,3.68,0l11.64-11.65h0l4.08-4.08h0l3.6-3.6a2.61,2.61,0,0,0,0-3.68l-.2-.21,5.17-5.16a38.8,38.8,0,0,0,17.46,7.93v9.65a1.45,1.45,0,1,0,2.89,0v-9.24q1.38.13,2.79.18v15.86a1.45,1.45,0,0,0,2.89,0V474.34c.93,0,1.86-.11,2.78-.22v9.3a1.45,1.45,0,1,0,2.89,0v-9.74a39,39,0,1,0-33.6-67.18,1.45,1.45,0,0,0,2,2.14,36.07,36.07,0,1,1-4.05,4.33,1.45,1.45,0,0,0-2.27-1.79,38.55,38.55,0,0,0-8,18.22h-9.74a1.45,1.45,0,0,0,0,2.89h9.41c-.07.92-.11,1.85-.11,2.79H160.43a1.45,1.45,0,0,0,0,2.89H176.7c.07.93.16,1.86.29,2.78h-9.67a1.45,1.45,0,0,0,0,2.89H177.5a38.81,38.81,0,0,0,7.66,16.06L180,464.88l-.21-.21a2.6,2.6,0,0,0-3.67,0l-3.61,3.61h0l-4.09,4.09h0l-5.88,5.88a1.44,1.44,0,0,0,2,2l4.86-4.86,6.13,6.13L165.14,492,159,485.85l1.21-1.2a1.45,1.45,0,0,0-2.05-2l-1.4,1.4Zm30.28-22.11c.66.7,1.34,1.39,2,2l-5,5-2.05-2,5-5Zm-15.57,11.49,2-2,6.13,6.12-2,2Zm12.59-.34-2.38,2.38-6.13-6.13,2.39-2.38Z"></path><path class="cls-3" d="M235.74,461.82a1.45,1.45,0,1,0-1.74-2.31,31,31,0,0,1-18.4,6.2,30.34,30.34,0,0,1,0-60.68,30,30,0,0,1,21.37,8.9,30.7,30.7,0,0,1,9,21.46,29.6,29.6,0,0,1-7.62,20.15,1.44,1.44,0,0,0,2.15,1.93,32.49,32.49,0,0,0,8.36-22.11A33.61,33.61,0,0,0,239,411.89a32.86,32.86,0,0,0-23.42-9.74,33.23,33.23,0,1,0,0,66.45,33.91,33.91,0,0,0,20.12-6.78Z"></path><path class="cls-3" d="M207.92,411.78V424.2h-9.35a2.21,2.21,0,0,0-2.21,2.22v8.18h-1.93a1.45,1.45,0,1,0,0,2.89h41.42a1.45,1.45,0,1,0,0-2.89h-1.93V419.1a2.21,2.21,0,0,0-2.22-2.22h-9.34v-5.1a2.22,2.22,0,0,0-2.21-2.22h-10A2.22,2.22,0,0,0,207.92,411.78ZM231,434.6h-8.67V419.77H231Zm-11.56,0h-8.66V412.45h8.66Zm-11.55-7.51v7.51h-8.67v-7.51Z"></path><path class="cls-3" d="M197.51,451.18a1.44,1.44,0,0,0,1.45,1.44h7.79a1.43,1.43,0,0,0,1.34-.92l2.07-5.28L214.45,458a1.45,1.45,0,0,0,1.36.95h0a1.44,1.44,0,0,0,1.35-1l3.21-9.11,1.69,3a1.45,1.45,0,0,0,1.26.74H231a1.45,1.45,0,1,0,0-2.89h-6.78l-2.83-5.07a1.45,1.45,0,0,0-1.39-.74,1.47,1.47,0,0,0-1.24,1l-2.95,8.37-4.22-11.39a1.44,1.44,0,0,0-2.7,0l-3.09,7.89H199A1.45,1.45,0,0,0,197.51,451.18Z"></path></svg> 